<?xml version="1.0" encoding="utf-8"?>
<svg version="1.1" baseProfile="full"  width="740" height="740" viewBox="0 0 740 740"
		 xmlns="http://www.w3.org/2000/svg" xmlns:xlink="http://www.w3.org/1999/xlink" xmlns:ev="http://www.w3.org/2001/xml-events">
<desc></desc>
<rect width="740" height="740" fill="#ffffff" cx="0" cy="0" />
<defs>
<rect id="p" width="20" height="20" />
</defs>
<g fill="#000000">
<use x="40" y="40" xlink:href="#p" />
<use x="40" y="60" xlink:href="#p" />
<use x="40" y="80" xlink:href="#p" />
<use x="40" y="100" xlink:href="#p" />
<use x="40" y="120" xlink:href="#p" />
<use x="40" y="140" xlink:href="#p" />
<use x="40" y="160" xlink:href="#p" />
<use x="40" y="200" xlink:href="#p" />
<use x="40" y="280" xlink:href="#p" />
<use x="40" y="340" xlink:href="#p" />
<use x="40" y="380" xlink:href="#p" />
<use x="40" y="400" xlink:href="#p" />
<use x="40" y="440" xlink:href="#p" />
<use x="40" y="560" xlink:href="#p" />
<use x="40" y="580" xlink:href="#p" />
<use x="40" y="600" xlink:href="#p" />
<use x="40" y="620" xlink:href="#p" />
<use x="40" y="640" xlink:href="#p" />
<use x="40" y="660" xlink:href="#p" />
<use x="40" y="680" xlink:href="#p" />
<use x="60" y="40" xlink:href="#p" />
<use x="60" y="160" xlink:href="#p" />
<use x="60" y="200" xlink:href="#p" />
<use x="60" y="220" xlink:href="#p" />
<use x="60" y="260" xlink:href="#p" />
<use x="60" y="280" xlink:href="#p" />
<use x="60" y="340" xlink:href="#p" />
<use x="60" y="360" xlink:href="#p" />
<use x="60" y="380" xlink:href="#p" />
<use x="60" y="400" xlink:href="#p" />
<use x="60" y="420" xlink:href="#p" />
<use x="60" y="440" xlink:href="#p" />
<use x="60" y="480" xlink:href="#p" />
<use x="60" y="500" xlink:href="#p" />
<use x="60" y="560" xlink:href="#p" />
<use x="60" y="680" xlink:href="#p" />
<use x="80" y="40" xlink:href="#p" />
<use x="80" y="80" xlink:href="#p" />
<use x="80" y="100" xlink:href="#p" />
<use x="80" y="120" xlink:href="#p" />
<use x="80" y="160" xlink:href="#p" />
<use x="80" y="220" xlink:href="#p" />
<use x="80" y="260" xlink:href="#p" />
<use x="80" y="280" xlink:href="#p" />
<use x="80" y="340" xlink:href="#p" />
<use x="80" y="380" xlink:href="#p" />
<use x="80" y="420" xlink:href="#p" />
<use x="80" y="440" xlink:href="#p" />
<use x="80" y="460" xlink:href="#p" />
<use x="80" y="480" xlink:href="#p" />
<use x="80" y="500" xlink:href="#p" />
<use x="80" y="520" xlink:href="#p" />
<use x="80" y="560" xlink:href="#p" />
<use x="80" y="600" xlink:href="#p" />
<use x="80" y="620" xlink:href="#p" />
<use x="80" y="640" xlink:href="#p" />
<use x="80" y="680" xlink:href="#p" />
<use x="100" y="40" xlink:href="#p" />
<use x="100" y="80" xlink:href="#p" />
<use x="100" y="100" xlink:href="#p" />
<use x="100" y="120" xlink:href="#p" />
<use x="100" y="160" xlink:href="#p" />
<use x="100" y="200" xlink:href="#p" />
<use x="100" y="240" xlink:href="#p" />
<use x="100" y="260" xlink:href="#p" />
<use x="100" y="280" xlink:href="#p" />
<use x="100" y="320" xlink:href="#p" />
<use x="100" y="360" xlink:href="#p" />
<use x="100" y="400" xlink:href="#p" />
<use x="100" y="440" xlink:href="#p" />
<use x="100" y="480" xlink:href="#p" />
<use x="100" y="560" xlink:href="#p" />
<use x="100" y="600" xlink:href="#p" />
<use x="100" y="620" xlink:href="#p" />
<use x="100" y="640" xlink:href="#p" />
<use x="100" y="680" xlink:href="#p" />
<use x="120" y="40" xlink:href="#p" />
<use x="120" y="80" xlink:href="#p" />
<use x="120" y="100" xlink:href="#p" />
<use x="120" y="120" xlink:href="#p" />
<use x="120" y="160" xlink:href="#p" />
<use x="120" y="200" xlink:href="#p" />
<use x="120" y="220" xlink:href="#p" />
<use x="120" y="280" xlink:href="#p" />
<use x="120" y="300" xlink:href="#p" />
<use x="120" y="360" xlink:href="#p" />
<use x="120" y="380" xlink:href="#p" />
<use x="120" y="420" xlink:href="#p" />
<use x="120" y="480" xlink:href="#p" />
<use x="120" y="500" xlink:href="#p" />
<use x="120" y="560" xlink:href="#p" />
<use x="120" y="600" xlink:href="#p" />
<use x="120" y="620" xlink:href="#p" />
<use x="120" y="640" xlink:href="#p" />
<use x="120" y="680" xlink:href="#p" />
<use x="140" y="40" xlink:href="#p" />
<use x="140" y="160" xlink:href="#p" />
<use x="140" y="240" xlink:href="#p" />
<use x="140" y="260" xlink:href="#p" />
<use x="140" y="280" xlink:href="#p" />
<use x="140" y="320" xlink:href="#p" />
<use x="140" y="340" xlink:href="#p" />
<use x="140" y="360" xlink:href="#p" />
<use x="140" y="460" xlink:href="#p" />
<use x="140" y="520" xlink:href="#p" />
<use x="140" y="560" xlink:href="#p" />
<use x="140" y="680" xlink:href="#p" />
<use x="160" y="40" xlink:href="#p" />
<use x="160" y="60" xlink:href="#p" />
<use x="160" y="80" xlink:href="#p" />
<use x="160" y="100" xlink:href="#p" />
<use x="160" y="120" xlink:href="#p" />
<use x="160" y="140" xlink:href="#p" />
<use x="160" y="160" xlink:href="#p" />
<use x="160" y="200" xlink:href="#p" />
<use x="160" y="240" xlink:href="#p" />
<use x="160" y="280" xlink:href="#p" />
<use x="160" y="320" xlink:href="#p" />
<use x="160" y="360" xlink:href="#p" />
<use x="160" y="400" xlink:href="#p" />
<use x="160" y="440" xlink:href="#p" />
<use x="160" y="480" xlink:href="#p" />
<use x="160" y="520" xlink:href="#p" />
<use x="160" y="560" xlink:href="#p" />
<use x="160" y="580" xlink:href="#p" />
<use x="160" y="600" xlink:href="#p" />
<use x="160" y="620" xlink:href="#p" />
<use x="160" y="640" xlink:href="#p" />
<use x="160" y="660" xlink:href="#p" />
<use x="160" y="680" xlink:href="#p" />
<use x="180" y="220" xlink:href="#p" />
<use x="180" y="280" xlink:href="#p" />
<use x="180" y="300" xlink:href="#p" />
<use x="180" y="320" xlink:href="#p" />
<use x="180" y="340" xlink:href="#p" />
<use x="180" y="380" xlink:href="#p" />
<use x="180" y="420" xlink:href="#p" />
<use x="180" y="460" xlink:href="#p" />
<use x="180" y="480" xlink:href="#p" />
<use x="200" y="40" xlink:href="#p" />
<use x="200" y="160" xlink:href="#p" />
<use x="200" y="180" xlink:href="#p" />
<use x="200" y="220" xlink:href="#p" />
<use x="200" y="260" xlink:href="#p" />
<use x="200" y="280" xlink:href="#p" />
<use x="200" y="340" xlink:href="#p" />
<use x="200" y="360" xlink:href="#p" />
<use x="200" y="420" xlink:href="#p" />
<use x="200" y="460" xlink:href="#p" />
<use x="200" y="480" xlink:href="#p" />
<use x="200" y="500" xlink:href="#p" />
<use x="200" y="540" xlink:href="#p" />
<use x="200" y="600" xlink:href="#p" />
<use x="200" y="620" xlink:href="#p" />
<use x="200" y="660" xlink:href="#p" />
<use x="200" y="680" xlink:href="#p" />
<use x="220" y="60" xlink:href="#p" />
<use x="220" y="120" xlink:href="#p" />
<use x="220" y="200" xlink:href="#p" />
<use x="220" y="220" xlink:href="#p" />
<use x="220" y="260" xlink:href="#p" />
<use x="220" y="280" xlink:href="#p" />
<use x="220" y="360" xlink:href="#p" />
<use x="220" y="380" xlink:href="#p" />
<use x="220" y="420" xlink:href="#p" />
<use x="220" y="440" xlink:href="#p" />
<use x="220" y="460" xlink:href="#p" />
<use x="220" y="480" xlink:href="#p" />
<use x="220" y="500" xlink:href="#p" />
<use x="220" y="540" xlink:href="#p" />
<use x="220" y="560" xlink:href="#p" />
<use x="220" y="600" xlink:href="#p" />
<use x="220" y="620" xlink:href="#p" />
<use x="220" y="660" xlink:href="#p" />
<use x="240" y="60" xlink:href="#p" />
<use x="240" y="80" xlink:href="#p" />
<use x="240" y="140" xlink:href="#p" />
<use x="240" y="160" xlink:href="#p" />
<use x="240" y="180" xlink:href="#p" />
<use x="240" y="200" xlink:href="#p" />
<use x="240" y="240" xlink:href="#p" />
<use x="240" y="260" xlink:href="#p" />
<use x="240" y="320" xlink:href="#p" />
<use x="240" y="340" xlink:href="#p" />
<use x="240" y="360" xlink:href="#p" />
<use x="240" y="440" xlink:href="#p" />
<use x="240" y="520" xlink:href="#p" />
<use x="240" y="540" xlink:href="#p" />
<use x="240" y="560" xlink:href="#p" />
<use x="240" y="600" xlink:href="#p" />
<use x="240" y="620" xlink:href="#p" />
<use x="240" y="640" xlink:href="#p" />
<use x="240" y="680" xlink:href="#p" />
<use x="260" y="40" xlink:href="#p" />
<use x="260" y="120" xlink:href="#p" />
<use x="260" y="180" xlink:href="#p" />
<use x="260" y="200" xlink:href="#p" />
<use x="260" y="240" xlink:href="#p" />
<use x="260" y="260" xlink:href="#p" />
<use x="260" y="280" xlink:href="#p" />
<use x="260" y="320" xlink:href="#p" />
<use x="260" y="340" xlink:href="#p" />
<use x="260" y="380" xlink:href="#p" />
<use x="260" y="400" xlink:href="#p" />
<use x="260" y="600" xlink:href="#p" />
<use x="260" y="620" xlink:href="#p" />
<use x="260" y="660" xlink:href="#p" />
<use x="260" y="680" xlink:href="#p" />
<use x="280" y="40" xlink:href="#p" />
<use x="280" y="80" xlink:href="#p" />
<use x="280" y="100" xlink:href="#p" />
<use x="280" y="140" xlink:href="#p" />
<use x="280" y="160" xlink:href="#p" />
<use x="280" y="220" xlink:href="#p" />
<use x="280" y="260" xlink:href="#p" />
<use x="280" y="280" xlink:href="#p" />
<use x="280" y="320" xlink:href="#p" />
<use x="280" y="380" xlink:href="#p" />
<use x="280" y="420" xlink:href="#p" />
<use x="280" y="440" xlink:href="#p" />
<use x="280" y="480" xlink:href="#p" />
<use x="280" y="540" xlink:href="#p" />
<use x="280" y="580" xlink:href="#p" />
<use x="280" y="600" xlink:href="#p" />
<use x="280" y="640" xlink:href="#p" />
<use x="280" y="680" xlink:href="#p" />
<use x="300" y="60" xlink:href="#p" />
<use x="300" y="80" xlink:href="#p" />
<use x="300" y="100" xlink:href="#p" />
<use x="300" y="180" xlink:href="#p" />
<use x="300" y="220" xlink:href="#p" />
<use x="300" y="360" xlink:href="#p" />
<use x="300" y="420" xlink:href="#p" />
<use x="300" y="460" xlink:href="#p" />
<use x="300" y="560" xlink:href="#p" />
<use x="300" y="600" xlink:href="#p" />
<use x="300" y="640" xlink:href="#p" />
<use x="300" y="660" xlink:href="#p" />
<use x="300" y="680" xlink:href="#p" />
<use x="320" y="40" xlink:href="#p" />
<use x="320" y="60" xlink:href="#p" />
<use x="320" y="80" xlink:href="#p" />
<use x="320" y="160" xlink:href="#p" />
<use x="320" y="180" xlink:href="#p" />
<use x="320" y="200" xlink:href="#p" />
<use x="320" y="220" xlink:href="#p" />
<use x="320" y="260" xlink:href="#p" />
<use x="320" y="300" xlink:href="#p" />
<use x="320" y="320" xlink:href="#p" />
<use x="320" y="400" xlink:href="#p" />
<use x="320" y="420" xlink:href="#p" />
<use x="320" y="440" xlink:href="#p" />
<use x="320" y="460" xlink:href="#p" />
<use x="320" y="480" xlink:href="#p" />
<use x="320" y="500" xlink:href="#p" />
<use x="320" y="540" xlink:href="#p" />
<use x="320" y="560" xlink:href="#p" />
<use x="320" y="580" xlink:href="#p" />
<use x="340" y="200" xlink:href="#p" />
<use x="340" y="220" xlink:href="#p" />
<use x="340" y="240" xlink:href="#p" />
<use x="340" y="260" xlink:href="#p" />
<use x="340" y="300" xlink:href="#p" />
<use x="340" y="320" xlink:href="#p" />
<use x="340" y="360" xlink:href="#p" />
<use x="340" y="380" xlink:href="#p" />
<use x="340" y="400" xlink:href="#p" />
<use x="340" y="460" xlink:href="#p" />
<use x="340" y="480" xlink:href="#p" />
<use x="340" y="500" xlink:href="#p" />
<use x="340" y="520" xlink:href="#p" />
<use x="340" y="540" xlink:href="#p" />
<use x="340" y="560" xlink:href="#p" />
<use x="340" y="600" xlink:href="#p" />
<use x="340" y="620" xlink:href="#p" />
<use x="340" y="640" xlink:href="#p" />
<use x="360" y="80" xlink:href="#p" />
<use x="360" y="120" xlink:href="#p" />
<use x="360" y="140" xlink:href="#p" />
<use x="360" y="160" xlink:href="#p" />
<use x="360" y="180" xlink:href="#p" />
<use x="360" y="280" xlink:href="#p" />
<use x="360" y="320" xlink:href="#p" />
<use x="360" y="360" xlink:href="#p" />
<use x="360" y="440" xlink:href="#p" />
<use x="360" y="480" xlink:href="#p" />
<use x="360" y="500" xlink:href="#p" />
<use x="360" y="540" xlink:href="#p" />
<use x="360" y="560" xlink:href="#p" />
<use x="360" y="580" xlink:href="#p" />
<use x="360" y="600" xlink:href="#p" />
<use x="360" y="680" xlink:href="#p" />
<use x="380" y="100" xlink:href="#p" />
<use x="380" y="120" xlink:href="#p" />
<use x="380" y="140" xlink:href="#p" />
<use x="380" y="200" xlink:href="#p" />
<use x="380" y="220" xlink:href="#p" />
<use x="380" y="240" xlink:href="#p" />
<use x="380" y="260" xlink:href="#p" />
<use x="380" y="300" xlink:href="#p" />
<use x="380" y="380" xlink:href="#p" />
<use x="380" y="400" xlink:href="#p" />
<use x="380" y="440" xlink:href="#p" />
<use x="380" y="460" xlink:href="#p" />
<use x="380" y="500" xlink:href="#p" />
<use x="380" y="620" xlink:href="#p" />
<use x="380" y="680" xlink:href="#p" />
<use x="400" y="40" xlink:href="#p" />
<use x="400" y="60" xlink:href="#p" />
<use x="400" y="120" xlink:href="#p" />
<use x="400" y="160" xlink:href="#p" />
<use x="400" y="180" xlink:href="#p" />
<use x="400" y="200" xlink:href="#p" />
<use x="400" y="300" xlink:href="#p" />
<use x="400" y="380" xlink:href="#p" />
<use x="400" y="440" xlink:href="#p" />
<use x="400" y="460" xlink:href="#p" />
<use x="400" y="500" xlink:href="#p" />
<use x="400" y="580" xlink:href="#p" />
<use x="400" y="640" xlink:href="#p" />
<use x="400" y="660" xlink:href="#p" />
<use x="420" y="60" xlink:href="#p" />
<use x="420" y="100" xlink:href="#p" />
<use x="420" y="120" xlink:href="#p" />
<use x="420" y="200" xlink:href="#p" />
<use x="420" y="220" xlink:href="#p" />
<use x="420" y="320" xlink:href="#p" />
<use x="420" y="360" xlink:href="#p" />
<use x="420" y="380" xlink:href="#p" />
<use x="420" y="400" xlink:href="#p" />
<use x="420" y="420" xlink:href="#p" />
<use x="420" y="440" xlink:href="#p" />
<use x="420" y="460" xlink:href="#p" />
<use x="420" y="520" xlink:href="#p" />
<use x="420" y="560" xlink:href="#p" />
<use x="420" y="620" xlink:href="#p" />
<use x="420" y="640" xlink:href="#p" />
<use x="420" y="660" xlink:href="#p" />
<use x="420" y="680" xlink:href="#p" />
<use x="440" y="80" xlink:href="#p" />
<use x="440" y="120" xlink:href="#p" />
<use x="440" y="140" xlink:href="#p" />
<use x="440" y="160" xlink:href="#p" />
<use x="440" y="180" xlink:href="#p" />
<use x="440" y="200" xlink:href="#p" />
<use x="440" y="240" xlink:href="#p" />
<use x="440" y="260" xlink:href="#p" />
<use x="440" y="280" xlink:href="#p" />
<use x="440" y="320" xlink:href="#p" />
<use x="440" y="340" xlink:href="#p" />
<use x="440" y="360" xlink:href="#p" />
<use x="440" y="380" xlink:href="#p" />
<use x="440" y="420" xlink:href="#p" />
<use x="440" y="480" xlink:href="#p" />
<use x="440" y="500" xlink:href="#p" />
<use x="440" y="560" xlink:href="#p" />
<use x="440" y="600" xlink:href="#p" />
<use x="440" y="620" xlink:href="#p" />
<use x="440" y="640" xlink:href="#p" />
<use x="460" y="40" xlink:href="#p" />
<use x="460" y="60" xlink:href="#p" />
<use x="460" y="80" xlink:href="#p" />
<use x="460" y="100" xlink:href="#p" />
<use x="460" y="120" xlink:href="#p" />
<use x="460" y="220" xlink:href="#p" />
<use x="460" y="320" xlink:href="#p" />
<use x="460" y="400" xlink:href="#p" />
<use x="460" y="480" xlink:href="#p" />
<use x="460" y="620" xlink:href="#p" />
<use x="480" y="80" xlink:href="#p" />
<use x="480" y="160" xlink:href="#p" />
<use x="480" y="180" xlink:href="#p" />
<use x="480" y="200" xlink:href="#p" />
<use x="480" y="220" xlink:href="#p" />
<use x="480" y="240" xlink:href="#p" />
<use x="480" y="320" xlink:href="#p" />
<use x="480" y="360" xlink:href="#p" />
<use x="480" y="400" xlink:href="#p" />
<use x="480" y="500" xlink:href="#p" />
<use x="480" y="540" xlink:href="#p" />
<use x="480" y="560" xlink:href="#p" />
<use x="480" y="620" xlink:href="#p" />
<use x="480" y="660" xlink:href="#p" />
<use x="500" y="80" xlink:href="#p" />
<use x="500" y="100" xlink:href="#p" />
<use x="500" y="140" xlink:href="#p" />
<use x="500" y="220" xlink:href="#p" />
<use x="500" y="240" xlink:href="#p" />
<use x="500" y="280" xlink:href="#p" />
<use x="500" y="300" xlink:href="#p" />
<use x="500" y="340" xlink:href="#p" />
<use x="500" y="400" xlink:href="#p" />
<use x="500" y="440" xlink:href="#p" />
<use x="500" y="460" xlink:href="#p" />
<use x="500" y="480" xlink:href="#p" />
<use x="500" y="560" xlink:href="#p" />
<use x="500" y="580" xlink:href="#p" />
<use x="500" y="600" xlink:href="#p" />
<use x="500" y="640" xlink:href="#p" />
<use x="500" y="680" xlink:href="#p" />
<use x="520" y="100" xlink:href="#p" />
<use x="520" y="140" xlink:href="#p" />
<use x="520" y="160" xlink:href="#p" />
<use x="520" y="260" xlink:href="#p" />
<use x="520" y="360" xlink:href="#p" />
<use x="520" y="380" xlink:href="#p" />
<use x="520" y="440" xlink:href="#p" />
<use x="520" y="520" xlink:href="#p" />
<use x="520" y="540" xlink:href="#p" />
<use x="520" y="560" xlink:href="#p" />
<use x="520" y="580" xlink:href="#p" />
<use x="520" y="600" xlink:href="#p" />
<use x="520" y="640" xlink:href="#p" />
<use x="520" y="680" xlink:href="#p" />
<use x="540" y="240" xlink:href="#p" />
<use x="540" y="260" xlink:href="#p" />
<use x="540" y="300" xlink:href="#p" />
<use x="540" y="340" xlink:href="#p" />
<use x="540" y="360" xlink:href="#p" />
<use x="540" y="420" xlink:href="#p" />
<use x="540" y="480" xlink:href="#p" />
<use x="540" y="500" xlink:href="#p" />
<use x="540" y="520" xlink:href="#p" />
<use x="540" y="600" xlink:href="#p" />
<use x="540" y="640" xlink:href="#p" />
<use x="540" y="680" xlink:href="#p" />
<use x="560" y="40" xlink:href="#p" />
<use x="560" y="60" xlink:href="#p" />
<use x="560" y="80" xlink:href="#p" />
<use x="560" y="100" xlink:href="#p" />
<use x="560" y="120" xlink:href="#p" />
<use x="560" y="140" xlink:href="#p" />
<use x="560" y="160" xlink:href="#p" />
<use x="560" y="200" xlink:href="#p" />
<use x="560" y="260" xlink:href="#p" />
<use x="560" y="280" xlink:href="#p" />
<use x="560" y="360" xlink:href="#p" />
<use x="560" y="380" xlink:href="#p" />
<use x="560" y="420" xlink:href="#p" />
<use x="560" y="480" xlink:href="#p" />
<use x="560" y="520" xlink:href="#p" />
<use x="560" y="560" xlink:href="#p" />
<use x="560" y="600" xlink:href="#p" />
<use x="560" y="680" xlink:href="#p" />
<use x="580" y="40" xlink:href="#p" />
<use x="580" y="160" xlink:href="#p" />
<use x="580" y="220" xlink:href="#p" />
<use x="580" y="260" xlink:href="#p" />
<use x="580" y="280" xlink:href="#p" />
<use x="580" y="300" xlink:href="#p" />
<use x="580" y="340" xlink:href="#p" />
<use x="580" y="360" xlink:href="#p" />
<use x="580" y="380" xlink:href="#p" />
<use x="580" y="400" xlink:href="#p" />
<use x="580" y="420" xlink:href="#p" />
<use x="580" y="440" xlink:href="#p" />
<use x="580" y="520" xlink:href="#p" />
<use x="580" y="600" xlink:href="#p" />
<use x="580" y="620" xlink:href="#p" />
<use x="580" y="660" xlink:href="#p" />
<use x="580" y="680" xlink:href="#p" />
<use x="600" y="40" xlink:href="#p" />
<use x="600" y="80" xlink:href="#p" />
<use x="600" y="100" xlink:href="#p" />
<use x="600" y="120" xlink:href="#p" />
<use x="600" y="160" xlink:href="#p" />
<use x="600" y="220" xlink:href="#p" />
<use x="600" y="240" xlink:href="#p" />
<use x="600" y="340" xlink:href="#p" />
<use x="600" y="360" xlink:href="#p" />
<use x="600" y="380" xlink:href="#p" />
<use x="600" y="420" xlink:href="#p" />
<use x="600" y="460" xlink:href="#p" />
<use x="600" y="520" xlink:href="#p" />
<use x="600" y="540" xlink:href="#p" />
<use x="600" y="560" xlink:href="#p" />
<use x="600" y="580" xlink:href="#p" />
<use x="600" y="600" xlink:href="#p" />
<use x="600" y="640" xlink:href="#p" />
<use x="600" y="680" xlink:href="#p" />
<use x="620" y="40" xlink:href="#p" />
<use x="620" y="80" xlink:href="#p" />
<use x="620" y="100" xlink:href="#p" />
<use x="620" y="120" xlink:href="#p" />
<use x="620" y="160" xlink:href="#p" />
<use x="620" y="260" xlink:href="#p" />
<use x="620" y="360" xlink:href="#p" />
<use x="620" y="460" xlink:href="#p" />
<use x="620" y="580" xlink:href="#p" />
<use x="620" y="600" xlink:href="#p" />
<use x="620" y="640" xlink:href="#p" />
<use x="620" y="660" xlink:href="#p" />
<use x="640" y="40" xlink:href="#p" />
<use x="640" y="80" xlink:href="#p" />
<use x="640" y="100" xlink:href="#p" />
<use x="640" y="120" xlink:href="#p" />
<use x="640" y="160" xlink:href="#p" />
<use x="640" y="220" xlink:href="#p" />
<use x="640" y="260" xlink:href="#p" />
<use x="640" y="340" xlink:href="#p" />
<use x="640" y="420" xlink:href="#p" />
<use x="640" y="500" xlink:href="#p" />
<use x="640" y="540" xlink:href="#p" />
<use x="640" y="560" xlink:href="#p" />
<use x="640" y="580" xlink:href="#p" />
<use x="640" y="640" xlink:href="#p" />
<use x="640" y="660" xlink:href="#p" />
<use x="660" y="40" xlink:href="#p" />
<use x="660" y="160" xlink:href="#p" />
<use x="660" y="220" xlink:href="#p" />
<use x="660" y="240" xlink:href="#p" />
<use x="660" y="280" xlink:href="#p" />
<use x="660" y="360" xlink:href="#p" />
<use x="660" y="380" xlink:href="#p" />
<use x="660" y="420" xlink:href="#p" />
<use x="660" y="460" xlink:href="#p" />
<use x="660" y="480" xlink:href="#p" />
<use x="660" y="520" xlink:href="#p" />
<use x="660" y="540" xlink:href="#p" />
<use x="660" y="580" xlink:href="#p" />
<use x="660" y="660" xlink:href="#p" />
<use x="680" y="40" xlink:href="#p" />
<use x="680" y="60" xlink:href="#p" />
<use x="680" y="80" xlink:href="#p" />
<use x="680" y="100" xlink:href="#p" />
<use x="680" y="120" xlink:href="#p" />
<use x="680" y="140" xlink:href="#p" />
<use x="680" y="160" xlink:href="#p" />
<use x="680" y="200" xlink:href="#p" />
<use x="680" y="240" xlink:href="#p" />
<use x="680" y="280" xlink:href="#p" />
<use x="680" y="340" xlink:href="#p" />
<use x="680" y="360" xlink:href="#p" />
<use x="680" y="380" xlink:href="#p" />
<use x="680" y="400" xlink:href="#p" />
<use x="680" y="420" xlink:href="#p" />
<use x="680" y="480" xlink:href="#p" />
<use x="680" y="600" xlink:href="#p" />
<use x="680" y="640" xlink:href="#p" />
<use x="680" y="660" xlink:href="#p" />
</g>

</svg>