<?xml version="1.0" encoding="UTF-8" standalone="no"?>
<svg
   xmlns:dc="http://purl.org/dc/elements/1.1/"
   xmlns:cc="http://creativecommons.org/ns#"
   xmlns:rdf="http://www.w3.org/1999/02/22-rdf-syntax-ns#"
   xmlns:svg="http://www.w3.org/2000/svg"
   xmlns="http://www.w3.org/2000/svg"
   viewBox="0 0 1329.3333 468"
   height="468"
   width="1329.3333"
   xml:space="preserve"
   id="svg2"
   version="1.1"><metadata
     id="metadata8"><rdf:RDF><cc:Work
         rdf:about=""><dc:format>image/svg+xml</dc:format><dc:type
           rdf:resource="http://purl.org/dc/dcmitype/StillImage" /></cc:Work></rdf:RDF></metadata><defs
     id="defs6"><clipPath
       id="clipPath22"
       clipPathUnits="userSpaceOnUse"><path
         id="path20"
         d="M 0,351 H 997 V 0 H 0 Z" /></clipPath></defs><g
     transform="matrix(1.3333333,0,0,-1.3333333,0,468)"
     id="g10"><g
       transform="translate(173.5,275.3652)"
       id="g12"><path
         id="path14"
         style="fill:#dc0021;fill-opacity:1;fill-rule:nonzero;stroke:none"
         d="M 0,0 H -127.129 V -5.126 H -9.407 v -35.455 h 9.408 z m -39.605,-54.162 h -9.408 v -130.173 h 9.408 z" /></g><g
       id="g16"><g
         clip-path="url(#clipPath22)"
         id="g18"><g
           transform="translate(262.4741,275.3652)"
           id="g24"><path
             id="path26"
             style="fill:#dc0021;fill-opacity:1;fill-rule:nonzero;stroke:none"
             d="m 0,0 h -71.631 v -5.126 h 62.223 c 36.429,0 64.054,-17.358 64.054,-56.718 0,-16.447 -5.934,-31.462 -17.204,-41.273 -0.431,-0.618 -0.875,-1.227 -1.334,-1.821 18.216,8.442 27.946,27.157 27.946,48.222 C 64.053,-17.358 36.427,0 0,0 M -33.122,-50.289 V -87.76 h 4.646 c 8.395,0 17.352,0.844 23.853,4.722 0.25,0.576 0.478,1.177 0.679,1.803 -4.805,-1.091 -10.065,-1.398 -15.123,-1.398 h -4.645 v 31.525 c -3.063,0.5 -6.252,0.736 -9.41,0.819 m 60.511,-63.294 c -2.791,-2.101 -5.868,-3.907 -9.222,-5.371 l 50.146,-65.381 h 9.308 v 5.26 z m -60.511,-24.532 v -46.22 h 9.409 v 31.471 z" /></g><g
           transform="translate(404.9902,275.3652)"
           id="g28"><path
             id="path30"
             style="fill:#dc0021;fill-opacity:1;fill-rule:nonzero;stroke:none"
             d="M 0,0 H -47.919 V -5.127 H -9.41 V -184.335 H 0 Z" /></g><g
           transform="translate(509.6162,275.3652)"
           id="g32"><path
             id="path34"
             style="fill:#dc0021;fill-opacity:1;fill-rule:nonzero;stroke:none"
             d="m 0,0 h -73.345 v -5.126 h 63.938 c 39.605,0 66.985,-18.336 66.985,-60.63 0,-22.396 -6.214,-38.315 -17.947,-48.494 -0.456,-0.661 -0.933,-1.309 -1.418,-1.939 18.701,9.037 28.772,27.054 28.772,55.561 C 66.987,-18.335 39.606,0 0,0 m -34.335,-52.208 h -0.499 v -37.508 h 8.066 c 9.333,0 18.595,0 25.164,3.496 0.306,0.766 0.575,1.582 0.804,2.449 -5.084,-0.818 -10.809,-0.818 -16.561,-0.818 h -8.066 v 32.26 c -2.855,0.114 -5.845,0.121 -8.908,0.121 m 8.91,-84.589 h -9.408 v -47.538 h 9.408 z" /></g><g
           transform="translate(660.4473,280.2559)"
           id="g36"><path
             id="path38"
             style="fill:#dc0021;fill-opacity:1;fill-rule:nonzero;stroke:none"
             d="m 0,0 c -14.609,0 -27.611,-3.829 -37.991,-10.775 8.45,3.678 18.101,5.647 28.58,5.647 18.58,0 41.317,-5.867 57.7,-15.157 L 33.726,-48.663 c 1.702,-1.133 3.338,-2.356 4.898,-3.656 l 19.069,37.162 C 41.314,-5.867 18.579,0 0,0 m -13.598,-53.925 c -3.029,-0.424 -6.173,-1.393 -8.925,-2.905 -0.374,-1.176 -0.579,-2.44 -0.579,-3.795 0,-10.757 12.958,-14.912 21.272,-17.601 l 12.226,-3.667 c 25.667,-7.579 45.473,-20.537 45.473,-50.362 0,-18.073 -4.275,-36.621 -18.444,-49.09 -0.705,-1.004 -1.449,-1.986 -2.237,-2.944 3.898,2.129 7.598,4.631 11.021,7.533 14.67,12.467 19.068,31.293 19.068,49.628 0,29.826 -19.802,42.783 -45.474,50.364 l -12.224,3.667 c -8.313,2.688 -21.27,6.845 -21.27,17.601 -10e-4,0.537 0.03,1.061 0.093,1.571 m -36.768,-80.539 -4.779,-8.99 c 10.956,-8.668 23.596,-15.207 37.912,-15.207 5.061,0 10.269,1.138 14.467,3.571 0.26,0.654 0.48,1.338 0.658,2.049 -1.886,-0.331 -3.813,-0.492 -5.717,-0.492 -16.38,0 -30.562,8.557 -42.541,19.069" /></g><g
           transform="translate(968.4023,275.3672)"
           id="g40"><path
             id="path42"
             style="fill:#dc0021;fill-opacity:1;fill-rule:nonzero;stroke:none"
             d="M 0,0 H -127.128 V -5.126 H -9.408 V -40.581 H 0 Z m -39.605,-54.162 h -9.409 v -130.172 h 9.409 z" /></g><g
           transform="translate(36.9629,261.7861)"
           id="g44"><path
             id="path46"
             style="fill:#0038a1;fill-opacity:1;fill-rule:nonzero;stroke:none"
             d="m 0,0 h -7.568 v -40.583 h 39.605 v -143.755 h 47.918 v 8.454 H 39.605 V -32.131 H 0 Z M 119.561,-32.131 H 96.932 v -8.452 h 22.629 z" /></g><path
           id="path48"
           style="fill:#cb35ae;fill-opacity:1;fill-rule:nonzero;stroke:none"
           d="m 124.487,229.655 h 9.408 v -8.452 h -9.408 z" /><g
           transform="translate(181.4351,261.7861)"
           id="g50"><path
             id="path52"
             style="fill:#0038a1;fill-opacity:1;fill-rule:nonzero;stroke:none"
             d="M 0,0 H -7.567 V -184.338 H 40.35 v 8.454 H 0 Z m 57.326,-28.323 v -9.206 c 11.321,-1.85 20.918,-7.321 20.918,-22.125 0,-3.045 -0.406,-5.697 -1.15,-8.002 0.918,0.209 1.819,0.446 2.7,0.715 3.701,3.445 6.019,8.466 6.019,15.74 -0.001,18.032 -14.239,22.218 -28.487,22.878 m 59.82,-63.037 c -0.714,-0.332 -1.443,-0.646 -2.185,-0.948 -2.662,-1.886 -5.571,-3.514 -8.721,-4.843 l 2.188,-2.853 c 3.313,2.493 6.222,5.4 8.718,8.644 m -59.82,-27.608 v -20.317 l 28.741,-45.054 h 59.653 l -6.483,8.453 H 93.636 Z" /></g><g
           transform="translate(233.9971,233.5659)"
           id="g54"><path
             id="path56"
             style="fill:#cb35ae;fill-opacity:1;fill-rule:nonzero;stroke:none"
             d="m 0,0 h -4.646 v -8.49 c 3.158,-0.083 6.348,-0.319 9.409,-0.819 v 9.206 C 3.169,-0.029 1.575,0 0,0 m 27.232,-38.72 c -0.881,-0.27 -1.782,-0.506 -2.7,-0.715 -0.201,-0.626 -0.429,-1.227 -0.679,-1.803 1.219,0.727 2.352,1.562 3.379,2.518 m 38.686,-22.599 c -1.12,-0.975 -2.292,-1.899 -3.519,-2.768 0.741,0.298 1.471,0.614 2.185,0.946 0.458,0.597 0.904,1.204 1.334,1.822 m -12.24,-7.612 c -3.36,-1.418 -6.994,-2.496 -10.896,-3.19 l 3.861,-5.032 c 3.354,1.464 6.431,3.271 9.222,5.371 z m -57.834,-7.834 h -0.489 v -19.55 l 9.409,-14.75 v 20.317 z" /></g><g
           transform="translate(347.6621,261.7861)"
           id="g58"><path
             id="path60"
             style="fill:#0038a1;fill-opacity:1;fill-rule:nonzero;stroke:none"
             d="m 0,0 h -7.566 v -165.496 l 4.034,-5.26 h -4.034 v -13.583 h 47.917 v 8.453 H 0 Z" /></g><g
           transform="translate(340.0957,96.29)"
           id="g62"><path
             id="path64"
             style="fill:#ff00ff;fill-opacity:1;fill-rule:nonzero;stroke:none"
             d="M 0,0 V -5.26 H 4.034 Z" /></g><g
           transform="translate(426.8643,261.7861)"
           id="g66"><path
             id="path68"
             style="fill:#0038a1;fill-opacity:1;fill-rule:nonzero;stroke:none"
             d="m 0,0 h -7.567 v -184.338 h 47.918 v 8.454 H 0 Z m 57.327,-30.176 v -8.575 c 14.479,-0.583 25.563,-3.949 25.563,-23.348 0,-3.108 -0.327,-5.786 -0.937,-8.094 1.175,0.189 2.313,0.421 3.411,0.708 3.186,3.332 5.092,8.333 5.092,15.84 0,22.666 -15.131,23.444 -33.129,23.469 m 63.638,-72.436 c -0.849,-0.41 -1.713,-0.801 -2.597,-1.174 -10.784,-7.462 -25.356,-10.981 -43.313,-10.981 H 57.326 v -8.451 h 10.162 c 24.428,0 42.595,6.51 53.477,20.606" /></g><g
           transform="translate(482.8506,231.6099)"
           id="g70"><path
             id="path72"
             style="fill:#cb35ae;fill-opacity:1;fill-rule:nonzero;stroke:none"
             d="m 0,0 h -8.066 v -8.454 h 0.499 c 3.062,0 6.052,-0.007 8.909,-0.122 v 8.575 C 0.895,0 0.448,0 0,0 m 29.378,-39.309 c -1.099,-0.287 -2.236,-0.519 -3.411,-0.708 -0.23,-0.867 -0.498,-1.683 -0.805,-2.449 1.572,0.836 2.989,1.873 4.216,3.157 m 37.018,-31.187 c -1.271,-1.104 -2.611,-2.144 -4.014,-3.113 0.884,0.373 1.748,0.765 2.597,1.174 0.487,0.63 0.961,1.278 1.417,1.939 M 1.341,-84.59 h -9.408 v -8.451 h 9.408 z" /></g><g
           transform="translate(598.8613,250.7261)"
           id="g74"><path
             id="path76"
             style="fill:#0038a1;fill-opacity:1;fill-rule:nonzero;stroke:none"
             d="m 0,0 c -11.894,-10.821 -18.956,-26.644 -18.956,-45.904 0,-35.693 19.801,-43.515 49.875,-52.074 10.267,-2.934 29.094,-7.578 29.094,-21.025 0,-1.616 -0.189,-3.118 -0.534,-4.508 1.023,0.179 2.037,0.41 3.026,0.691 3.099,2.957 5.071,7.009 5.071,12.269 0,13.447 -18.825,18.093 -29.093,21.025 -30.069,8.559 -49.874,16.381 -49.874,52.075 C -11.39,-22.726 -7.26,-10.009 0,0 m 59.02,-15.692 c -2.247,0 -4.685,-0.334 -7.067,-1.003 -2.11,-2.051 -3.588,-4.618 -3.965,-7.699 1.184,0.166 2.349,0.249 3.467,0.249 11.733,0 22.979,-4.888 31.779,-12.225 l 5.272,10.272 c -8.421,6.313 -18.75,10.406 -29.486,10.406 m -64.775,-102.823 -20.536,-38.627 c 18.826,-13.201 41.562,-21.024 64.786,-21.024 18.581,0 37.896,5.131 52.319,17.358 2.212,1.88 4.189,3.902 5.955,6.048 -1.598,-0.871 -3.229,-1.681 -4.887,-2.429 -13.456,-8.76 -29.905,-12.523 -45.82,-12.523 -23.225,0 -45.961,7.821 -64.786,21.023 l 15.078,28.361 c -0.709,0.598 -1.413,1.202 -2.109,1.813" /></g><g
           transform="translate(650.8125,234.0303)"
           id="g78"><path
             id="path80"
             style="fill:#cb35ae;fill-opacity:1;fill-rule:nonzero;stroke:none"
             d="m 0,0 c -5.727,-1.606 -11.147,-5.141 -12.89,-10.604 2.752,1.512 5.897,2.481 8.926,2.905 C -3.586,-4.618 -2.11,-2.051 0,0 m 10.553,-106.124 c -0.99,-0.281 -2.003,-0.512 -3.027,-0.691 -0.178,-0.711 -0.397,-1.395 -0.657,-2.049 1.345,0.779 2.585,1.689 3.684,2.74 m 36.503,-28.996 c -0.206,-0.182 -0.415,-0.362 -0.625,-0.541 -2.071,-1.755 -4.243,-3.364 -6.499,-4.832 1.658,0.748 3.289,1.558 4.886,2.429 0.788,0.958 1.533,1.94 2.238,2.944" /></g><g
           transform="translate(831.8652,261.7881)"
           id="g82"><path
             id="path84"
             style="fill:#0038a1;fill-opacity:1;fill-rule:nonzero;stroke:none"
             d="m 0,0 h -7.568 v -40.583 h 39.604 v -143.755 h 47.919 v 8.454 H 39.604 V -32.131 H 10e-4 L 0.001,0 Z m 119.562,-32.131 h -22.63 v -8.452 h 22.63 z" /></g><path
           id="path86"
           style="fill:#cb35ae;fill-opacity:1;fill-rule:nonzero;stroke:none"
           d="m 919.388,229.657 h 9.409 v -8.452 h -9.409 z" /><path
           id="path88"
           style="fill:#4ed01a;fill-opacity:1;fill-rule:nonzero;stroke:none"
           d="m 46.371,270.238 h -9.408 v -8.453 h 9.408 z m 117.721,-35.454 h -7.568 v -5.129 h 7.568 z M 124.487,91.03 h -7.568 V 85.9 h 7.568 z" /><g
           transform="translate(164.0918,270.2378)"
           id="g90"><path
             id="path92"
             style="fill:#ffda00;fill-opacity:1;fill-rule:nonzero;stroke:none"
             d="M 0,0 H -117.721 V -8.453 H -7.569 v -27.002 h 7.568 l 0,35.455 z m -39.605,-49.035 h -7.568 v -130.173 h 7.568 z" /></g><g
           transform="translate(46.3711,261.7861)"
           id="g94"><path
             id="path96"
             style="fill:#16b9d4;fill-opacity:1;fill-rule:nonzero;stroke:none"
             d="m 0,0 h -9.408 v -32.131 h 39.604 v -143.753 h 40.351 v 5.129 H 39.606 V -27.002 L 0,-27.002 Z M 110.153,-27.002 H 87.524 v -5.129 h 22.629 z" /></g><g
           transform="translate(156.5239,261.7861)"
           id="g98"><path
             id="path100"
             style="fill:#ffffff;fill-opacity:1;fill-rule:nonzero;stroke:none"
             d="m 0,0 h -110.153 v -27.002 h 39.606 v -143.754 h 30.941 v 130.173 h 7.569 v 8.452 h 9.408 v 5.129 H 0 Z" /></g><path
           id="path102"
           style="fill:#4ed01a;fill-opacity:1;fill-rule:nonzero;stroke:none"
           d="m 190.843,270.238 h -9.408 v -8.453 h 9.408 z M 330.788,91.03 h -14.051 l 3.935,-5.13 h 14.052 z m -101.436,0 h -7.567 V 85.9 h 7.567 z" /><g
           transform="translate(253.0649,270.2378)"
           id="g104"><path
             id="path106"
             style="fill:#fcd900;fill-opacity:1;fill-rule:nonzero;stroke:none"
             d="m 0,0 h -62.223 v -8.453 h 54.656 c 36.427,0 64.054,-17.359 64.054,-56.718 0,-12.255 -3.295,-23.716 -9.638,-32.82 11.271,9.811 17.204,24.826 17.204,41.273 C 64.053,-17.358 36.428,0 0,0 m -26.636,-45.125 h -4.646 v -45.962 h 4.646 c 12.625,0 26.522,1.909 31.42,13.176 -6.5,-3.878 -15.458,-4.722 -23.853,-4.722 h -4.646 v 37.471 c -0.977,0.026 -1.953,0.037 -2.921,0.037 m 54.213,-68.702 c -3.509,-1.532 -7.32,-2.688 -11.429,-3.419 l 47.523,-61.962 h 14.051 z m -58.369,-8.063 h -0.489 v -57.316 h 7.567 v 46.22 z" /></g><g
           transform="translate(190.8428,261.7861)"
           id="g108"><path
             id="path110"
             style="fill:#16b9d4;fill-opacity:1;fill-rule:nonzero;stroke:none"
             d="m 0,0 h -9.408 v -175.884 h 40.35 v 5.129 H 0.001 L 0.001,0 Z m 52.563,-23.092 h -4.645 v -5.231 c 14.249,-0.66 28.486,-4.846 28.486,-22.877 0,-7.274 -2.317,-12.295 -6.019,-15.74 8.768,2.682 15.426,8.538 15.426,20.867 10e-4,20.049 -17.602,22.981 -33.248,22.981 m 52.99,-69.216 c -3.167,-1.277 -6.571,-2.259 -10.208,-2.904 l 1.487,-1.938 c 3.149,1.328 6.059,2.956 8.721,4.842 m -57.147,-7.548 h -0.488 v -19.112 l 36.31,-56.916 h 45.601 l -3.934,5.13 H 93.636 Z" /></g><g
           transform="translate(245.499,261.7861)"
           id="g112"><path
             id="path114"
             style="fill:#ffffff;fill-opacity:1;fill-rule:nonzero;stroke:none"
             d="m 0,0 h -54.656 v -170.756 h 30.941 v 57.315 h 0.489 l 7.079,-11.096 v 19.551 h 0.489 l 8.919,-13.982 v 19.11 h 0.488 l 45.229,-70.897 h 32.258 l -47.523,61.962 c 4.107,0.73 7.92,1.887 11.429,3.419 l -3.861,5.034 c 3.901,0.691 7.535,1.771 10.896,3.188 l -1.487,1.938 c 3.637,0.646 7.041,1.627 10.208,2.906 1.227,0.87 2.398,1.791 3.52,2.768 6.342,9.104 9.637,20.565 9.637,32.82 C 64.053,-17.36 36.427,0 0,0 m -6.738,-28.323 v 5.231 h 4.645 c 15.646,0 33.249,-2.932 33.249,-22.981 0,-12.329 -6.658,-18.186 -15.426,-20.867 -1.026,-0.956 -2.16,-1.791 -3.379,-2.518 -4.897,-11.267 -18.796,-13.176 -31.42,-13.176 h -4.646 v 45.962 h 4.646 c 0.968,0 1.944,-0.011 2.923,-0.037 v 8.49 h 4.646 c 1.573,-10e-4 3.167,-0.03 4.762,-0.104" /></g><path
           id="path116"
           style="fill:#4ed01a;fill-opacity:1;fill-rule:nonzero;stroke:none"
           d="m 357.071,270.238 h -9.408 v -8.453 h 9.408 z M 395.58,91.03 h -7.567 V 85.9 h 7.567 z" /><g
           transform="translate(395.5801,270.2378)"
           id="g118"><path
             id="path120"
             style="fill:#fcd900;fill-opacity:1;fill-rule:nonzero;stroke:none"
             d="M 0,0 H -38.509 V -8.452 H -7.567 V -179.208 H 0 Z" /></g><g
           transform="translate(357.0713,261.7861)"
           id="g122"><path
             id="path124"
             style="fill:#16b9d4;fill-opacity:1;fill-rule:nonzero;stroke:none"
             d="m 0,0 h -9.409 v -175.886 h 40.35 v 5.13 H 0 Z" /></g><path
           id="path126"
           style="fill:#ffffff;fill-opacity:1;fill-rule:nonzero;stroke:none"
           d="m 357.071,261.786 h 30.941 V 91.031 h -30.941 z" /><path
           id="path128"
           style="fill:#4ed01a;fill-opacity:1;fill-rule:nonzero;stroke:none"
           d="m 436.272,270.238 h -9.408 v -8.453 h 9.408 z M 474.782,91.03 h -7.568 V 85.9 h 7.568 z" /><g
           transform="translate(500.209,270.2378)"
           id="g130"><path
             id="path132"
             style="fill:#fcd900;fill-opacity:1;fill-rule:nonzero;stroke:none"
             d="m 0,0 h -63.938 v -8.453 h 56.367 c 39.606,0 66.988,-18.337 66.988,-60.631 0,-16.95 -3.562,-30.19 -10.381,-40.041 11.734,10.179 17.947,26.098 17.947,48.494 C 66.986,-18.336 39.606,0 0,0 m -25.427,-47.081 h -7.568 v -45.962 h 8.066 c 14.06,0 27.957,-10e-4 32.732,11.949 -6.569,-3.496 -15.83,-3.496 -25.163,-3.496 h -8.067 z m 0,-84.588 h -7.568 v -47.538 h 7.568 z" /></g><g
           transform="translate(436.2725,261.7861)"
           id="g134"><path
             id="path136"
             style="fill:#16b9d4;fill-opacity:1;fill-rule:nonzero;stroke:none"
             d="m 0,0 h -9.408 v -175.884 h 40.35 v 5.129 H 0.001 L 0.001,0 Z m 55.984,-25.048 h -8.065 v -5.128 c 17.999,-0.024 33.129,-0.803 33.129,-23.469 0,-7.507 -1.906,-12.508 -5.092,-15.84 8.5,2.215 14.503,7.648 14.503,20.968 0,23.226 -15.893,23.469 -34.475,23.469 m 52.977,-78.738 c -9.373,-3.958 -20.73,-5.852 -33.906,-5.852 H 47.919 v -5.129 h 17.728 c 17.956,0 32.529,3.52 43.314,10.981" /></g><g
           transform="translate(492.6396,261.7861)"
           id="g138"><path
             id="path140"
             style="fill:#ffffff;fill-opacity:1;fill-rule:nonzero;stroke:none"
             d="m 0,0 h -56.366 v -170.756 h 30.941 v 47.538 h 7.569 v 8.451 h 9.408 v 5.129 h 27.135 c 13.179,0 24.534,1.895 33.907,5.852 1.401,0.97 2.741,2.009 4.014,3.113 6.82,9.85 10.381,23.09 10.381,40.041 C 66.988,-18.337 39.606,0 0,0 m -8.448,-30.176 v 5.128 h 8.065 c 18.582,0 34.476,-0.243 34.476,-23.469 0,-13.32 -6.002,-18.752 -14.502,-20.968 -1.229,-1.284 -2.646,-2.321 -4.217,-3.157 C 10.6,-84.593 -3.299,-84.591 -17.357,-84.591 h -8.067 v 45.962 h 7.569 v 8.454 h 8.066 c 0.448,-10e-4 0.894,-10e-4 1.341,-10e-4" /></g><g
           transform="translate(622.4551,269.481)"
           id="g142"><path
             id="path144"
             style="fill:#4ed01a;fill-opacity:1;fill-rule:nonzero;stroke:none"
             d="m 0,0 c -9.598,-4.177 -17.646,-10.558 -23.595,-18.755 3.56,3.237 7.554,6.03 11.916,8.33 C -8.305,-6.43 -4.386,-2.936 0,0 m 69.275,-36.352 -4.363,-8.502 c 0.783,-0.587 1.55,-1.194 2.3,-1.818 l 4.508,8.784 c -0.803,0.532 -1.616,1.045 -2.445,1.536 m -91.055,-92.463 -5.458,-10.266 c 1.531,-1.284 3.098,-2.532 4.697,-3.731 l 5.389,10.133 c -1.577,1.248 -3.121,2.54 -4.628,3.864" /></g><g
           transform="translate(651.0352,275.1279)"
           id="g146"><path
             id="path148"
             style="fill:#fcd900;fill-opacity:1;fill-rule:nonzero;stroke:none"
             d="m 0,0 c -10.479,0 -20.13,-1.969 -28.58,-5.647 -4.387,-2.936 -8.307,-6.43 -11.679,-10.426 9.376,4.942 20.47,7.62 32.69,7.62 18.582,0 41.317,-5.867 57.698,-15.158 l -9.438,-18.388 c 0.829,-0.491 1.644,-1.003 2.444,-1.536 l 14.562,28.378 C 41.318,-5.867 18.58,0 0,0 m -13.111,-51.702 c -4.627,-2.544 -8.145,-6.626 -8.145,-12.248 0,-10.756 12.956,-14.913 21.269,-17.601 l 12.225,-3.668 c 25.668,-7.58 45.474,-20.537 45.474,-50.364 0,-14.336 -2.69,-28.973 -10.877,-40.635 14.169,12.469 18.444,31.017 18.444,49.09 0,29.826 -19.805,42.783 -45.472,50.362 L 7.58,-73.099 c -8.313,2.688 -21.271,6.844 -21.271,17.601 0.002,1.355 0.206,2.62 0.58,3.796 m -32.621,-86.624 -5.389,-10.133 c 10.443,-7.817 22.353,-13.526 35.729,-13.526 9.128,0 18.738,3.702 22.037,12.023 -4.199,-2.434 -9.407,-3.571 -14.468,-3.571 -14.316,0 -26.954,6.539 -37.909,15.207" /></g><g
           transform="translate(610.7773,259.0552)"
           id="g150"><path
             id="path152"
             style="fill:#16b9d4;fill-opacity:1;fill-rule:nonzero;stroke:none"
             d="m 0,0 c -4.362,-2.3 -8.356,-5.092 -11.916,-8.33 -7.261,-10.008 -11.391,-22.725 -11.391,-37.451 0,-35.694 19.805,-43.516 49.874,-52.075 10.268,-2.932 29.092,-7.578 29.092,-21.025 0,-5.26 -1.973,-9.313 -5.07,-12.269 7.946,2.258 14.48,7.825 14.48,17.396 0,13.447 -18.825,18.093 -29.092,21.026 -30.073,8.557 -49.874,16.38 -49.874,52.074 C -13.896,-24.308 -8.809,-10.438 0,0 m 56.512,-18.894 c -5.553,0 -12.273,-2.043 -16.477,-6.131 2.384,0.669 4.82,1.003 7.067,1.003 10.736,0 21.064,-4.092 29.485,-10.407 l 4.362,8.502 c -7.348,4.36 -15.758,7.033 -24.437,7.033 m -72.073,-109.763 -15.078,-28.361 c 18.825,-13.202 41.563,-21.024 64.785,-21.024 15.916,0 32.365,3.764 45.821,12.524 -11.356,-5.124 -24.047,-7.397 -36.412,-7.397 -23.224,0 -45.963,7.823 -64.786,21.024 l 10.368,19.504 c -1.6,1.199 -3.166,2.447 -4.698,3.73" /></g><g
           transform="translate(643.4678,266.6748)"
           id="g154"><path
             id="path156"
             style="fill:#ffffff;fill-opacity:1;fill-rule:nonzero;stroke:none"
             d="m 0,0 c -12.222,0 -23.313,-2.678 -32.689,-7.62 -8.81,-10.438 -13.897,-24.309 -13.897,-40.652 0,-35.694 19.802,-43.517 49.874,-52.074 10.269,-2.932 29.093,-7.579 29.093,-21.026 0,-9.57 -6.533,-15.139 -14.481,-17.396 -1.1,-1.049 -2.339,-1.961 -3.685,-2.741 -3.299,-8.321 -12.907,-12.023 -22.035,-12.023 -13.378,0 -25.287,5.707 -35.73,13.526 l -10.369,-19.504 c 18.823,-13.201 41.564,-21.022 64.787,-21.022 12.364,0 25.056,2.271 36.411,7.396 2.257,1.468 4.429,3.077 6.499,4.832 0.21,0.179 0.419,0.358 0.625,0.541 8.188,11.662 10.878,26.299 10.878,40.635 0,29.827 -19.806,42.784 -45.474,50.364 l -12.226,3.668 c -8.312,2.688 -21.269,6.844 -21.269,17.601 0,5.622 3.518,9.704 8.145,12.248 1.741,5.463 7.163,8.999 12.891,10.604 4.203,4.087 10.923,6.131 16.477,6.131 8.68,0 17.088,-2.673 24.44,-7.032 l 9.437,18.388 C 41.317,-5.867 18.582,0 0,0" /></g><path
           id="path158"
           style="fill:#4ed01a;fill-opacity:1;fill-rule:nonzero;stroke:none"
           d="m 841.274,270.24 h -9.408 v -8.453 h 9.408 z m 117.719,-35.454 h -7.566 v -5.129 h 7.566 z M 919.388,91.032 h -7.565 v -5.13 h 7.565 z" /><g
           transform="translate(958.9932,270.2402)"
           id="g160"><path
             id="path162"
             style="fill:#fcd900;fill-opacity:1;fill-rule:nonzero;stroke:none"
             d="M 0,0 H -117.72 V -8.453 H -7.568 v -27.002 h 7.566 z m -39.605,-49.035 h -7.565 v -130.172 h 7.565 z" /></g><g
           transform="translate(841.2744,261.7881)"
           id="g164"><path
             id="path166"
             style="fill:#16b9d4;fill-opacity:1;fill-rule:nonzero;stroke:none"
             d="m 0,0 h -9.408 v -32.131 h 39.603 v -143.753 h 40.352 v 5.129 H 39.606 V -27.002 H 0.002 Z m 110.152,-27.002 h -22.63 v -5.129 h 22.63 z" /></g><g
           transform="translate(951.4268,261.7881)"
           id="g168"><path
             id="path170"
             style="fill:#ffffff;fill-opacity:1;fill-rule:nonzero;stroke:none"
             d="m 0,0 h -110.152 v -27.002 h 39.605 v -143.754 h 30.942 v 130.173 h 7.566 v 8.452 h 9.409 v 5.129 H 0 Z" /></g><g
           transform="translate(786.8125,330.3872)"
           id="g172"><path
             id="path174"
             style="fill:#0038a1;fill-opacity:1;fill-rule:nonzero;stroke:none"
             d="m 0,0 c 3.259,-92.049 -107.16,-149.604 -41.85,-322.053 0.965,6.863 2.271,13.898 3.845,21.08 C -88.447,-151.527 -3.434,-91.491 7.594,-12.765 5.388,-8.389 2.87,-4.137 0,0" /></g><g
           transform="translate(795.4902,337.98)"
           id="g176"><path
             id="path178"
             style="fill:#4ed01a;fill-opacity:1;fill-rule:nonzero;stroke:none"
             d="m 0,0 c 0.247,-6.961 -0.157,-13.726 -1.085,-20.357 1.805,-3.585 3.4,-7.261 4.79,-10.995 1.604,6.395 2.784,12.875 3.422,19.499 C 5.037,-7.8 2.668,-3.847 0,0 m -42.963,-293.136 c -1.356,-5.207 -2.605,-10.358 -3.721,-15.43 1.493,-4.42 3.101,-8.909 4.833,-13.487 0.757,5.378 1.722,10.864 2.862,16.441 -1.431,4.23 -2.754,8.387 -3.974,12.476" /></g><g
           transform="translate(794.4053,317.623)"
           id="g180"><path
             id="path182"
             style="fill:#16b9d4;fill-opacity:1;fill-rule:nonzero;stroke:none"
             d="m 0,0 c -11.025,-78.727 -96.041,-138.762 -45.599,-288.208 1.114,5.071 2.363,10.224 3.721,15.43 C -81.179,-141.013 -12.787,-81.022 4.79,-10.994 3.401,-7.261 1.805,-3.586 0,0" /></g><g
           transform="translate(803.084,341.2339)"
           id="g184"><path
             id="path186"
             style="fill:#dc0021;fill-opacity:1;fill-rule:nonzero;stroke:none"
             d="m 0,0 c 0.182,-5.135 0.009,-10.161 -0.468,-15.107 41.525,-80.519 -26.984,-200.195 -46.114,-293.759 1.463,-4.32 3.037,-8.714 4.731,-13.186 C -27.781,-221.917 58.834,-84.813 0,0" /></g><g
           transform="translate(802.6162,326.127)"
           id="g188"><path
             id="path190"
             style="fill:#fcd900;fill-opacity:1;fill-rule:nonzero;stroke:none"
             d="m 0,0 c -0.638,-6.624 -1.816,-13.104 -3.422,-19.499 27.59,-74.182 -24.384,-176.347 -46.668,-261.784 1.221,-4.089 2.543,-8.246 3.976,-12.476 C -26.984,-200.195 41.526,-80.519 0,0" /></g><g
           transform="translate(799.1953,306.6279)"
           id="g192"><path
             id="path194"
             style="fill:#fdffff;fill-opacity:1;fill-rule:nonzero;stroke:none"
             d="M 0,0 C -17.577,-70.028 -85.969,-130.02 -46.668,-261.784 -24.383,-176.347 27.589,-74.182 0,0" /></g></g></g></g></svg>