<?xml version="1.0" encoding="utf-8"?>
<!-- Generator: Adobe Illustrator 26.3.1, SVG Export Plug-In . SVG Version: 6.00 Build 0)  -->
<svg version="1.1" id="Layer_2_00000076583605964862196390000018382734290155310483_"
	 xmlns="http://www.w3.org/2000/svg" xmlns:xlink="http://www.w3.org/1999/xlink" x="0px" y="0px" viewBox="0 0 460.9 460.9"
	 style="enable-background:new 0 0 460.9 460.9;" xml:space="preserve">
<style type="text/css">
	.st0{fill:#FFFFFF;}
	.st1{fill:#6ACCF4;}
	.st2{fill:#5CB447;stroke:#FFFFFF;stroke-width:0.25;stroke-miterlimit:10;}
	.st3{fill:#ED1C24;stroke:#FFFFFF;stroke-width:0.25;stroke-miterlimit:10;}
	.st4{fill:#FAD911;stroke:#FFFFFF;stroke-width:0.25;stroke-miterlimit:10;}
	.st5{fill:#010101;}
	.st6{fill:#161719;}
	.st7{fill:#010201;}
	.st8{fill:#020202;}
	.st9{fill:#020303;}
	.st10{fill:#030303;}
	.st11{fill:#040404;}
	.st12{fill:#0D0E0E;}
</style>
<rect class="st0" width="460.9" height="460.9"/>
<g id="Layer_1-2">
	<g id="Csxsgh.tif">
		<g>
			<path class="st1" d="M315,403.1c0-5.5-0.2-11,0.1-16.5c0.1-3-0.4-4.8-3.9-4c-0.4,0.1-0.9,0-1.3,0c-3.7-0.2-6.4-2.6-6.1-5.8
				c0.4-3.5,2.5-5.4,6.1-5.4c8,0,15.9-0.2,23.8,0.1c3.4,0.1,4.4-1,3.8-4.1c0-0.3,0-0.6,0-0.9c0.7-4.5,0-7.3-5.7-6.6
				c-3.2,0.4-5.5-2.1-5.4-5.4c0-3.5,2.3-5.8,5.8-5.6c3.7,0.3,5.3-0.7,6.4-4.5c1.4-4.7,5.5-6.8,10.4-6.9c3.6-0.1,8.4,1.6,10.4-0.6
				c2.2-2.4,0.6-7.1,0.7-10.8c0.1-6.5-0.1-13,0.1-19.5c0.1-2.2-0.6-3.2-2.9-2.9c-1,0.1-2,0.1-3,0c-3.3-0.4-5.4-2.3-5.3-5.7
				c0.1-3.3,2.2-5.2,5.5-5.5c1.1-0.1,2.3-0.1,3.5,0c1.6,0.1,2.5-0.4,2.2-2.1c-0.1-0.6,0-1.2,0-1.7c0.1-4.7,2-7.3,5.5-7.4
				c3.6-0.1,5.9,2.7,5.7,7.5c-0.1,2.9,0.5,3.9,3.7,3.9c8.2-0.2,8.1,0,7.7-8.9c-0.1-1.8-0.3-2.7-2.4-2.5c-1.3,0.1-2.6,0.1-3.9,0
				c-2.6-0.3-4.2-1.9-4.9-4.3c-0.7-2.5,0.4-4.5,2.5-5.9c7.3-4.8,19.3,1.1,19.8,9.8c0.2,2.9,0.2,5.8,0,8.7c-0.1,2.3,0.3,3.2,3,3.2
				c8.3,0,8.3,0.2,8.3-8.2c0-9,1.4-11.2,9.9-14.3c1.3-0.5,1.4-1.1,1.4-2.1c0-2.7,0-5.5,0-8.2c0-6.4,2.8-10.4,9-12
				c2.1-0.5,2.5-1.2,2.3-3.1c-0.1-1-0.1-2,0-3c0.4-3.3,2.3-5.4,5.7-5.4c3.3,0,5.4,2.2,5.5,5.5c0.2,5.9,0.3,11.9,0,17.8
				c-0.3,4.9-2.9,8.4-7.7,9.8c-2.2,0.6-3.6,1.3-4.1,3.9c-0.8,4.2-3.8,6.8-7.9,7.6c-2.4,0.5-2.9,1.5-2.8,3.7c0.2,2.4,0.1,4.9,0,7.4
				c-0.1,7.3-4.6,11.9-11.9,11.9c-10,0.1-19.9,0.1-29.9,0c-2.6,0-3.4,0.6-3.4,3.3c0.2,9.2,0.1,18.5,0,27.7c0,2.3,0.6,3,2.9,2.9
				c2.7-0.2,5.5-0.1,8.2,0c6.7,0.1,11.3,4.7,11.5,11.5c0.1,2.7,0.2,5.5,0,8.2c-0.2,2.3,0.6,3,2.9,2.9c5.6-0.2,11.3-0.2,16.9,0
				c2.3,0.1,3.2-0.6,2.8-2.9c-0.1-1-0.1-2,0-3c0.4-3.3,2.3-5.4,5.7-5.3c3.1,0,5.3,2,5.4,5.1c0.2,6.3,0.4,12.7-0.1,19.1
				c-0.4,4.4-3.1,7.9-7.7,8.9c-3.1,0.7-3.5,2.2-3.5,5c0.2,7,0.1,7,7.3,7c2,0,4.1-0.2,6.1,0.2c5.1,0.9,9,5.3,9.1,10.6
				c0.2,9.4,0.1,18.8,0,28.2c0,3.7-2.6,6.4-5.8,6.1c-3.5-0.4-5.4-2.5-5.4-6.1c-0.1-4.6-0.1-9.2,0-13.9c0-1.7-0.3-2.4-2.2-2.8
				c-4.8-0.9-7.9-4.1-8.9-8.9c-0.4-1.9-1.2-2-2.7-2.4c-4.4-1.1-7.5-3.9-8.4-8.4c-0.5-2.5-1.6-3-3.7-2.7c-0.7,0.1-1.4,0.1-2.2,0
				c-3.4-0.3-5.9-0.4-6.9,4.4c-1,4.7-5.4,6.8-10.3,6.9c-6.5,0.1-13,0.1-19.5,0c-2.3-0.1-3.2,0.6-2.8,2.9c0.1,0.9,0.1,1.7,0,2.6
				c-0.3,3.4-0.3,5.9,4.3,6.9c5.2,1.1,7.9,7.4,6.8,12.5c-1.3,5.6-6.4,9.4-12.1,8.9c-5.5-0.5-10-4.9-10.2-10.5
				c-0.2-6.6-0.2-13.3,0-19.9c0.1-2.5-0.4-3.6-3.2-3.4c-5.3,0.3-10.7,0.2-16,0c-2.5-0.1-3.6,0.4-3.4,3.2c0.3,4.3,0.1,8.7,0.1,13
				c-0.1,3.8-2.5,6.4-5.6,6.3c-3.2,0-5.6-2.6-5.6-6.4C314.9,415.3,315,409.2,315,403.1L315,403.1z"/>
			<path class="st1" d="M112,258.6c0-1.3,0-2.6,0-3.9c0-6.4,0-6.4-6.1-7.4c-3.1-0.5-5-2.4-5.1-5.5c-0.1-3,1.7-4.9,4.5-5.6
				c8.6-2.2,14.9,1.2,17.8,9.6c0.7,2,1.8,1.4,2.9,1.5c4.5,0.1,9,0,13.4,0.1c3.8,0.1,6.4,2.5,6.3,5.6c0,3.2-2.6,5.5-6.4,5.6
				c-4,0.1-8.1,0.2-12.1,0c-3-0.2-4.7,0.4-4,3.9c0.1,0.7,0.1,1.4,0,2.2c-0.4,3.2-0.1,5.5,4,6.3c4,0.7,6.2,4.2,7,8
				c0.4,1.7,1,2.1,2.6,2.5c6.1,1.7,8.9,5.6,8.9,12.1c0,3.2,0,6.4,0,9.5c-0.1,6-2.8,9.9-8.5,11.5c-2.1,0.6-2.9,1.3-2.9,3.6
				c0,8.6,1.1,9.5,9.7,8.2c1.3-0.2,1.4-0.8,1.7-1.8c2.6-8,9.9-11.8,18.1-9.3c2.7,0.8,4.5,2.8,4.2,5.8c-0.3,3.1-2.3,5.4-5.3,5.1
				c-4.4-0.4-6,1.2-7.3,5.3c-1.2,3.9-5,5.8-9.1,6.1c-1.4,0.1-2.9,0-4.3,0c-7.7,0-7.5,0-7.8,7.5c-0.2,3.6,1.2,3.9,4.2,3.8
				c4.5-0.2,7.2,2.2,7.2,5.6c0,3.4-2.8,5.7-7.3,5.5c-2.6-0.1-3.9,0.4-4.6,3.3c-1.5,5.7-6.7,8.8-12.2,8c-5.6-0.8-9.5-5.4-9.7-11.4
				c-0.1-3.6,1.6-8.4-0.6-10.4c-2.4-2.2-7.1-0.5-10.9-0.6c-1.7-0.1-3.5,0.1-5.2,0c-3.6-0.2-5.8-2.2-5.7-5.7c0-3.3,2.2-5.7,5.5-5.4
				c4.1,0.3,5.7-1.2,6.9-5c1.3-4,4.9-5.9,9-6.3c1.3-0.1,2.6,0,3.9,0c9,0,8.9,0,8.4-9c-0.1-1.5-0.5-2-2-2.5
				c-6.7-1.9-9.3-5.5-9.3-12.6c0-5.9-0.2-11.9,0.1-17.8c0.1-2.8-0.8-3.4-3.4-3.3c-4.2,0.2-8.4,0.1-12.6,0c-4.1-0.1-6.7-2.4-6.6-5.8
				c0.1-3.2,2.7-5.4,6.5-5.5c4.5-0.1,9-0.1,13.4,0c2.1,0.1,2.7-0.7,2.6-2.7C111.9,264.3,112.1,261.5,112,258.6L112,258.6z"/>
			<path class="st1" d="M78.2,143.8c0,7.8,0,15.6,0,23.4c0,6.8-2.6,10.5-9.1,12.3c-1.8,0.5-2.3,1.1-2.2,2.8c0.1,1,0.1,2,0,3
				c-0.3,3.5-2.3,5.7-5.8,5.6c-3.3-0.1-5-2.3-5.5-5.6c-0.3-1.8,1.4-4.7-1-5.3c-3-0.8-6.3-0.3-9.5-0.1c-1.3,0.1-0.8,1.7-0.8,2.6
				c-0.1,4.5,0,9,0,13.4c-0.1,3.8-2.4,6.4-5.6,6.4s-5.6-2.6-5.7-6.3c-0.1-4.5-0.2-9,0-13.4c0.1-2.3-0.7-2.9-2.9-2.9
				c-5.8,0-8.5-2-8.4-5.7c0.1-3.6,2.6-5.4,8.6-5.5c2.1,0,2.9-0.5,2.6-2.6c-0.1-0.9-0.1-1.7,0-2.6c0.6-4.3-0.1-7-5.6-6.2
				c-3.2,0.4-5.5-2-5.5-5.3c-0.1-3.5,2.1-5.4,5.7-5.8c1.8-0.2,4.8,0.9,5.2-0.7c0.8-3.1,0.3-6.6,0.2-9.9c0-0.9-1.1-0.7-1.8-0.7
				c-1.2,0-2.3,0-3.5,0c-3.5-0.2-5.8-2.1-5.8-5.6c0-3.5,2.3-5.6,5.8-5.6c8.8-0.1,17.6,0,26.4,0c2.5,0,4.9-0.2,7.4,0.1
				c4,0.5,6-0.4,5.5-5.1c-0.4-3.7,2.5-6.3,5.7-6.2c3.2,0.1,5.4,2.7,5.5,6.5C78.3,127,78.3,135.4,78.2,143.8L78.2,143.8z"/>
			<path class="st1" d="M177.7,393.9c-1,0-2,0.1-3,0c-3.8-0.4-6.2,0.1-7.5,4.7c-1.8,6.1-12.6,9-18.2,5.8c-2.2-1.3-3.5-3.2-2.9-5.8
				c0.6-2.8,2.5-5,5.4-4.6c4.2,0.5,5.9-1,7-5c0.9-3.4,3.9-5.4,7.3-6c2.4-0.4,3.1-1.4,2.7-3.7c-0.1-0.8-0.1-1.7,0-2.6
				c0.6-3.5-0.5-5.3-4.3-6.5c-6.5-2-9.6-12.4-6.2-18.4c1.3-2.2,3.2-3.5,5.7-3c2.8,0.6,5,2.5,4.6,5.4c-0.8,5.6,1.9,5.9,6.5,6
				c4.3,0,5.6-1.3,4.9-5.3c-0.2-1.1-0.2-2.3,0-3.5c0.4-2.5-0.9-3-2.9-2.7c-1.1,0.1-2.3,0.2-3.5-0.1c-3-0.7-4.9-2.6-4.8-5.7
				c0.1-2.9,1.9-4.7,4.8-5.3c1.2-0.3,2.6-0.2,3.9-0.1c2.2,0.3,2.7-0.7,2.6-2.7c-0.2-2.9-0.1-5.8,0-8.7c0.2-6.5,4.8-11,11.3-11.2
				c3.6-0.1,7.2-0.1,10.8,0c5.7,0.1,9.6,2.8,11.1,8.3c0.7,2.3,1.5,3.4,4,3c1.1-0.2,2.3-0.2,3.5,0c3,0.4,4.4-0.5,5.2-3.7
				c1.3-4.9,5.3-7.5,10.3-7.6c5.5-0.1,11-0.1,16.5,0c3.7,0.1,6.5,2.6,6.2,5.8c-0.3,3.5-2.5,5.6-6,5.4c-3.4-0.2-5.4,0.3-6.1,4.2
				c-0.8,3.8-4,6-7.7,6.7c-2.2,0.4-2.9,1.2-2.6,3.3c0.1,0.9,0.1,1.7,0,2.6c-0.3,3.5-2.3,5.7-5.8,5.6c-3.3-0.1-5.8-2.4-5.3-5.6
				c0.8-5.6-2-5.9-6.3-5.7c-3,0.2-6,0.5-9-0.6c-3.9-1.4-6.3-4.2-7.1-8c-0.5-2.3-1.4-2.5-3.4-2.6c-9-0.1-9-0.1-8.3,9.1
				c0.1,1.6,0.5,2.4,2.2,2.2c1.1-0.1,2.3-0.1,3.5,0c3.3,0.3,5.5,2.2,5.6,5.5c0.1,3.5-2.2,6-5.7,5.6c-5.1-0.6-6,1.5-5.6,6
				c0.3,2.9,0.5,6-0.5,9c-1.1,3.1-2.9,5.9-5.8,6.5c-4.7,0.9-4.9,3.5-5,7.4c-0.1,3.9,0.5,5.7,5,5.2c3.7-0.4,6.4,2.3,6.4,5.5
				c0,3.2-2.6,5.5-6.3,5.7C182.3,393.9,180,393.9,177.7,393.9L177.7,393.9z"/>
			<path class="st1" d="M239.5,439c-6.2,0-12.4,0-18.6,0c-4.6,0-7.3-2.1-7.3-5.5c-0.1-3.4,2.8-6.1,7.1-5.6c4.9,0.6,4.2-2.3,4.1-5.1
				c0-6.3,0-6.3-6.3-6.3c-2.6,0-5.3,0.2-7.7-0.4c-7.4-1.8-11.6-12.5-7.7-19.1c1.3-2.2,3.2-3.5,5.7-2.9c2.8,0.6,5,2.5,4.6,5.4
				c-0.8,5.7,2,6,6.5,5.9c3.7-0.1,5.3-0.7,5-4.8c-0.4-5.6-0.1-11.3-0.1-16.9c0-7.7,4.6-12.2,12.4-12.2c1.6,0,3.2-0.2,4.8,0.1
				c3.3,0.4,5.3,2.4,5.3,5.7c-0.1,3.1-2.1,5-5.2,5.4c-1.3,0.2-2.6,0.2-3.9,0c-1.7-0.2-2.3,0.6-2.2,2.2c0.1,2.3,0.1,4.6,0,6.9
				c-0.1,1.7,0.5,2.3,2.2,2.2c1.1-0.1,2.3-0.1,3.5,0c3.3,0.3,5.5,2.2,5.5,5.5c0,3.5-2.2,6-5.7,5.6c-5.1-0.6-5.9,1.6-5.6,6
				c0.4,4.7,0.2,9.5,0.1,14.3c0,1.8,0.4,2.5,2.4,2.5c5.9-0.1,11.8-0.2,17.8,0c2.3,0.1,2.5-1,2.5-2.8c-0.1-6.2,0-12.4,0-18.6
				c0-6.5,2.7-10.6,8.8-12.1c2.4-0.6,2.5-1.6,2.5-3.4c0-1.3-0.2-2.7,0.2-3.9c0.9-2.7,2.8-4.5,5.8-4.2c3.1,0.3,5.4,2.3,5.1,5.4
				c-0.3,4,0.6,6,4.9,7c3.5,0.8,5.6,4.1,6.2,7.7c0.4,2,1.1,2.7,3,2.4c0.9-0.1,1.7-0.1,2.6,0c3.6,0.2,5.8,2.1,5.9,5.6
				c0,3.5-2.3,5.8-5.8,5.6c-3.6-0.2-5.4,0.6-6.4,4.5c-1.2,4.4-5,6.5-9.5,6.9c-1.6,0.1-3.2,0.1-4.8,0c-4-0.2-7.4-0.6-8.6,5.1
				c-1,4.3-5.4,6.2-9.9,6.2C252.2,439,245.8,439,239.5,439L239.5,439z"/>
			<path class="st1" d="M292.4,67.1c0,1.2,0,2.3,0,3.5c-0.1,4.2-1,8.2,5.3,9.4c3.8,0.7,5.5,4.8,5.9,8.8c0.2,1.6,0.1,3.2,0,4.8
				c-0.3,4.2-0.6,8.2,5.3,8.9c1.3,0.1,3.2,1.7,3.5,2.9c1.4,5,5.2,7.1,9.4,9.5c4.4,2.5,6,12,3.7,16.6c-1.2,2.3-3,3.6-5.6,3.3
				c-2.7-0.3-4.4-2.1-5-4.7c-0.3-1.2-0.2-2.6-0.1-3.9c0.2-2.1-0.6-2.7-2.7-2.6c-6.4,0.1-12.7,0.1-19.1,0c-6.2,0-10.2-2.9-11.8-8.7
				c-0.5-1.7-0.9-2.4-2.8-2.9c-7.4-2-11.5-11.3-8.4-18.6c1.1-2.4,3-4,5.8-3.6c3,0.5,4.6,2.5,5.1,5.6c0.2,1.8-1.3,4.8,1,5.3
				c3,0.8,6.3,0.3,9.5,0.1c0.9,0,0.8-1,0.8-1.7c0-1.7-0.2-3.5,0-5.2c0.3-2.8-0.3-4.3-3.4-4.9c-4.2-0.8-6.7-4-7.5-8
				c-0.5-2.3-1.3-2.8-3.3-2.6c-1.1,0.1-2.3,0.2-3.5,0c-3.8-0.6-5.3,0.7-4.9,4.8c0.3,3.8-2.2,6.4-5.4,6.5c-3.4,0.1-5.7-2.5-5.8-6.6
				c0-1.4,0-2.9,0-4.3c0.1-6.8,4.7-11.4,11.4-11.6c3.6-0.1,8.3,1.2,10.4-0.6c2.3-1.9,0.6-6.8,0.7-10.3c0.1-1.9,0.5-3.7,1.3-5.4
				c1.9-4.2,7.4-4.3,9.6-7c2.3-2.8,2.8-7.3,6.8-9.3c1.5-0.8,3.2-1.2,5-1.2c5.2,0.1,10.4,0,15.6,0c4.2,0,6.8,2.2,6.9,5.5
				c0.1,3.5-2.6,5.7-7.1,5.8c-2.2,0-4.3,0-6.5,0c-4.7-0.1-9.7-1.4-10.8,5.8c-0.4,2.5-3.1,4.3-5.8,4.7c-3.3,0.5-4,2.2-3.7,5.2
				C292.6,62.4,292.4,64.7,292.4,67.1L292.4,67.1z"/>
			<path class="st2" d="M100.8,62.6c-0.4,5.7,0.8,12.5-1.6,19.2c-3.9,10.8-14.3,18.8-25.9,19c-7.9,0.1-15.9,0.1-23.8,0
				c-15-0.2-27.4-12.7-27.6-27.8c-0.1-7.8-0.1-15.6,0-23.4c0.2-15,12.7-27.5,27.7-27.7c7.9-0.1,15.9-0.1,23.8,0
				c14.7,0.3,27.1,12.8,27.4,27.5C100.8,53.5,100.8,57.6,100.8,62.6L100.8,62.6z"/>
			<path class="st3" d="M100.8,400.7c-0.5,5.7,0.8,12.5-1.5,19.1c-3.9,10.9-14.3,18.9-25.8,19.1c-8.1,0.1-16.2,0.2-24.3,0
				c-14.5-0.3-27-12.7-27.3-27.2c-0.2-8.1-0.2-16.2,0-24.3c0.3-14.7,12.8-27.1,27.5-27.4c7.9-0.1,15.9-0.1,23.8,0
				c14.8,0.3,27.2,12.7,27.5,27.4C100.9,391.6,100.8,395.6,100.8,400.7L100.8,400.7z"/>
			<path class="st4" d="M399.3,100.5c-5.2,0-10.5,0.6-15.6-0.1c-13.6-2-23.5-14.1-23.6-27.9c-0.1-7.5-0.1-15,0-22.5
				c0.2-15.5,12.6-27.9,28.2-28.1c7.5-0.1,15-0.1,22.5,0c15.5,0.2,28,12.6,28.2,28.1c0.1,7.7,0.1,15.3,0,23
				c-0.2,15.2-12.7,27.6-28,27.8c-3.9,0.1-7.8,0-11.7,0V100.5L399.3,100.5z"/>
			<path class="st1" d="M416.4,211.8c0-6.1-0.1-12.1,0-18.2c0-2.1-0.6-2.6-2.6-2.7c-8.7-0.3-8.7-0.4-8.7,8.3c0,4.8,0.1,9.5,0,14.3
				c-0.2,6.5-4.7,11-11.2,11.3c-2,0.1-4.1,0.2-6.1-0.1c-3.1-0.4-5.1-2.3-5.2-5.4c-0.1-3.4,2-5.3,5.2-5.8c5.9-0.8,5.9-0.8,5.9-6.7
				c0-3.8-0.2-7.5,0.1-11.3c0.3-3.6-0.5-5.1-4.5-4.8c-5.7,0.4-11.5,0.1-17.3,0.1c-6.6-0.1-11.4-4.1-12-10
				c-0.6-5.8,3.3-11.2,9.1-12.4c5.7-1.2,11.4,2.4,13,8.6c0.6,2.2,1.4,2.6,3.4,2.6c5.5-0.1,11-0.1,16.5,0c2.3,0.1,3.5-0.5,3.1-3
				c-0.1-0.8-0.1-1.7,0-2.6c0.3-3.3,2.1-5.5,5.4-5.6c3.5-0.1,5.9,2.1,5.7,5.6c-0.1,3.7,0.5,5.8,4.7,6.7c3.5,0.8,5.7,4,6.3,7.6
				c0.4,2.3,1.4,2.8,3.4,2.6c0.9-0.1,1.7-0.1,2.6,0c3.3,0.3,5.5,2.1,5.6,5.4c0.1,3.5-2.1,5.4-5.7,5.8c-1.8,0.2-4.8-0.9-5.2,0.6
				c-0.8,3.1-0.4,6.6-0.3,9.9c0,0.9,1.1,0.7,1.8,0.8c1.3,0,2.6-0.1,3.9,0c3.3,0.3,5.4,2.3,5.4,5.6c0,3.3-2.1,5.8-5.4,5.5
				c-5.1-0.5-6.3,1.3-6,6.1c0.2,3.2-2.3,5.4-5.6,5.3c-3.3-0.1-5.4-2.2-5.4-5.6C416.3,224.2,416.4,218,416.4,211.8L416.4,211.8
				L416.4,211.8z"/>
			<path class="st1" d="M207.5,145.9c-7.1,0-14.2,0-21.2,0c-3.9,0-6.4-2.3-6.5-5.5c-0.1-3.3,2.6-6.1,6.6-5.7c4.3,0.4,4.9-1.4,4.7-5
				c-0.3-6.3-0.1-6.3-6.3-6.4c-3-0.1-5.3-0.1-6,3.9c-0.7,4-4.1,6.4-7.9,7.1c-2.5,0.5-2.6,1.5-2.5,3.4c0.1,1.2,0.2,2.4-0.1,3.5
				c-0.7,2.8-2.5,4.6-5.4,4.7c-3,0.1-4.9-1.7-5.6-4.5c-2.2-8.6,1.2-15.1,9.6-17.9c1.2-0.4,1.6-0.8,1.5-2c0-0.4,0-0.9,0-1.3
				c0.2-8.6-1.1-9.6-9.7-8.2c-1.3,0.2-1.7,0.7-1.6,1.9c0.1,1.4,0.2,2.9-0.1,4.3c-0.5,3.1-2.4,5-5.5,5c-3,0.1-4.9-1.8-5.5-4.6
				c-2.1-8.7,1.2-14.7,9.7-17.8c1.3-0.5,1.5-1,1.4-2.1c0-1.3-0.1-2.6,0-3.9c0.4-3.3,2.3-5.4,5.7-5.3c3.3,0.1,5.7,2.2,5.4,5.5
				c-0.3,4.1,1.1,5.9,5,6.9c3.3,0.9,5.4,3.9,6,7.4c0.4,2.5,1.6,2.9,3.7,2.7c2.4-0.2,4.9-0.1,7.4,0c7,0.1,11.6,4.6,11.9,11.5
				c0.1,3.6-1.6,8.4,0.6,10.4c2.4,2.2,7.1,0.5,10.9,0.6c4.6,0.1,9.2,0,13.9,0c5.6,0,8.5,2,8.4,5.7c-0.1,3.7-2.8,5.5-8.2,5.5
				C221,145.9,214.2,145.9,207.5,145.9L207.5,145.9z"/>
			<path class="st1" d="M202.2,67c-1.4,0-2.9,0-4.3,0c-6.9,0-6.6,0-7,7c-0.2,3.7,1,4.6,4.5,4.4c4.2-0.3,6.8,2.2,6.9,5.5
				c0,3.3-2.6,5.9-6.7,5.6c-3.9-0.3-4.9,0.9-4.6,4.7c0.3,4.1-2.3,6.7-5.7,6.7c-3.3-0.1-5.5-2.7-5.5-6.9c0-4.2-0.1-8.4,0-12.6
				c0-1.9-0.1-2.9-2.5-3.4c-4.4-0.8-7.5-3.8-8.4-8.3c-0.5-2.5-1.6-2.9-3.7-2.7c-0.9,0.1-1.7,0.1-2.6,0c-3.3-0.5-5.3-2.4-5.3-5.7
				c0.1-3.1,2.1-5,5.2-5.4c1.3-0.2,2.6-0.2,3.9,0c1.7,0.2,2.3-0.5,2.2-2.2c-0.1-1,0-2,0-3c0.1-3.6,2-5.9,5.5-5.9
				c3.5-0.1,6,2.3,5.6,5.7c-0.6,5.2,1.7,5.7,6,5.5c8.9-0.3,17.9-0.1,26.9-0.1c6.5,0,10.5,2.7,12.1,8.9c0.5,2,1.1,2.6,3,2.4
				c1.6-0.1,3.3-0.2,4.7,0.3c2.6,1,4.3,3.1,3.7,6.1c-0.5,2.8-2.5,4.9-5.4,4.7c-4.5-0.4-6.5,0.6-5.9,5.6c0.4,3.5-2.1,5.8-5.7,5.7
				c-3.5-0.1-5.4-2.5-5.5-6c-0.1-4.5-0.2-9,0-13.4c0.1-2.5-0.8-3.2-3.2-3C207.7,67.2,204.9,67,202.2,67L202.2,67z"/>
			<path class="st1" d="M360,260.4c0,3.3,0.1,6.6,0,10c-0.3,5.9-4.6,10.3-10.3,10.8c-5.7,0.5-10.8-3.4-12.1-9
				c-1.2-5.4,1.9-11.4,7.6-12.8c5.5-1.3,2.9-5.1,3.5-7.9c0.6-2.9-0.6-4-3.5-4.9c-7-2.1-10.6-12.3-7-18.7c1.3-2.4,3.5-3.7,6.1-2.9
				c2.7,0.7,4.8,2.8,4.3,5.7c-0.9,5.3,1.8,5.6,6,5.5c8.9-0.3,17.9-0.1,26.8-0.1c6.5,0,10.4,2.7,12,8.9c0.5,2,1.3,2.2,3,2.7
				c7.3,2.1,11.4,11.7,8.1,18.7c-1.1,2.4-3.1,3.9-5.9,3.4c-2.8-0.5-5.1-2.4-4.7-5.3c0.5-4.3-1-6.2-5.2-7.2c-3.4-0.9-5.2-4.1-5.9-7.4
				c-0.4-1.9-0.8-2.6-2.9-2.5c-5.8,0.2-11.5,0.2-17.3,0c-2.1,0-2.7,0.6-2.6,2.7C360.2,253.4,360,256.9,360,260.4L360,260.4z"/>
			<path class="st1" d="M119.8,157.2c-2.7,0-5.5,0.2-8.2,0c-4.9-0.3-8.7-2.6-10-7.5c-0.9-3.3-2.4-4.3-5.6-3.8
				c-2.7,0.4-4.7-0.9-6-3.3c-1.1-2-0.6-3.9,0.7-5.6c1.4-1.9,3.5-2.6,5.8-2.2c3.8,0.7,4.8-1,4.3-4.5c-0.1-0.7-0.1-1.5,0-2.2
				c0.5-3.5-0.3-5.2-4.4-4.8c-4.1,0.4-6.8-2.2-6.8-5.5c0-3.3,2.7-5.6,6.7-5.7c4.3-0.1,8.7-0.2,13,0c2.3,0.1,2.9-0.7,2.8-2.9
				c-0.2-4.2-0.1-8.4,0-12.6c0-4.4,2.3-7.2,5.7-7.1c3.3,0.1,5.7,2.7,5.4,6.9c-0.2,3,0.7,4.3,3.7,5.2c5.4,1.5,8.3,6.7,7.5,12.1
				c-0.8,5.2-5.2,9.3-10.6,9.6c-2.7,0.2-5.5,0.2-8.2,0c-2.6-0.2-3.9,0.3-3.7,3.4c0.3,5.3,0.3,10.7,0,16c-0.1,2.9,0.9,3.3,3.4,3.2
				c4.2-0.2,8.4-0.1,12.6,0c4.1,0.1,6.7,2.4,6.6,5.8c-0.1,3.2-2.7,5.4-6.5,5.5C125.3,157.2,122.6,157.2,119.8,157.2L119.8,157.2
				L119.8,157.2z"/>
			<path class="st1" d="M134.6,40.6c0,4.2,0.1,8.4,0,12.6c0,1.7,0.3,2.4,2.2,2.8c4.8,1,7.9,4.1,8.9,8.9c0.4,1.9,1.1,2.3,2.8,2.2
				c1-0.1,2-0.1,3,0c3.3,0.3,5.5,2.1,5.6,5.4c0.1,3.6-2.2,6.1-5.6,5.7c-5.7-0.8-5.9,2.1-5.6,6.3c0.2,3.3,0.1,6.6,0,10
				c-0.1,3.8-2.4,6.4-5.6,6.4c-3.2,0-5.9-2.6-5.6-6.3c0.4-4.3-1-5.4-5.1-5.1c-3.7,0.3-6.3-2.4-6.2-5.7c0.1-3.2,2.7-5.3,6.5-5.6
				c1.6-0.1,4.2,1,4.6-0.9c0.6-3.2,0.2-6.6-0.1-9.9c-0.1-0.8-1.5-0.5-2.3-0.5c-2.7,0-5.5,0-8.2,0c-6.1-0.1-10.7-3.9-11.7-9.5
				c-0.9-5.5,2.4-11,8.2-12.5c2.9-0.7,3.1-2.1,3-4.4c-0.1-4.2-0.1-8.4,0-12.6c0.1-3.7,2.6-6.4,5.8-6.1c3.5,0.4,5.4,2.5,5.4,6.1
				C134.6,32.2,134.6,36.4,134.6,40.6L134.6,40.6z"/>
			<path class="st1" d="M337.5,190.4c0.4,3.5-1.8,9,0.9,11.3c2.3,2,7.7,0.6,11.7,0.6c8.5,0,17,0,25.6,0c4.2,0,6.8,2.1,7,5.5
				c0.1,3.5-2.6,5.9-7,5.7c-2.8-0.1-4.2,0.5-5,3.5c-1.3,5.1-5.5,7.9-10.6,7.9c-5,0-9.2-2.8-10.5-7.9c-0.8-3.1-2.3-3.6-5-3.4
				c-14.6,1.1-19.3-3.3-18.3-18.1c0.2-2.6,0-5.2,0-7.8c0-2.3,0.7-4.9-0.2-6.8c-1.1-2.4-4.1-0.6-6.2-1.1c-2.5-0.6-4.2-2.1-4.7-4.5
				c-0.6-2.5,0.5-4.5,2.7-5.9c7.7-4.8,19.4,1.3,19.7,10.4C337.6,183,337.5,186.3,337.5,190.4L337.5,190.4z"/>
			<path class="st1" d="M102.4,213.5c-2.3,0-4.6,0.1-6.9,0c-3.6-0.1-5.8-2.1-5.9-5.6c-0.1-3.5,2.2-5.4,5.8-5.7
				c1.8-0.2,4.7,0.9,5.1-0.7c0.8-3.1,0.4-6.6,0.1-9.9c-0.1-1.3-2-0.6-3.1-0.6c-2-0.1-4.1,0.2-5.8-1.3c-1.8-1.5-2.8-3.5-2.1-5.7
				c0.9-2.7,2.9-4.6,5.8-4.2c4.2,0.5,5.9-0.7,5.4-5.2c-0.4-3.5,1.8-5.7,5.3-6.1c3.2-0.3,6.1,2.4,5.7,6.1c-0.5,4.6,1.3,5.5,5.4,5.2
				c3.5-0.3,5.8,2,5.9,5.5c0,3.5-2.3,5.4-5.8,5.7c-1.8,0.2-4.7-1-5.1,0.7c-0.7,3.1-0.3,6.6-0.1,9.9c0.1,1.1,1.4,0.6,2.2,0.8
				c4.5,1.3,7.7,4.1,8.6,8.7c0.4,2,1.4,2.2,3,2.7c7.4,2.2,11.4,11.7,8.1,18.7c-1.2,2.4-3.1,3.9-5.9,3.4c-2.7-0.5-5-2.3-4.7-4.9
				c0.6-4.7-1.5-6.7-5.7-7.9c-2.6-0.8-4.5-3.1-4.9-5.6c-0.6-4.1-2.9-4.5-6.2-4.1C105.3,213.7,103.9,213.5,102.4,213.5L102.4,213.5z"
				/>
			<path class="st1" d="M33.1,284.8c0-4.2-0.1-8.4,0-12.6c0.1-1.9-0.6-2.6-2.5-2.4c-0.3,0-0.6,0-0.9,0c-5.3-0.1-8.1-2.1-8-5.7
				c0.1-3.6,2.8-5.5,8.2-5.5c1.9,0,2.9-0.1,3.4-2.5c0.9-4.6,4.1-7.7,8.7-8.5c2.2-0.4,2.3-1.4,2.3-3.1c-0.1-4.2-0.1-8.4,0-12.6
				c0-4.4,2.3-7.2,5.7-7.1c3.3,0.1,5.5,2.7,5.5,6.9c0,5.1,0.1,10.1,0,15.2c-0.1,5.9-3,10-8.6,11.4c-2.5,0.6-2.9,1.7-2.6,3.7
				c0.1,1,0.1,2,0,3c-0.4,3.2,0.3,5,4,5.9c4.7,1.1,7.4,5.7,7.3,10.5c-0.1,4.8-2.8,9.1-7.7,10.2c-3.3,0.8-3.7,2.4-3.6,5.3
				c0.2,4.1-2.2,6.8-5.6,6.8c-3.3,0-5.6-2.7-5.7-6.8C33.1,292.9,33.1,288.8,33.1,284.8L33.1,284.8z"/>
			<path class="st1" d="M264.2,145.9c-1.9,0-3.7-0.1-5.6,0c-1.8,0.1-3.4-0.4-5-1.2c-4.2-1.9-4.4-7.2-7-9.5c-2.7-2.5-7.6-2.9-9.5-7.1
				c-1.9-4.1-0.9-8.5-1-12.8c0-2.2-0.4-3-2.8-3.7c-7.4-2-11.4-11.6-8-18.6c1.2-2.4,3.2-3.9,5.9-3.4c2.8,0.5,5,2.4,4.7,5.3
				c-0.4,4,0.8,5.8,4.8,7.1c4.4,1.3,6.5,5.4,6.6,10.2c0.1,3.6-1.2,8.4,0.6,10.4c2.2,2.3,7,0.6,10.8,0.7c3.6,0.1,7.2,0,10.8,0
				c6.7,0.1,11.6,4.9,11.6,11.3c0,6.4-4.9,11.1-11.7,11.2C267.7,145.9,266,145.9,264.2,145.9L264.2,145.9z"/>
			<path class="st1" d="M360,153.9c0,2.9,0.1,5.8,0,8.7c-0.1,3.6-2.1,5.8-5.6,5.8c-3.5,0-6-2.4-5.5-5.8c0.7-5.4-2-5.8-6.1-5.4
				c-1.9,0.2-3.7,0.1-5.6,0c-5.7-0.2-10.2-4.3-11-9.8c-0.7-5.3,2.3-10.6,7.7-12c3.3-0.9,3.7-2.4,3.6-5.3c-0.2-4.1,2.3-6.8,5.6-6.8
				c3.3,0,5.7,2.7,5.6,6.8c-0.1,2.9,0.2,4.5,3.6,5.3c4.9,1.2,7.5,5.2,7.7,10.2C360.1,148.4,360,151.1,360,153.9L360,153.9z"/>
			<path class="st1" d="M204.5,44.5c-4.5,0-9,0.1-13.4,0c-6.7-0.1-11.6-5.1-11.4-11.5c0.1-6.2,4.9-10.9,11.5-11
				c3.5-0.1,6.9,0,10.4,0c6,0.1,9.9,2.8,11.5,8.5c0.6,2.2,1.3,3.2,3.6,2.8c0.8-0.2,1.7-0.1,2.6,0c3.3,0.4,5.4,2.3,5.4,5.6
				c0,3.3-2.1,5.2-5.4,5.6c-0.3,0-0.6,0-0.9,0C213.8,44.5,209.2,44.5,204.5,44.5L204.5,44.5z"/>
			<path class="st1" d="M401.3,315c4.2,0,8.4-0.1,12.6,0c2.1,0.1,2.9-0.6,2.6-2.7c-0.1-1-0.1-2,0-3c0.3-3.3,2.2-5.5,5.5-5.5
				c3.5-0.1,5.5,2.2,5.8,5.7c0.8,10-0.7,12.6-10.1,16.6c-1.4,0.6-1,1.5-1.3,2.3c-1.9,5.9-5.7,9.1-11.1,9.1c-5.4,0-9.4-3.1-11-9.1
				c-0.5-1.8-1-2.4-2.7-2.2c-1,0.1-2,0.1-3,0c-3.5-0.3-5.7-2.3-5.7-5.8c0.1-3.3,2.2-5.3,5.6-5.4C392.6,314.9,396.9,315,401.3,315
				L401.3,315z"/>
			<path class="st1" d="M72.4,236.1c3.2-0.1,6.1,2.5,5.7,6.2c-0.5,4.7,1.5,5.5,5.5,5.1c3.6-0.3,7.2-0.1,10.8,0
				c3.8,0.1,6.4,2.5,6.4,5.6c0,3.2-2.6,5.9-6.4,5.5c-4.4-0.4-5.3,1.2-5,5.2c0.3,3.7-2.5,6.4-5.7,6.1c-3.5-0.3-5.6-2.5-5.4-6.1
				c0.3-3.5-0.5-5-4.2-6.2c-6.6-2-9.9-12.8-6.2-18.7C68.9,237.2,70.6,236.2,72.4,236.1L72.4,236.1z"/>
			<path class="st1" d="M418.2,145.9c1.2,0,2.3-0.1,3.5,0c4.4,0.6,6.9-0.2,6.2-5.7c-0.4-3.2,2.1-5.5,5.4-5.5c3.5,0,5.5,2.2,5.8,5.7
				c0.8,9.9-0.6,12.3-10.2,16.6c-1.1,0.5-1.1,1.1-1.1,1.9c0,1.3,0.1,2.6,0,3.9c-0.3,3.3-2.2,5.4-5.6,5.5c-3.3,0-5.8-2.1-5.5-5.4
				c0.5-5-1.3-6.3-6.1-6c-3.2,0.2-5.4-2.3-5.3-5.6c0.1-3.3,2.2-5.2,5.6-5.5C413.2,145.8,415.7,145.9,418.2,145.9L418.2,145.9
				L418.2,145.9z"/>
			<path class="st1" d="M413.3,134.6c-2.7,0-5.5,0.1-8.2,0c-6.1-0.2-10.8-4.6-11.1-10.5c-0.4-5.7,3.5-10.8,9.2-11.9
				c5.5-1.1,11.1,2.1,12.7,7.8c0.8,3.1,2.3,3.5,5,3.4c4.2-0.1,6.8,2.1,7,5.4c0.1,3.5-2.6,5.7-7.1,5.8
				C418.2,134.7,415.7,134.6,413.3,134.6L413.3,134.6z"/>
			<path class="st1" d="M305.9,360.1c-7.9,0-11.1-2.2-13.3-9.5c-0.4-1.4-1-1.6-2.2-1.9c-7.8-2.3-12-11.2-8.9-18.7c1-2.4,3-4,5.8-3.6
				c2.9,0.4,5.2,2.3,4.9,5.1c-0.4,4.5,1.2,6.4,5.4,7.6c3,0.8,5,3.6,5.4,6.8c0.4,2.9,2,3.3,4.3,3.1c0.6-0.1,1.2,0,1.7,0
				c3.5,0.3,5.8,2.2,5.7,5.8c0,3.3-2.2,5.2-5.5,5.5C308.2,360.1,307,360.1,305.9,360.1L305.9,360.1z"/>
			<path class="st1" d="M145.9,196.9c0,3.3,0,6.6,0,10c-0.1,4.1-2.4,6.7-5.7,6.7c-3.2-0.1-5.7-2.6-5.4-6.4c0.3-3.8-0.8-5.3-4.8-4.9
				c-3.7,0.4-6.1-1.7-6.5-5.4c-0.4-3.3,2.5-6.1,6.5-5.7c4.2,0.4,5-1.3,4.8-5c-0.2-3.8,2.3-6.4,5.5-6.4c3.2,0,5.6,2.6,5.7,6.3
				C145.9,189.7,145.9,193.3,145.9,196.9L145.9,196.9z"/>
			<path class="st1" d="M55.7,320.7c0,3.5,0.1,6.9,0,10.4c-0.1,3.9-2.3,6.4-5.5,6.5c-3.2,0.1-6-2.5-5.6-6.2c0.3-4.1-0.8-5.5-5.1-5.1
				c-3.7,0.4-6.3-2.4-6.3-5.6c0-3.2,2.7-5.9,6.4-5.5c4.4,0.5,5.3-1.2,5-5.2c-0.3-3.7,2.5-6.4,5.7-6.1c3.5,0.4,5.4,2.5,5.4,6.1
				C55.7,313.4,55.7,317.1,55.7,320.7L55.7,320.7z"/>
			<path class="st1" d="M92,236.1c-8.2,0-11.2-2-13.6-9.6c-0.5-1.6-1.1-1.7-2.3-1.6c-1.4,0-2.9,0.2-4.3-0.1
				c-2.8-0.6-4.6-2.4-4.7-5.4c-0.1-3,1.7-4.9,4.4-5.6c8.5-2.3,15.2,1.2,17.9,9.5c0.5,1.6,1.1,1.7,2.3,1.6c1.3,0,2.6-0.1,3.9,0.1
				c3.1,0.5,5.1,2.3,5.1,5.4c0.1,3.3-2,5.3-5.3,5.7C94.3,236.2,93.1,236.1,92,236.1L92,236.1z"/>
			<path class="st1" d="M162.8,439c-3.6,0-7.2,0.1-10.8,0c-3.7-0.1-6.4-2.6-6.1-5.8c0.4-3.5,2.5-5.4,6-5.4c7.2-0.1,14.4-0.1,21.6,0
				c3.7,0.1,6.4,2.6,6.1,5.8c-0.4,3.5-2.5,5.4-6,5.4C170,439,166.4,439,162.8,439L162.8,439z"/>
			<path class="st1" d="M148.4,371.4c1.2,0,2.3-0.1,3.5,0c3.3,0.5,5.3,2.4,5.2,5.7c-0.1,3.1-2.1,4.9-5.1,5.4c-1.1,0.2-2.3,0.2-3.4,0
				c-2-0.2-2.6,0.5-2.7,2.6c-0.1,6.2-2,8.8-5.8,8.7c-3.8-0.2-5.4-2.9-5.4-9.1C134.6,375.4,138.8,371.4,148.4,371.4L148.4,371.4z"/>
			<path class="st1" d="M393.9,429.8c0-10.4,8.7-16.6,18.5-13.1c2.5,0.9,4.1,2.8,4,5.6c-0.2,2.9-2,4.7-4.8,5.3
				c-1.4,0.3-2.9,0.2-4.3,0.1c-1.7-0.1-2.4,0.5-2.2,2.2c0.1,0.7,0,1.4,0,2.2c-0.1,4.2-2.1,6.8-5.5,6.9c-3.5,0.1-5.7-2.6-5.8-7
				C393.9,431.3,393.9,430.5,393.9,429.8L393.9,429.8z"/>
			<path class="st1" d="M260.8,360.1c-10.5,0-16.6-8.3-13.3-18.4c0.8-2.5,2.7-4.2,5.5-4.1c3,0.1,4.7,1.9,5.5,4.6
				c0.3,1.1,0.1,2.3,0.1,3.4c0,1.8-0.3,3.2,2.5,3.2c6.3,0.1,8.9,2,8.8,5.7C269.8,358.4,267,360.1,260.8,360.1L260.8,360.1z"/>
			<path class="st1" d="M191,418.7c0,0.6,0,1.2,0,1.7c-0.1,4.5-2.1,7.2-5.6,7.3c-3.4,0.1-5.9-2.7-5.6-7.1c0.2-3.3-0.6-4.5-4.1-4.2
				c-4.4,0.3-7.2-2.1-7.2-5.5c0-3.4,2.7-5.6,7.2-5.7c9.1-0.1,13.2,2.1,14.9,8.4c0.4,1.6,0.4,3.4,0.6,5.1L191,418.7L191,418.7z"/>
			<path class="st1" d="M33.2,348.8c-2,0-4,0.2-6,0c-3.3-0.4-5.3-2.4-5.2-5.8c0.1-3.1,2.1-5.1,5.1-5.3c4-0.3,8.1-0.3,12.1,0
				c3.3,0.2,5.3,2.4,5.2,5.7c-0.1,3.1-2.1,5-5.1,5.4C37.2,349,35.2,348.8,33.2,348.8L33.2,348.8z"/>
			<path class="st1" d="M280.8,371.3c-1.9,0-3.8,0.2-5.6,0c-3.3-0.4-5.3-2.3-5.3-5.7c0-3.1,2-5.2,5-5.4c4.1-0.3,8.4-0.3,12.5,0
				c3,0.3,4.9,2.4,4.9,5.6c-0.1,3.1-2,5.1-5,5.5C285.2,371.5,283,371.3,280.8,371.3L280.8,371.3L280.8,371.3z"/>
			<path class="st1" d="M145.8,134.8c0,2,0.2,4.1-0.1,6c-0.4,3-2.4,5-5.5,5s-5.3-1.9-5.5-4.9c-0.3-4.1-0.3-8.3,0-12.5
				c0.2-3.1,2.4-5,5.5-5s5.1,1.9,5.5,5C146.1,130.5,145.8,132.7,145.8,134.8L145.8,134.8z"/>
			<path class="st1" d="M359.7,123.3c-1.7,0-3.5,0.1-5.2,0c-3.5-0.3-5.7-2.2-5.7-5.8c0.1-3.3,2.2-5.3,5.5-5.4
				c3.7-0.2,7.5-0.2,11.2,0c3.5,0.2,5.7,2.2,5.7,5.7c-0.1,3.3-2.2,5.2-5.5,5.5C363.7,123.5,361.7,123.3,359.7,123.3z"/>
			<path class="st1" d="M303.6,326.2c-1.9,0-3.7,0.1-5.6,0c-3.3-0.3-5.4-2.2-5.5-5.5c-0.1-3.3,2-5.5,5.2-5.7c4-0.3,8.1-0.3,12.1,0
				c3.1,0.2,5,2.3,5.1,5.4c0.1,3.3-2,5.3-5.3,5.7C307.6,326.4,305.6,326.2,303.6,326.2L303.6,326.2z"/>
			<path class="st1" d="M348.7,101.1c0,2,0.2,4.1-0.1,6c-0.5,3-2.4,5-5.6,4.9c-3.1,0-5.2-1.9-5.5-5c-0.3-4.1-0.3-8.3,0-12.5
				c0.3-3,2.4-5,5.5-4.9c3.1,0,5.1,1.9,5.5,5C349,96.7,348.7,98.9,348.7,101.1L348.7,101.1z"/>
			<path class="st1" d="M213.5,100.5c0,2,0.1,4,0,6c-0.3,3.3-2.2,5.4-5.5,5.5c-3.3,0.1-5.4-2-5.7-5.3c-0.3-3.9-0.2-7.8,0-11.6
				c0.2-3.3,2.2-5.4,5.5-5.5c3.5,0,5.5,2.2,5.7,5.7C213.6,97,213.5,98.8,213.5,100.5L213.5,100.5z"/>
			<path class="st1" d="M21.9,235.6c0-1.9-0.2-3.8,0-5.6c0.4-3.1,2.3-5.1,5.4-5.1c3.3-0.1,5.5,1.9,5.7,5.2c0.3,4,0.3,8.1,0,12.1
				c-0.2,3.1-2.2,5.1-5.3,5.1c-3.3,0.1-5.4-1.9-5.8-5.2C21.7,240,21.9,237.8,21.9,235.6z"/>
			<path class="st1" d="M134.8,405.2c2,0,4.1-0.2,6,0.1c3,0.5,5,2.4,4.9,5.6c0,3.1-1.9,5.3-5,5.5c-4.1,0.3-8.3,0.3-12.5,0
				c-3-0.2-5-2.4-4.9-5.5c0-3.1,1.9-5.1,5-5.5C130.5,405,132.7,405.2,134.8,405.2L134.8,405.2z"/>
			<path class="st1" d="M326.2,236c0,1.9,0.1,3.7,0,5.6c-0.2,3.5-2.2,5.7-5.7,5.7c-3.3,0-5.3-2.2-5.5-5.5c-0.2-3.9-0.2-7.8,0-11.6
				c0.2-3.3,2.3-5.3,5.7-5.3c3.3,0.1,5.2,2.2,5.5,5.5C326.3,232.2,326.2,234.1,326.2,236L326.2,236z"/>
			<path class="st1" d="M337.5,66.9c0-1.9-0.1-3.7,0-5.6c0.3-3.3,2.2-5.4,5.5-5.4c3.3,0,5.4,2,5.6,5.3c0.2,3.9,0.2,7.8,0,11.6
				c-0.2,3.3-2.2,5.4-5.5,5.4c-3.3,0-5.3-2-5.6-5.3C337.4,70.9,337.5,68.9,337.5,66.9L337.5,66.9z"/>
			<path class="st1" d="M258.6,56.1c0,1.9,0.2,3.8,0,5.6c-0.4,3.3-2.4,5.3-5.8,5.2c-3.1-0.1-5.1-2.1-5.4-5.1c-0.3-4-0.3-8.1,0-12.1
				c0.2-3.3,2.4-5.3,5.7-5.2c3.1,0.1,5,2.1,5.4,5.1C258.8,51.8,258.6,54,258.6,56.1z"/>
			<path class="st1" d="M270.1,33.2c2,0,4.1-0.2,6,0.1c3,0.5,5,2.4,4.9,5.6c0,3.1-1.9,5.3-5,5.5c-4.1,0.3-8.3,0.3-12.5,0
				c-3-0.2-5-2.4-4.9-5.5c0-3.1,1.9-5.1,5-5.5C265.8,33,267.9,33.2,270.1,33.2z"/>
			<path class="st1" d="M326.3,292.4c-2,0-4,0.2-6,0c-3.3-0.4-5.3-2.4-5.2-5.8c0.1-3.1,2.1-5.1,5.1-5.4c4-0.3,8.1-0.3,12.1,0
				c3.3,0.2,5.3,2.4,5.2,5.7c-0.1,3.1-2.1,5-5.1,5.4C330.3,292.6,328.3,292.4,326.3,292.4L326.3,292.4z"/>
			<path class="st1" d="M303.6,439c-1.9,0-3.7,0.1-5.6,0c-3.3-0.3-5.4-2.2-5.5-5.5c-0.1-3.3,2-5.5,5.2-5.7c4-0.3,8.1-0.3,12.1,0
				c3.1,0.2,5,2.3,5.1,5.4c0.1,3.3-2,5.3-5.2,5.7C307.7,439.2,305.6,439,303.6,439L303.6,439z"/>
			<path class="st1" d="M94.7,292.4c3.5,0,6.3,2.9,6,5.9c-0.3,3.3-2.3,5.2-5.6,5.4c-3,0.2-5.9-2.8-5.6-5.8
				C89.9,294.5,91.9,292.8,94.7,292.4L94.7,292.4z"/>
			<path class="st1" d="M89.5,309.2c0.1,3-2.7,6-5.7,5.8c-3.3-0.2-5.3-2.2-5.5-5.4c-0.3-3,2.6-5.8,5.7-5.8
				C86.8,303.7,89.4,306.3,89.5,309.2L89.5,309.2z"/>
			<path class="st1" d="M326.2,308.9c0,3.5-2.8,6.3-5.8,6.1c-3.3-0.3-5.2-2.3-5.4-5.6c-0.2-3,2.8-5.9,5.8-5.6
				C324.1,304,325.8,306.1,326.2,308.9L326.2,308.9z"/>
			<path class="st1" d="M348.8,308.9c0,3.5-2.8,6.3-5.8,6.1c-3.3-0.3-5.2-2.3-5.4-5.6c-0.2-3,2.8-5.9,5.8-5.6
				C346.6,304,348.3,306.1,348.8,308.9L348.8,308.9z"/>
			<path class="st1" d="M89.5,286.8c0,3-2.8,5.9-5.9,5.6c-3.3-0.3-5.2-2.3-5.4-5.6c-0.2-3,2.8-5.8,5.8-5.6
				C86.9,281.3,89.5,284,89.5,286.8z"/>
			<path class="st1" d="M94.6,315c3.5,0,6.4,2.8,6.1,5.8c-0.3,3.3-2.2,5.2-5.5,5.4c-3,0.2-5.9-2.8-5.6-5.8
				C89.8,317.1,91.9,315.4,94.6,315L94.6,315z"/>
			<path class="st1" d="M72.5,281.2c-3.2-0.5-5.3-2.2-5.5-5.5c-0.2-3,2.6-5.8,5.7-5.8c3,0,5.8,2.9,5.5,5.9
				C77.8,279.1,75.8,280.8,72.5,281.2L72.5,281.2z"/>
			<path class="st1" d="M39.3,224.8c-3.5,0-6.4-2.8-6.1-5.8c0.3-3.3,2.2-5.2,5.5-5.4c3-0.2,5.9,2.8,5.7,5.8
				C44.1,222.7,42,224.3,39.3,224.8z"/>
			<path class="st1" d="M67,207.4c0,3.5-2.8,6.3-5.8,6.1c-3.3-0.3-5.2-2.3-5.4-5.6c-0.2-3,2.8-5.9,5.8-5.6
				C64.8,202.6,66.5,204.7,67,207.4L67,207.4z"/>
			<path class="st1" d="M78.2,331.9c-0.3,3.5-3.4,6.1-6.3,5.6c-3.2-0.6-5.1-2.6-4.9-6c0.1-3,3.3-5.7,6.2-5.1
				C76.5,326.9,78.1,329,78.2,331.9L78.2,331.9z"/>
			<path class="st1" d="M72,191c3.5-0.1,6.4,2.7,6.2,5.7c-0.2,3.3-2.2,5.3-5.4,5.5c-3,0.3-5.9-2.6-5.8-5.7
				C67.2,193.2,69.3,191.5,72,191L72,191z"/>
			<path class="st1" d="M332.2,337.5c-3.5-0.1-6.3-3-5.9-6c0.4-3.3,2.4-5.2,5.7-5.3c3-0.1,5.8,2.9,5.5,5.9
				C337.1,335.5,335,337.2,332.2,337.5L332.2,337.5z"/>
			<path class="st1" d="M438.9,173.4c0.1,3.5-2.6,6.5-5.6,6.3c-3.3-0.2-5.3-2.1-5.6-5.4c-0.3-3,2.6-6,5.6-5.8
				C436.7,168.7,438.4,170.7,438.9,173.4L438.9,173.4z"/>
			<path class="st1" d="M388.8,168.4c-3.5,0.1-6.4-2.7-6.2-5.7c0.2-3.3,2.2-5.2,5.5-5.5c3-0.2,5.9,2.7,5.7,5.7
				C393.6,166.2,391.6,167.9,388.8,168.4L388.8,168.4z"/>
			<path class="st1" d="M213.5,353.8c0.1,3.5-2.7,6.4-5.7,6.2c-3.3-0.2-5.3-2.2-5.5-5.4c-0.3-3,2.6-5.9,5.7-5.8
				C211.3,349,213,351.1,213.5,353.8L213.5,353.8z"/>
			<path class="st1" d="M140.2,157.2c3,0,5.9,2.8,5.6,5.8c-0.3,3.3-2.2,5.2-5.5,5.4c-3,0.2-5.8-2.7-5.7-5.8
				C134.7,159.8,137.3,157.2,140.2,157.2z"/>
			<path class="st1" d="M100.8,162.7c0.1,3-2.7,6-5.7,5.8c-3.3-0.2-5.3-2.2-5.5-5.4c-0.3-3,2.6-5.8,5.7-5.8
				C98,157.2,100.7,159.8,100.8,162.7L100.8,162.7z"/>
			<path class="st1" d="M377.4,157.2c-3.5,0-6.3-2.8-6.1-5.8c0.3-3.3,2.3-5.2,5.6-5.4c3-0.2,5.9,2.8,5.6,5.8
				C382.3,155.1,380.2,156.8,377.4,157.2L377.4,157.2z"/>
			<path class="st1" d="M219.7,371.3c-3.5,0-6.4-2.8-6.1-5.8c0.3-3.3,2.2-5.2,5.5-5.4c3-0.2,5.9,2.8,5.7,5.8
				C224.5,369.2,222.4,370.9,219.7,371.3z"/>
			<path class="st1" d="M382.7,129.2c-0.6,3.2-2.3,5.2-5.6,5.4c-3,0.2-5.8-2.7-5.7-5.7c0.1-3,3-5.8,6-5.5
				C380.6,123.8,382.3,125.9,382.7,129.2L382.7,129.2z"/>
			<path class="st1" d="M224.8,117.1c0.1,3.5-2.7,6.4-5.7,6.2c-3.3-0.2-5.3-2.2-5.5-5.4c-0.3-3,2.6-5.9,5.7-5.8
				C222.5,112.3,224.2,114.4,224.8,117.1L224.8,117.1z"/>
			<path class="st1" d="M326.2,94.7c0,3.5-2.8,6.4-5.8,6.1c-3.3-0.3-5.2-2.2-5.4-5.5c-0.2-3,2.8-5.9,5.8-5.7
				C324.1,89.9,325.8,91.9,326.2,94.7L326.2,94.7z"/>
			<path class="st1" d="M269.9,377c0,3-2.9,5.9-5.9,5.6c-3.3-0.3-5.2-2.3-5.4-5.6c-0.1-3,2.8-5.7,5.8-5.6
				C267.3,371.5,269.9,374.2,269.9,377L269.9,377z"/>
			<path class="st1" d="M252.9,100.9c-3.2-0.5-5.3-2.2-5.5-5.5c-0.2-3,2.6-5.8,5.7-5.8c3,0,5.8,2.9,5.5,5.9
				C258.2,98.8,256.1,100.5,252.9,100.9L252.9,100.9z"/>
			<path class="st1" d="M117.6,382.6c3-0.1,5.9,2.7,5.7,5.8c-0.3,3.3-2.2,5.2-5.5,5.5c-3,0.2-5.8-2.7-5.7-5.7
				C112.1,385.3,114.7,382.7,117.6,382.6L117.6,382.6z"/>
			<path class="st1" d="M253,382.6c3,0,5.9,2.9,5.6,5.9c-0.3,3.3-2.3,5.2-5.6,5.4c-3,0.2-5.7-2.8-5.6-5.8
				C247.5,385.2,250.1,382.6,253,382.6z"/>
			<path class="st1" d="M337.5,83.2c0.1,3.5-2.6,6.5-5.6,6.3c-3.3-0.2-5.3-2.1-5.6-5.4c-0.3-3,2.6-6,5.6-5.8
				C335.2,78.5,336.9,80.5,337.5,83.2L337.5,83.2z"/>
			<path class="st1" d="M241.1,78.3c3.5-0.1,6.4,2.7,6.2,5.7c-0.2,3.3-2.2,5.2-5.5,5.5c-3,0.2-5.9-2.7-5.7-5.7
				C236.3,80.5,238.4,78.8,241.1,78.3L241.1,78.3z"/>
			<path class="st1" d="M314.9,72c0.1,3.5-2.7,6.4-5.7,6.2c-3.3-0.2-5.2-2.2-5.5-5.5c-0.2-3,2.7-5.9,5.7-5.7
				C312.7,67.3,314.4,69.3,314.9,72L314.9,72z"/>
			<path class="st1" d="M326.2,60.9c0,3.5-2.9,6.3-5.9,6c-3.3-0.3-5.2-2.3-5.4-5.6c-0.2-3,2.8-5.9,5.8-5.6
				C324.1,56.1,325.8,58.2,326.2,60.9L326.2,60.9z"/>
			<path class="st1" d="M337.5,49.6c0,3.5-2.8,6.4-5.8,6.1c-3.3-0.3-5.2-2.2-5.4-5.5c-0.2-3,2.8-5.9,5.8-5.7
				C335.3,44.8,337,46.8,337.5,49.6L337.5,49.6z"/>
			<path class="st1" d="M332.2,33.2c-3.5-0.1-6.3-3-6-5.9c0.4-3.3,2.4-5.2,5.7-5.3c3-0.1,5.8,2.9,5.5,5.9
				C337.1,31.2,335,32.8,332.2,33.2z"/>
			<path class="st1" d="M236,27.2c-0.1,3.5-3,6.3-5.9,6c-3.3-0.4-5.2-2.4-5.3-5.7c-0.1-3,2.9-5.8,5.9-5.5
				C234,22.3,235.7,24.4,236,27.2L236,27.2z"/>
			<path class="st1" d="M196,427.7c3.5-0.1,6.4,2.7,6.2,5.7c-0.2,3.3-2.2,5.3-5.4,5.5c-3,0.3-5.9-2.6-5.8-5.7
				C191.2,429.9,193.2,428.2,196,427.7L196,427.7z"/>
			<path class="st1" d="M163.4,33.2c-3.5,0.1-6.4-2.7-6.2-5.7c0.2-3.3,2.2-5.2,5.5-5.5c3-0.2,5.9,2.7,5.7,5.7
				C168.2,31,166.1,32.7,163.4,33.2z"/>
			<path class="st1" d="M331.8,427.7c3,0,5.9,2.8,5.6,5.8c-0.3,3.3-2.2,5.2-5.5,5.4c-3,0.2-5.8-2.7-5.7-5.8
				C326.3,430.3,329,427.7,331.8,427.7L331.8,427.7z"/>
			<path class="st1" d="M382.6,365.9c0,4.6-0.1,9.2,0,13.9c0.1,2.2-0.4,3-2.8,3c-9.4-0.1-18.8-0.1-28.2,0c-2.1,0-3-0.4-3-2.8
				c0.1-9.4,0.1-18.8,0-28.2c0-2.1,0.4-3,2.8-3c9.4,0.1,18.8,0.2,28.2,0c2.7-0.1,3,1,2.9,3.3C382.5,356.6,382.6,361.2,382.6,365.9
				L382.6,365.9z"/>
			<path class="st1" d="M128.3,292.4c4.2,0,6.3,2.1,6.3,6.2c0,5.1,0,4.6-6.6,5.2c-6.4,0.6-4.2-3.6-4.7-6.7
				C122.3,291.8,125.6,292.1,128.3,292.4z"/>
			<path class="st1" d="M66.6,152.7c-0.5,0.8,1.9,3.7-0.8,4.3c-3.2,0.7-6.6,0-9.9,0c-0.1,0-0.2-0.2-0.2-0.3
				c-1-6.4-4.9-9.2-10.9-11.3c-1.8-0.6-0.8-6.5-0.3-9.8c0.2-1.8,2.7-0.6,4.1-0.9c1.3-0.2,2.6,0,3.9-0.1c1.9-0.1,2.9,0.1,3.4,2.5
				c0.7,3.7,2.9,7,6.7,7.8C67.1,145.8,67.6,148.2,66.6,152.7L66.6,152.7z"/>
			<path class="st1" d="M281.1,409.8c0,4.5-2.1,6.7-6.3,6.7c-5,0-4.6,0-5.1-6.7c-0.6-6.5,3.8-4.1,6.8-4.6
				C282,404.2,281.4,407.7,281.1,409.8L281.1,409.8z"/>
			<path class="st1" d="M61.4,33.2c3.7,0,7.5,0,11.3,0c9.2,0.1,16.7,7.5,16.9,16.7c0.1,7.6,0.1,15.3,0,23c-0.1,9-7.5,16.5-16.5,16.6
				c-7.8,0.1-15.6,0.1-23.4,0c-8.7-0.1-16.3-7.6-16.4-16.3c-0.1-7.9-0.2-15.9,0-23.8c0.2-8.7,7.7-16,16.5-16.2
				C53.6,33.1,57.5,33.2,61.4,33.2L61.4,33.2z"/>
			<path class="st1" d="M89.5,399.6c0,3.7,0,7.5,0,11.3c-0.1,9.2-7.5,16.7-16.8,16.8c-7.5,0.1-15,0.1-22.5,0
				c-9.5-0.1-17-7.5-17.1-17c-0.1-7.4-0.1-14.7,0-22.1c0.1-9.8,7.5-17.2,17.2-17.3c7.4-0.1,14.7-0.1,22.1,0
				c9.5,0.1,16.9,7.5,17.1,17C89.5,392.1,89.5,395.8,89.5,399.6L89.5,399.6z"/>
			<path class="st4" d="M399.5,33.2c3.7,0,7.5,0,11.3,0c9.2,0.1,16.7,7.5,16.9,16.7c0.1,7.6,0.1,15.3,0,23
				c-0.1,9-7.6,16.5-16.5,16.6c-7.8,0.1-15.6,0.1-23.4,0c-8.7-0.1-16.3-7.6-16.4-16.3c-0.1-7.9-0.2-15.9,0-23.8
				c0.2-8.7,7.7-16,16.5-16.2C391.7,33.1,395.6,33.2,399.5,33.2L399.5,33.2z"/>
			<path class="st1" d="M365.1,360.1c3.5-0.1,6.4,2.7,6.2,5.7c-0.2,3.3-2.2,5.2-5.5,5.5c-3,0.2-5.9-2.7-5.7-5.7
				C360.3,362.3,362.4,360.6,365.1,360.1L365.1,360.1z"/>
			<path class="st1" d="M61.3,78.3c-1.9,0-3.8,0-5.6,0c-6.5-0.2-11.1-4.8-11.3-11.3c-0.1-3.7-0.1-7.5,0-11.3
				c0.2-6.3,4.6-11,10.8-11.2c4-0.2,8.1-0.2,12.1,0c6.2,0.3,10.7,5,10.8,11.2c0.1,3.3,0,6.6,0,10c0,8.1-4.5,12.5-12.6,12.6
				C64.2,78.3,62.8,78.3,61.3,78.3L61.3,78.3z"/>
			<path class="st1" d="M78.2,399.6c0,1.9,0.1,3.8,0,5.6c-0.2,6.4-4.9,11-11.3,11.2c-3.7,0.1-7.5,0.1-11.3,0
				c-6.4-0.2-11-4.8-11.2-11.3c-0.1-3.7-0.1-7.5,0-11.3c0.2-6.4,4.8-11,11.3-11.2c3.3-0.1,6.6,0,10,0c8,0,12.5,4.6,12.5,12.7
				C78.2,396.7,78.2,398.2,78.2,399.6L78.2,399.6z"/>
			<path class="st1" d="M416.4,61.4c0,1.9,0.1,3.8,0,5.6c-0.2,6.5-4.8,11.1-11.3,11.2c-3.7,0.1-7.5,0.1-11.3,0
				c-6.3-0.2-11-4.7-11.2-10.9c-0.2-4-0.2-8.1,0-12.1c0.2-6,4.8-10.5,10.8-10.8c3.5-0.2,6.9,0,10.4,0c8,0,12.5,4.5,12.5,12.6
				C416.4,58.5,416.4,60,416.4,61.4z"/>
		</g>
	</g>
	<g id="Csxsgh.tif-2">
		<g>
			<path class="st5" d="M313.4,398.2c0-5.3-0.2-10.7,0.1-16c0.1-2.9-0.4-4.6-3.7-3.9c-0.4,0.1-0.8,0-1.3,0c-3.6-0.2-6.3-2.6-5.9-5.7
				c0.3-3.4,2.5-5.3,5.9-5.3c7.7,0,15.5-0.2,23.2,0.1c3.3,0.1,4.2-1,3.7-4c0-0.3,0-0.6,0-0.8c0.7-4.3,0-7.1-5.6-6.4
				c-3.1,0.4-5.3-2.1-5.3-5.3c0-3.4,2.2-5.7,5.6-5.4c3.6,0.3,5.2-0.7,6.2-4.3c1.4-4.6,5.3-6.6,10.1-6.7c3.5-0.1,8.1,1.5,10.1-0.6
				c2.2-2.3,0.6-6.9,0.6-10.5c0.1-6.3-0.1-12.6,0.1-18.9c0-2.2-0.5-3.1-2.8-2.8c-1,0.1-2,0.1-2.9,0c-3.2-0.4-5.2-2.3-5.2-5.5
				c0.1-3.2,2.1-5.1,5.3-5.4c1.1-0.1,2.3-0.1,3.4,0c1.6,0.1,2.4-0.4,2.2-2.1c-0.1-0.6,0-1.1,0-1.7c0.1-4.5,1.9-7.1,5.3-7.2
				c3.5-0.1,5.8,2.6,5.6,7.3c-0.1,2.8,0.5,3.8,3.6,3.7c7.9-0.2,7.9,0,7.5-8.6c-0.1-1.7-0.3-2.6-2.3-2.4c-1.2,0.1-2.5,0.1-3.8,0
				c-2.5-0.3-4.1-1.9-4.7-4.2c-0.7-2.4,0.4-4.4,2.5-5.8c7-4.7,18.7,1.1,19.2,9.5c0.2,2.8,0.2,5.6,0,8.4c-0.1,2.2,0.3,3.1,2.9,3.1
				c8.1,0,8.1,0.2,8.1-8c0-8.7,1.3-10.8,9.6-13.9c1.3-0.5,1.3-1.1,1.3-2c0-2.7,0-5.3,0-8c0-6.3,2.7-10.1,8.7-11.7
				c2-0.5,2.5-1.2,2.3-3c-0.1-1-0.1-2,0-2.9c0.4-3.2,2.3-5.3,5.5-5.2c3.2,0,5.3,2.1,5.3,5.3c0.2,5.8,0.3,11.5,0,17.3
				c-0.3,4.7-2.8,8.2-7.5,9.5c-2.1,0.6-3.5,1.3-4,3.7c-0.8,4.1-3.7,6.6-7.7,7.4c-2.3,0.5-2.9,1.4-2.7,3.6c0.2,2.4,0.1,4.8,0,7.2
				c-0.1,7.1-4.5,11.5-11.5,11.6c-9.7,0.1-19.4,0.1-29.1,0c-2.6,0-3.3,0.6-3.3,3.2c0.2,9,0.1,18,0,26.9c0,2.2,0.6,3,2.8,2.8
				c2.7-0.2,5.3-0.1,8,0c6.5,0.1,11,4.6,11.1,11.1c0.1,2.7,0.2,5.3,0,8c-0.2,2.2,0.6,2.9,2.8,2.8c5.5-0.2,11-0.2,16.4,0
				c2.2,0.1,3.1-0.6,2.8-2.8c-0.1-1-0.1-2,0-2.9c0.4-3.2,2.3-5.2,5.5-5.2c3,0,5.2,2,5.3,4.9c0.2,6.2,0.4,12.4-0.1,18.5
				c-0.4,4.3-3,7.7-7.4,8.6c-3,0.6-3.4,2.1-3.4,4.8c0.2,6.8,0.1,6.8,7.1,6.8c2,0,4-0.2,5.9,0.2c5,0.9,8.8,5.1,8.9,10.3
				c0.2,9.1,0.1,18.3,0,27.4c0,3.6-2.5,6.3-5.6,5.9c-3.4-0.3-5.2-2.5-5.3-5.9c-0.1-4.5-0.1-9,0-13.5c0-1.6-0.3-2.3-2.1-2.7
				c-4.7-0.9-7.7-4-8.6-8.6c-0.4-1.8-1.2-2-2.6-2.3c-4.3-1.1-7.3-3.8-8.2-8.1c-0.5-2.4-1.5-2.9-3.6-2.6c-0.7,0.1-1.4,0.1-2.1,0
				c-3.3-0.3-5.8-0.4-6.7,4.2c-1,4.6-5.3,6.6-10,6.7c-6.3,0.1-12.6,0.1-18.9,0c-2.2-0.1-3.1,0.6-2.8,2.8c0.1,0.8,0.1,1.7,0,2.5
				c-0.3,3.3-0.3,5.8,4.2,6.7c5,1.1,7.7,7.2,6.6,12.1c-1.3,5.5-6.2,9.1-11.7,8.7c-5.4-0.5-9.8-4.7-9.9-10.2
				c-0.2-6.4-0.2-12.9,0-19.4c0.1-2.4-0.3-3.5-3.1-3.3c-5.2,0.3-10.4,0.2-15.6,0c-2.5-0.1-3.5,0.4-3.3,3.2c0.3,4.2,0.1,8.4,0.1,12.6
				c-0.1,3.7-2.4,6.2-5.5,6.2c-3.1,0-5.4-2.5-5.4-6.2C313.4,410,313.4,404.1,313.4,398.2L313.4,398.2z"/>
			<path class="st5" d="M116.3,257.8c0-1.3,0-2.5,0-3.8c0-6.3,0-6.2-5.9-7.2c-3-0.5-4.9-2.3-5-5.3c-0.1-2.9,1.7-4.8,4.4-5.4
				c8.4-2.1,14.5,1.1,17.3,9.4c0.7,2,1.8,1.4,2.8,1.4c4.3,0.1,8.7,0,13.1,0c3.7,0.1,6.2,2.4,6.2,5.5c0,3.1-2.5,5.4-6.2,5.4
				c-3.9,0.1-7.9,0.2-11.8,0c-3-0.2-4.6,0.4-3.9,3.8c0.1,0.7,0.1,1.4,0,2.1c-0.4,3.1-0.1,5.3,3.9,6.1c3.9,0.7,6,4,6.8,7.8
				c0.4,1.7,1,2,2.5,2.5c6,1.7,8.6,5.4,8.7,11.7c0,3.1,0,6.2,0,9.3c-0.1,5.9-2.7,9.6-8.2,11.2c-2.1,0.6-2.8,1.2-2.8,3.5
				c0,8.4,1.1,9.3,9.5,8c1.3-0.2,1.3-0.8,1.7-1.8c2.5-7.8,9.6-11.4,17.6-9c2.6,0.8,4.4,2.7,4.1,5.6c-0.3,3-2.2,5.3-5.2,5
				c-4.2-0.4-5.8,1.1-7.1,5.1c-1.2,3.8-4.8,5.6-8.9,6c-1.4,0.1-2.8,0-4.2,0c-7.5,0-7.2,0-7.6,7.3c-0.2,3.5,1.2,3.8,4,3.7
				c4.3-0.2,7,2.1,7,5.4c0,3.3-2.7,5.6-7,5.4c-2.6-0.1-3.8,0.4-4.5,3.2c-1.4,5.5-6.5,8.5-11.8,7.8c-5.5-0.7-9.3-5.3-9.5-11.1
				c-0.1-3.5,1.5-8.1-0.6-10.1c-2.3-2.1-6.9-0.5-10.6-0.6c-1.7-0.1-3.4,0.1-5.1,0c-3.5-0.2-5.6-2.1-5.6-5.6c0-3.2,2.2-5.5,5.4-5.2
				c4,0.3,5.6-1.2,6.7-4.9c1.2-3.8,4.8-5.7,8.8-6.2c1.2-0.1,2.5,0,3.8,0c8.7,0,8.7,0,8.1-8.8c-0.1-1.5-0.4-1.9-2-2.4
				c-6.5-1.8-9-5.4-9-12.3c0-5.8-0.2-11.5,0.1-17.3c0.1-2.7-0.8-3.3-3.3-3.2c-4.1,0.2-8.1,0.1-12.2,0c-4-0.1-6.5-2.4-6.4-5.6
				c0.1-3.1,2.6-5.3,6.3-5.3c4.3-0.1,8.7-0.1,13.1,0c2.1,0.1,2.7-0.6,2.5-2.6C116.2,263.4,116.3,260.6,116.3,257.8L116.3,257.8z"/>
			<path class="st5" d="M83.5,146.2c0,7.6,0,15.2,0,22.7c0,6.6-2.5,10.2-8.8,12c-1.7,0.5-2.3,1.1-2.1,2.7c0.1,1,0.1,2,0,2.9
				c-0.3,3.4-2.2,5.6-5.7,5.5c-3.2-0.1-4.9-2.2-5.3-5.5c-0.3-1.8,1.3-4.6-0.9-5.2c-2.9-0.7-6.1-0.3-9.2-0.1
				c-1.3,0.1-0.7,1.6-0.8,2.5c0,4.3,0,8.7,0,13c-0.1,3.7-2.3,6.2-5.4,6.2c-3.1,0-5.4-2.5-5.5-6.1c-0.1-4.3-0.2-8.7,0-13
				c0.1-2.3-0.6-2.8-2.8-2.8c-5.6,0-8.3-1.9-8.2-5.5c0.1-3.5,2.5-5.2,8.4-5.3c2,0,2.9-0.5,2.6-2.6c-0.1-0.8-0.1-1.7,0-2.5
				c0.5-4.2-0.1-6.8-5.5-6.1c-3.1,0.4-5.3-2-5.4-5.2c-0.1-3.4,2.1-5.3,5.5-5.6c1.7-0.2,4.6,0.9,5-0.6c0.8-3,0.3-6.4,0.2-9.6
				c0-0.8-1-0.7-1.7-0.7c-1.1,0-2.2,0-3.4,0c-3.4-0.2-5.7-2.1-5.7-5.5s2.2-5.4,5.7-5.4c8.6-0.1,17.1,0,25.7,0c2.4,0,4.8-0.2,7.1,0
				c3.9,0.4,5.9-0.4,5.3-5c-0.4-3.6,2.4-6.1,5.5-6c3.1,0.1,5.3,2.6,5.3,6.3C83.5,130,83.5,138.1,83.5,146.2L83.5,146.2z"/>
			<path class="st5" d="M180.1,389.2c-1,0-2,0.1-2.9,0c-3.7-0.4-6,0.1-7.3,4.6c-1.7,5.9-12.2,8.8-17.7,5.6c-2.1-1.2-3.4-3.1-2.8-5.6
				c0.6-2.7,2.4-4.8,5.3-4.5c4,0.5,5.7-1,6.8-4.8c0.9-3.3,3.8-5.2,7.1-5.9c2.3-0.4,3-1.4,2.7-3.6c-0.1-0.8-0.1-1.7,0-2.5
				c0.6-3.4-0.5-5.1-4.2-6.3c-6.3-1.9-9.3-12.1-6-17.9c1.2-2.2,3.1-3.4,5.6-2.9c2.7,0.6,4.9,2.4,4.5,5.2c-0.8,5.5,1.9,5.8,6.3,5.8
				c4.2,0,5.4-1.2,4.8-5.1c-0.2-1.1-0.2-2.3,0-3.4c0.4-2.4-0.8-2.9-2.9-2.7c-1.1,0.1-2.3,0.2-3.4-0.1c-2.9-0.6-4.8-2.5-4.7-5.6
				c0.1-2.9,1.9-4.6,4.6-5.2c1.2-0.3,2.5-0.2,3.8-0.1c2.1,0.3,2.6-0.7,2.5-2.6c-0.1-2.8-0.1-5.6,0-8.4c0.2-6.3,4.7-10.7,11-10.9
				c3.5-0.1,7-0.1,10.5,0c5.6,0.1,9.3,2.7,10.8,8.1c0.6,2.3,1.4,3.3,3.8,2.9c1.1-0.2,2.3-0.2,3.4,0c2.9,0.4,4.3-0.5,5.1-3.6
				c1.2-4.7,5.1-7.3,10-7.4c5.3-0.1,10.7-0.1,16,0c3.6,0.1,6.3,2.5,6,5.6c-0.3,3.4-2.4,5.5-5.9,5.2c-3.3-0.2-5.2,0.3-6,4.1
				c-0.7,3.7-3.9,5.9-7.5,6.5c-2.1,0.4-2.8,1.2-2.5,3.2c0.1,0.8,0.1,1.7,0,2.5c-0.3,3.4-2.2,5.6-5.6,5.5c-3.2-0.1-5.6-2.3-5.1-5.4
				c0.8-5.5-2-5.7-6.1-5.5c-2.9,0.2-5.8,0.5-8.7-0.6c-3.8-1.4-6.1-4.1-6.9-7.8c-0.5-2.3-1.4-2.5-3.3-2.5c-8.7-0.1-8.7-0.1-8.1,8.9
				c0.1,1.6,0.5,2.3,2.1,2.1c1.1-0.1,2.2-0.1,3.4,0c3.2,0.3,5.3,2.1,5.4,5.3c0.1,3.4-2.2,5.9-5.5,5.5c-5-0.6-5.8,1.5-5.4,5.8
				c0.3,2.9,0.5,5.8-0.5,8.7c-1,3-2.8,5.8-5.6,6.3c-4.6,0.9-4.8,3.4-4.8,7.2c-0.1,3.8,0.5,5.5,4.9,5.1c3.6-0.4,6.2,2.2,6.2,5.3
				c0,3.1-2.5,5.4-6.1,5.5C184.5,389.2,182.3,389.2,180.1,389.2L180.1,389.2z"/>
			<path class="st5" d="M240.1,433c-6,0-12.1,0-18.1,0c-4.4,0-7-2-7.1-5.4c-0.1-3.3,2.7-6,6.9-5.4c4.7,0.6,4-2.2,4-5
				c0-6.1,0-6.1-6.1-6.1c-2.5,0-5.1,0.2-7.5-0.4c-7.2-1.7-11.2-12.1-7.5-18.6c1.2-2.1,3.1-3.4,5.6-2.8c2.7,0.6,4.9,2.5,4.5,5.3
				c-0.8,5.6,2,5.8,6.4,5.7c3.6-0.1,5.1-0.7,4.8-4.7c-0.4-5.4-0.1-10.9-0.1-16.4c0-7.5,4.5-11.8,12.1-11.9c1.5,0,3.1-0.1,4.6,0.1
				c3.2,0.4,5.2,2.3,5.1,5.6c-0.1,3-2,4.8-5,5.3c-1.2,0.2-2.5,0.1-3.8,0c-1.7-0.2-2.2,0.5-2.1,2.1c0.1,2.2,0.1,4.5,0,6.7
				c-0.1,1.7,0.5,2.3,2.1,2.1c1.1-0.1,2.2-0.1,3.4,0c3.2,0.3,5.3,2.1,5.4,5.3c0,3.4-2.2,5.9-5.5,5.5c-5-0.6-5.7,1.5-5.4,5.8
				c0.4,4.6,0.2,9.3,0,13.9c0,1.8,0.4,2.5,2.3,2.4c5.8-0.1,11.5-0.2,17.3,0c2.3,0.1,2.4-1,2.4-2.8c-0.1-6,0-12.1,0-18.1
				c0-6.3,2.7-10.3,8.6-11.7c2.4-0.6,2.4-1.6,2.4-3.3c0-1.3-0.2-2.6,0.2-3.8c0.9-2.6,2.7-4.4,5.6-4.1c3,0.3,5.2,2.2,5,5.2
				c-0.3,3.9,0.6,5.9,4.7,6.8c3.4,0.8,5.4,4,6.1,7.4c0.4,2,1,2.6,2.9,2.4c0.8-0.1,1.7-0.1,2.5,0c3.5,0.2,5.7,2,5.7,5.4
				c0,3.4-2.2,5.6-5.6,5.4c-3.5-0.2-5.2,0.6-6.2,4.3c-1.2,4.2-4.9,6.3-9.3,6.7c-1.5,0.1-3.1,0.1-4.6,0c-3.9-0.2-7.2-0.6-8.4,4.9
				c-0.9,4.1-5.2,6-9.6,6C252.4,433.1,246.2,433,240.1,433L240.1,433z"/>
			<path class="st5" d="M291.5,71.8c0,1.1,0,2.2,0,3.4c-0.1,4.1-1,8,5.2,9.1c3.7,0.7,5.3,4.7,5.7,8.5c0.2,1.5,0.1,3.1,0,4.6
				c-0.3,4.1-0.6,8,5.2,8.6c1.3,0.1,3.1,1.6,3.4,2.9c1.4,4.9,5.1,6.9,9.2,9.2c4.2,2.4,5.8,11.7,3.6,16.1c-1.1,2.2-2.9,3.5-5.4,3.2
				c-2.6-0.3-4.3-2-4.8-4.6c-0.3-1.2-0.2-2.5-0.1-3.8c0.2-2.1-0.6-2.6-2.6-2.6c-6.2,0.1-12.4,0.1-18.5,0c-6,0-9.9-2.8-11.5-8.4
				c-0.5-1.7-0.9-2.3-2.7-2.8c-7.2-2-11.2-11-8.1-18c1-2.4,3-3.9,5.7-3.5c3,0.5,4.5,2.4,4.9,5.5c0.2,1.8-1.3,4.6,0.9,5.2
				c2.9,0.8,6.1,0.2,9.2,0.1c0.8,0,0.8-1,0.8-1.7c0-1.7-0.2-3.4,0-5c0.3-2.7-0.3-4.2-3.3-4.8c-4.1-0.8-6.5-3.9-7.3-7.8
				c-0.5-2.2-1.3-2.7-3.2-2.5c-1.1,0.1-2.3,0.2-3.4,0c-3.7-0.6-5.1,0.7-4.8,4.6c0.3,3.7-2.1,6.2-5.2,6.3c-3.3,0.1-5.5-2.5-5.6-6.4
				c0-1.4,0-2.8,0-4.2c0.1-6.6,4.6-11.1,11-11.2c3.5-0.1,8,1.1,10.1-0.6c2.2-1.8,0.6-6.6,0.7-10c0.1-1.9,0.5-3.6,1.2-5.3
				c1.9-4.1,7.2-4.2,9.3-6.8c2.2-2.8,2.7-7.1,6.6-9c1.5-0.7,3.1-1.2,4.9-1.2c5.1,0.1,10.1,0,15.2,0c4.1,0,6.6,2.1,6.7,5.3
				c0.1,3.4-2.6,5.5-6.9,5.6c-2.1,0-4.2,0-6.3,0c-4.5-0.1-9.4-1.3-10.5,5.7c-0.4,2.4-3,4.2-5.6,4.5c-3.2,0.5-3.9,2.2-3.6,5
				C291.7,67.2,291.5,69.5,291.5,71.8L291.5,71.8z"/>
			<path class="st5" d="M105.4,67.4c-0.4,5.6,0.8,12.1-1.5,18.6c-3.8,10.5-13.9,18.3-25.1,18.5c-7.7,0.1-15.4,0.1-23.2,0
				c-14.5-0.2-26.6-12.4-26.8-27c-0.1-7.6-0.1-15.2,0-22.7C28.9,40.2,41,28.1,55.6,27.9c7.7-0.1,15.4-0.1,23.2,0
				c14.3,0.3,26.3,12.4,26.6,26.7C105.4,58.6,105.3,62.5,105.4,67.4L105.4,67.4z"/>
			<path class="st5" d="M105.4,395.8c-0.5,5.5,0.8,12.1-1.5,18.6c-3.8,10.6-13.8,18.4-25,18.6c-7.9,0.1-15.7,0.2-23.6,0
				c-14.1-0.3-26.2-12.3-26.5-26.4c-0.2-7.9-0.2-15.7,0-23.6c0.3-14.3,12.4-26.4,26.7-26.6c7.7-0.1,15.4-0.1,23.2,0
				c14.3,0.2,26.4,12.3,26.7,26.6C105.4,386.9,105.4,390.9,105.4,395.8z"/>
			<path class="st5" d="M395.3,104.3c-5.1,0-10.2,0.6-15.1-0.1c-13.2-2-22.9-13.6-23-27.1c-0.1-7.3-0.1-14.6,0-21.9
				c0.2-15,12.3-27.1,27.4-27.3c7.3-0.1,14.6-0.1,21.9,0c15.1,0.1,27.2,12.2,27.4,27.3c0.1,7.4,0.1,14.9,0,22.3
				c-0.2,14.8-12.3,26.8-27.1,27c-3.8,0.1-7.6,0-11.4,0L395.3,104.3L395.3,104.3z"/>
			<path class="st5" d="M412,212.3c0-5.9-0.1-11.8,0-17.7c0-2-0.5-2.5-2.6-2.6c-8.4-0.3-8.4-0.4-8.4,8.1c0,4.6,0.1,9.3,0,13.9
				c-0.2,6.3-4.6,10.7-10.9,11c-2,0.1-3.9,0.2-5.9-0.1c-3-0.4-4.9-2.2-5-5.2c-0.1-3.3,1.9-5.2,5.1-5.6c5.8-0.8,5.8-0.8,5.8-6.5
				c0-3.7-0.2-7.3,0.1-10.9c0.3-3.5-0.4-4.9-4.4-4.6c-5.6,0.4-11.2,0.1-16.8,0.1c-6.4-0.1-11.1-3.9-11.7-9.7
				c-0.6-5.7,3.2-10.9,8.9-12c5.5-1.1,11,2.3,12.6,8.4c0.6,2.1,1.3,2.5,3.3,2.5c5.3-0.1,10.7-0.1,16,0c2.3,0.1,3.4-0.4,3-2.9
				c-0.1-0.8-0.1-1.7,0-2.5c0.3-3.2,2.1-5.4,5.3-5.4c3.4-0.1,5.7,2.1,5.6,5.5c-0.1,3.6,0.5,5.6,4.6,6.5c3.4,0.7,5.5,3.9,6.1,7.4
				c0.4,2.3,1.4,2.7,3.3,2.5c0.8-0.1,1.7-0.1,2.5,0c3.2,0.3,5.3,2.1,5.4,5.3c0.1,3.4-2.1,5.3-5.5,5.7c-1.7,0.2-4.6-0.9-5,0.6
				c-0.8,3-0.3,6.4-0.3,9.6c0,0.9,1,0.7,1.7,0.7c1.3,0,2.5-0.1,3.8,0c3.2,0.3,5.3,2.2,5.3,5.4c0,3.2-2.1,5.7-5.2,5.3
				c-4.9-0.5-6.1,1.3-5.8,5.9c0.2,3.1-2.2,5.2-5.5,5.1c-3.2-0.1-5.2-2.2-5.3-5.4C411.8,224.4,412,218.4,412,212.3L412,212.3
				L412,212.3z"/>
			<g>
				<path class="st6" d="M260.2,181.6c24.3-0.8,47.7,19.9,47.8,48c0,26.5-21.7,48.1-48.1,48c-26.5,0-47.7-21.5-48-48
					C211.5,202.9,234.8,180.5,260.2,181.6L260.2,181.6z"/>
				<path class="st6" d="M166.2,234.4c0-17.4,0.1-34.8-0.1-52.2c0-3.7,1.1-4.5,4.5-4.3c4.3,0.3,8.7,0.3,13,0c3-0.2,3.4,0.9,3.4,3.6
					c-0.1,40-0.1,71.8,0,105.7c0,3.1-0.9,3.7-3.8,3.6c-4.5-0.2-9-0.3-13.5,0c-3.1,0.2-3.6-1-3.6-3.8
					C166.2,269.5,166.2,252,166.2,234.4L166.2,234.4z"/>
			</g>
			<path class="st5" d="M209,148.3c-6.9,0-13.8,0-20.6,0c-3.7,0-6.2-2.2-6.3-5.3c-0.1-3.3,2.5-5.9,6.4-5.5c4.1,0.4,4.7-1.3,4.6-4.9
				c-0.3-6.2-0.1-6.1-6.1-6.2c-2.9-0.1-5.1-0.1-5.8,3.8c-0.7,3.9-3.9,6.2-7.7,6.9c-2.4,0.4-2.5,1.5-2.4,3.3c0.1,1.1,0.2,2.3-0.1,3.4
				c-0.6,2.7-2.4,4.5-5.3,4.6c-2.9,0.1-4.8-1.7-5.5-4.4c-2.1-8.3,1.2-14.6,9.3-17.4c1.2-0.4,1.6-0.8,1.5-1.9c0-0.4,0-0.8,0-1.3
				c0.2-8.3-1.1-9.3-9.4-7.9c-1.3,0.2-1.6,0.7-1.6,1.8c0.1,1.4,0.2,2.8-0.1,4.2c-0.5,3-2.3,4.8-5.4,4.9c-2.9,0.1-4.7-1.7-5.4-4.4
				c-2-8.5,1.1-14.3,9.4-17.3c1.3-0.5,1.4-1,1.4-2c0-1.3-0.1-2.5,0-3.8c0.4-3.2,2.3-5.2,5.5-5.2c3.2,0.1,5.5,2.2,5.3,5.3
				c-0.3,4,1.1,5.7,4.9,6.7c3.2,0.9,5.3,3.8,5.8,7.2c0.4,2.4,1.5,2.8,3.6,2.6c2.4-0.2,4.8-0.1,7.2,0c6.8,0.1,11.3,4.4,11.6,11.2
				c0.1,3.5-1.5,8.1,0.6,10.1c2.3,2.1,6.9,0.5,10.6,0.6c4.5,0.1,9,0,13.5,0c5.4,0,8.3,1.9,8.2,5.6c-0.1,3.6-2.8,5.4-8,5.4
				C222.2,148.3,215.6,148.3,209,148.3L209,148.3z"/>
			<path class="st5" d="M203.9,71.7c-1.4,0-2.8,0-4.2,0c-6.7,0-6.5,0-6.8,6.8c-0.2,3.6,1,4.5,4.4,4.2c4-0.3,6.6,2.1,6.7,5.3
				c0,3.3-2.6,5.8-6.5,5.4c-3.8-0.3-4.8,0.9-4.5,4.5c0.3,3.9-2.3,6.6-5.5,6.5c-3.2-0.1-5.3-2.6-5.4-6.7c0-4.1-0.1-8.1,0-12.2
				c0-1.8-0.1-2.9-2.4-3.3c-4.3-0.8-7.3-3.7-8.2-8.1c-0.5-2.4-1.5-2.9-3.6-2.6c-0.8,0.1-1.7,0.1-2.5,0c-3.2-0.5-5.2-2.3-5.1-5.6
				c0.1-3,2-4.8,5-5.3c1.2-0.2,2.5-0.1,3.8,0c1.7,0.2,2.3-0.5,2.1-2.1c-0.1-1,0-2,0-2.9c0.1-3.5,2-5.7,5.4-5.8
				c3.4-0.1,5.8,2.2,5.4,5.6c-0.6,5,1.6,5.5,5.8,5.4c8.7-0.3,17.4-0.1,26.1-0.1c6.3,0,10.2,2.7,11.7,8.6c0.5,1.9,1.1,2.5,3,2.4
				c1.5-0.1,3.2-0.2,4.6,0.3c2.5,1,4.2,3,3.6,5.9c-0.5,2.7-2.4,4.8-5.2,4.5c-4.4-0.4-6.3,0.6-5.8,5.5c0.4,3.4-2.1,5.6-5.5,5.5
				c-3.4-0.1-5.3-2.4-5.3-5.8c-0.1-4.3-0.2-8.7,0-13.1c0.1-2.5-0.7-3.1-3.1-3C209.2,71.8,206.5,71.7,203.9,71.7L203.9,71.7z"/>
			<path class="st5" d="M357.2,259.5c0,3.2,0.1,6.4,0,9.7c-0.3,5.7-4.5,10-10,10.5c-5.5,0.5-10.5-3.3-11.7-8.7
				c-1.2-5.3,1.9-11.1,7.4-12.4c5.4-1.2,2.8-5,3.4-7.7c0.6-2.8-0.6-3.9-3.4-4.7c-6.8-2.1-10.3-11.9-6.8-18.2
				c1.3-2.3,3.4-3.6,5.9-2.8c2.6,0.7,4.6,2.7,4.2,5.5c-0.8,5.1,1.7,5.5,5.8,5.3c8.7-0.3,17.4-0.1,26.1-0.1c6.3,0,10.1,2.7,11.7,8.6
				c0.5,1.9,1.3,2.2,2.9,2.6c7.1,2.1,11.1,11.3,7.9,18.2c-1.1,2.4-3,3.8-5.7,3.3c-2.7-0.5-4.9-2.3-4.6-5.1c0.5-4.2-1-6-5.1-7
				c-3.3-0.8-5-4-5.7-7.2c-0.4-1.8-0.8-2.5-2.8-2.5c-5.6,0.2-11.2,0.1-16.8,0c-2,0-2.7,0.6-2.6,2.6
				C357.3,252.8,357.2,256.1,357.2,259.5L357.2,259.5z"/>
			<path class="st5" d="M123.9,159.3c-2.7,0-5.3,0.1-8,0c-4.7-0.3-8.4-2.5-9.7-7.3c-0.8-3.2-2.3-4.1-5.4-3.7
				c-2.6,0.4-4.6-0.9-5.8-3.2c-1-2-0.6-3.8,0.7-5.5c1.4-1.8,3.4-2.5,5.6-2.2c3.7,0.6,4.7-1,4.1-4.3c-0.1-0.7-0.1-1.4,0-2.1
				c0.5-3.4-0.3-5.1-4.3-4.7c-4,0.4-6.6-2.1-6.6-5.3c0-3.2,2.6-5.5,6.6-5.5c4.2-0.1,8.4-0.1,12.6,0c2.3,0.1,2.8-0.7,2.8-2.8
				c-0.2-4.1-0.1-8.1,0-12.2c0-4.3,2.2-7,5.6-6.9c3.2,0.1,5.5,2.6,5.3,6.7c-0.1,2.9,0.7,4.2,3.6,5c5.2,1.5,8.1,6.5,7.3,11.7
				c-0.7,5.1-5,9-10.3,9.3c-2.7,0.1-5.3,0.2-8,0c-2.5-0.2-3.7,0.3-3.6,3.3c0.3,5.2,0.3,10.4,0,15.6c-0.1,2.8,0.9,3.3,3.3,3.1
				c4.1-0.2,8.1-0.1,12.2,0c4,0.1,6.5,2.4,6.4,5.6c-0.1,3.1-2.6,5.2-6.3,5.3C129.2,159.3,126.5,159.3,123.9,159.3L123.9,159.3
				L123.9,159.3z"/>
			<path class="st5" d="M138.2,46.1c0,4.1,0.1,8.1,0,12.2c0,1.6,0.3,2.3,2.1,2.7c4.7,1,7.7,4,8.6,8.6c0.4,1.9,1,2.3,2.7,2.1
				c1-0.1,2-0.1,2.9,0c3.2,0.3,5.4,2,5.5,5.3c0.1,3.4-2.1,6-5.5,5.5c-5.5-0.8-5.7,2.1-5.4,6.1c0.2,3.2,0.1,6.4,0,9.7
				c-0.1,3.7-2.3,6.2-5.4,6.2c-3.1,0-5.8-2.5-5.4-6.1c0.4-4.2-1-5.2-5-4.9c-3.6,0.3-6.1-2.4-6.1-5.5c0.1-3.1,2.6-5.1,6.3-5.4
				c1.5-0.1,4.1,1,4.4-0.8c0.6-3.1,0.2-6.4-0.1-9.6c-0.1-0.8-1.5-0.5-2.3-0.5c-2.7,0-5.3,0-8,0c-5.9-0.1-10.4-3.8-11.3-9.2
				c-0.9-5.4,2.3-10.7,8-12.1c2.8-0.7,3-2,2.9-4.2c-0.1-4.1-0.1-8.1,0-12.2c0.1-3.6,2.5-6.3,5.6-6c3.4,0.3,5.2,2.4,5.3,5.9
				C138.3,37.9,138.2,42,138.2,46.1L138.2,46.1z"/>
			<path class="st5" d="M335.3,191.5c0.4,3.4-1.8,8.7,0.8,11c2.2,2,7.5,0.6,11.4,0.6c8.3,0,16.5,0,24.8,0c4.1,0,6.6,2.1,6.8,5.3
				c0.1,3.4-2.6,5.8-6.8,5.6c-2.7-0.1-4.1,0.5-4.8,3.4c-1.3,4.9-5.4,7.6-10.3,7.6c-4.8,0-9-2.7-10.2-7.7c-0.8-3-2.2-3.5-4.8-3.3
				c-14.2,1.1-18.7-3.2-17.8-17.6c0.2-2.5,0-5,0-7.6c0-2.2,0.7-4.8-0.2-6.7c-1.1-2.3-4-0.6-6-1.1c-2.4-0.6-4-2-4.6-4.4
				c-0.6-2.5,0.5-4.4,2.6-5.7c7.5-4.7,18.8,1.3,19.1,10.1C335.4,184.4,335.3,187.6,335.3,191.5L335.3,191.5z"/>
			<path class="st7" d="M107,214c-2.2,0-4.5,0.1-6.7,0c-3.5-0.1-5.7-2-5.7-5.4c-0.1-3.4,2.2-5.2,5.6-5.6c1.7-0.2,4.6,0.9,5-0.7
				c0.7-3,0.4-6.4,0.1-9.6c-0.1-1.2-1.9-0.6-3-0.6c-1.9-0.1-3.9,0.2-5.6-1.2c-1.7-1.5-2.7-3.4-2-5.6c0.9-2.6,2.8-4.4,5.6-4.1
				c4.1,0.5,5.7-0.7,5.2-5.1c-0.4-3.4,1.8-5.5,5.2-5.9c3.1-0.3,5.9,2.4,5.5,5.9c-0.5,4.5,1.3,5.4,5.3,5.1c3.4-0.3,5.7,2,5.7,5.3
				c0,3.4-2.2,5.2-5.6,5.5c-1.7,0.2-4.6-0.9-5,0.7c-0.7,3-0.3,6.4-0.1,9.6c0.1,1,1.4,0.6,2.1,0.8c4.4,1.3,7.5,4,8.4,8.5
				c0.4,2,1.3,2.2,2.9,2.6c7.2,2.1,11.1,11.3,7.9,18.2c-1.1,2.4-3,3.8-5.7,3.3c-2.6-0.4-4.8-2.2-4.5-4.7c0.5-4.6-1.5-6.5-5.5-7.6
				c-2.5-0.7-4.4-3-4.7-5.5c-0.5-4-2.9-4.3-6-4C109.8,214.2,108.4,214,107,214L107,214z"/>
			<path class="st5" d="M39.7,283.3c0-4.1-0.1-8.1,0-12.2c0.1-1.9-0.6-2.6-2.4-2.3c-0.3,0-0.6,0-0.8,0c-5.1-0.1-7.8-2-7.8-5.6
				c0.1-3.5,2.7-5.3,8-5.3c1.8,0,2.8-0.1,3.3-2.4c0.9-4.5,3.9-7.5,8.4-8.3c2.2-0.4,2.3-1.3,2.2-3c-0.1-4.1-0.1-8.1,0-12.2
				c0-4.3,2.2-7,5.6-6.9c3.2,0.1,5.3,2.6,5.4,6.7c0,4.9,0.1,9.8,0,14.7c-0.1,5.7-2.9,9.7-8.4,11c-2.5,0.6-2.8,1.6-2.6,3.6
				c0.1,1,0.1,2,0,2.9c-0.4,3.1,0.3,4.8,3.9,5.7c4.6,1.1,7.2,5.6,7.1,10.2c-0.1,4.7-2.8,8.8-7.5,9.9c-3.2,0.8-3.6,2.3-3.5,5.1
				c0.1,4-2.2,6.6-5.4,6.6c-3.2,0-5.4-2.6-5.5-6.6C39.6,291.1,39.7,287.2,39.7,283.3L39.7,283.3z"/>
			<path class="st5" d="M264.1,148.3c-1.8,0-3.7-0.1-5.5,0c-1.7,0.1-3.3-0.4-4.9-1.1c-4.1-1.9-4.3-7-6.8-9.3
				c-2.7-2.4-7.4-2.8-9.2-6.9c-1.8-4-0.9-8.3-1-12.4c0-2.1-0.4-2.9-2.7-3.6c-7.2-1.9-11.1-11.3-7.8-18.1c1.1-2.4,3.1-3.8,5.7-3.3
				c2.7,0.5,4.8,2.4,4.6,5.2c-0.4,3.9,0.7,5.7,4.7,6.9c4.3,1.3,6.3,5.3,6.4,9.9c0.1,3.5-1.2,8.2,0.6,10.1c2.1,2.3,6.8,0.6,10.4,0.7
				c3.5,0.1,7,0,10.5,0c6.5,0.1,11.3,4.8,11.3,11c0,6.2-4.8,10.8-11.4,10.9C267.5,148.4,265.8,148.3,264.1,148.3L264.1,148.3z"/>
			<path class="st7" d="M357.2,156.1c0,2.8,0.1,5.6,0,8.4c-0.1,3.5-2,5.7-5.5,5.7c-3.4,0-5.8-2.3-5.3-5.7c0.7-5.2-1.9-5.7-5.9-5.2
				c-1.8,0.2-3.6,0.1-5.5,0c-5.5-0.2-9.9-4.2-10.6-9.5c-0.7-5.2,2.2-10.3,7.5-11.6c3.2-0.8,3.6-2.3,3.5-5.1c-0.2-4,2.2-6.6,5.4-6.6
				c3.2,0,5.6,2.6,5.4,6.6c-0.1,2.8,0.2,4.4,3.5,5.1c4.7,1.1,7.3,5,7.5,9.9C357.3,150.7,357.2,153.4,357.2,156.1L357.2,156.1z"/>
			<path class="st7" d="M206.2,49.8c-4.3,0-8.7,0.1-13.1,0c-6.5-0.1-11.2-4.9-11.1-11.2c0.1-6.1,4.8-10.6,11.1-10.7
				c3.4-0.1,6.7,0,10.1,0c5.8,0.1,9.6,2.7,11.1,8.3c0.6,2.1,1.3,3.1,3.5,2.7c0.8-0.1,1.7-0.1,2.5,0c3.2,0.4,5.3,2.2,5.3,5.4
				c0,3.2-2,5.1-5.3,5.5c-0.3,0-0.6,0-0.8,0C215.1,49.8,210.6,49.8,206.2,49.8L206.2,49.8z"/>
			<path class="st8" d="M397.3,312.6c4.1,0,8.1-0.1,12.2,0c2,0.1,2.8-0.6,2.5-2.6c-0.1-1-0.1-2,0-2.9c0.3-3.2,2.1-5.3,5.3-5.4
				c3.4-0.1,5.3,2.1,5.6,5.5c0.8,9.7-0.7,12.3-9.8,16.1c-1.3,0.6-1,1.4-1.3,2.2c-1.8,5.8-5.5,8.8-10.8,8.8c-5.2,0-9.1-3-10.7-8.8
				c-0.5-1.7-1-2.3-2.6-2.1c-1,0.1-2,0.1-2.9,0c-3.4-0.3-5.6-2.2-5.5-5.6c0.1-3.2,2.2-5.1,5.4-5.2
				C388.8,312.5,393,312.6,397.3,312.6L397.3,312.6z"/>
			<path class="st8" d="M77.8,235.9c3.1-0.1,5.9,2.4,5.5,6c-0.5,4.6,1.4,5.3,5.3,5c3.5-0.3,7-0.1,10.5,0c3.7,0.1,6.2,2.4,6.2,5.5
				c0,3.1-2.6,5.7-6.2,5.4c-4.3-0.4-5.1,1.2-4.9,5.1c0.3,3.6-2.5,6.2-5.6,6c-3.4-0.3-5.5-2.5-5.2-5.9c0.3-3.4-0.5-4.9-4.1-6
				c-6.5-2-9.6-12.4-6.1-18.2C74.4,237,76.1,236,77.8,235.9L77.8,235.9z"/>
			<path class="st8" d="M413.6,148.3c1.1,0,2.3-0.1,3.4,0c4.2,0.6,6.7-0.2,6-5.5c-0.4-3.1,2-5.3,5.2-5.4c3.4,0,5.3,2.1,5.6,5.6
				c0.8,9.6-0.6,12-9.9,16.1c-1.1,0.5-1.1,1.1-1.1,1.9c0,1.3,0.1,2.5,0,3.8c-0.3,3.2-2.2,5.3-5.4,5.3c-3.2,0-5.7-2.1-5.4-5.2
				c0.5-4.9-1.3-6.1-5.9-5.8c-3.1,0.2-5.2-2.2-5.1-5.4c0.1-3.2,2.2-5.1,5.4-5.3C408.9,148.2,411.3,148.3,413.6,148.3L413.6,148.3
				L413.6,148.3z"/>
			<path class="st8" d="M408.9,137.4c-2.7,0-5.3,0.1-8,0c-5.9-0.2-10.5-4.5-10.8-10.2c-0.4-5.6,3.4-10.5,8.9-11.6
				c5.3-1.1,10.8,2.1,12.3,7.6c0.8,3,2.3,3.4,4.9,3.3c4.1-0.1,6.6,2,6.8,5.3c0.1,3.4-2.6,5.6-6.9,5.6
				C413.7,137.4,411.3,137.4,408.9,137.4L408.9,137.4z"/>
			<path class="st8" d="M304.6,356.4c-7.7,0-10.8-2.1-12.9-9.2c-0.4-1.4-0.9-1.5-2.1-1.9c-7.6-2.3-11.7-10.9-8.6-18.1
				c1-2.4,2.9-3.9,5.6-3.5c2.8,0.4,5,2.2,4.8,4.9c-0.4,4.4,1.2,6.2,5.3,7.4c2.9,0.8,4.9,3.5,5.3,6.6c0.4,2.9,1.9,3.2,4.2,3
				c0.6-0.1,1.1,0,1.7,0c3.4,0.3,5.6,2.1,5.5,5.6c0,3.2-2.1,5-5.4,5.3C306.8,356.4,305.7,356.4,304.6,356.4L304.6,356.4z"/>
			<path class="st8" d="M149.2,197.8c0,3.2,0,6.4,0,9.7c-0.1,4-2.3,6.6-5.6,6.5c-3.1-0.1-5.5-2.6-5.3-6.3c0.3-3.7-0.8-5.2-4.7-4.7
				c-3.6,0.4-5.9-1.6-6.3-5.2c-0.3-3.2,2.4-5.9,6.4-5.5c4.1,0.4,4.8-1.2,4.6-4.8c-0.2-3.7,2.3-6.2,5.4-6.2s5.4,2.5,5.5,6.1
				C149.2,190.8,149.2,194.3,149.2,197.8L149.2,197.8z"/>
			<path class="st8" d="M61.6,318.1c0,3.4,0.1,6.7,0,10.1c-0.1,3.8-2.2,6.2-5.4,6.3c-3.1,0.1-5.8-2.4-5.5-6.1c0.3-4-0.8-5.4-4.9-5
				c-3.6,0.3-6.1-2.3-6.1-5.4c0-3.1,2.6-5.7,6.2-5.3c4.3,0.4,5.1-1.2,4.8-5.1c-0.3-3.6,2.5-6.2,5.6-5.9c3.4,0.3,5.2,2.4,5.3,5.9
				C61.6,311.1,61.5,314.6,61.6,318.1L61.6,318.1z"/>
			<path class="st9" d="M96.8,235.9c-8,0-10.9-1.9-13.2-9.3c-0.5-1.5-1.1-1.6-2.2-1.6c-1.4,0-2.8,0.2-4.2-0.1
				c-2.7-0.6-4.5-2.4-4.6-5.2c-0.1-2.9,1.7-4.8,4.3-5.5c8.2-2.2,14.7,1.2,17.4,9.2c0.5,1.5,1.1,1.6,2.3,1.6c1.3,0,2.5-0.1,3.8,0.1
				c3,0.5,4.9,2.2,5,5.3c0.1,3.2-1.9,5.1-5.1,5.6C99.1,236,97.9,235.9,96.8,235.9L96.8,235.9z"/>
			<path class="st8" d="M165.6,433c-3.5,0-7,0.1-10.5,0c-3.6-0.1-6.2-2.6-5.9-5.6c0.3-3.4,2.4-5.2,5.9-5.3c7-0.1,14-0.1,21,0
				c3.6,0,6.2,2.6,5.9,5.6c-0.3,3.4-2.4,5.2-5.9,5.3C172.6,433.1,169.1,433,165.6,433L165.6,433z"/>
			<path class="st10" d="M151.6,367.3c1.1,0,2.3-0.1,3.4,0c3.2,0.5,5.2,2.3,5.1,5.6c-0.1,3-2,4.8-5,5.3c-1.1,0.2-2.2,0.2-3.4,0
				c-2-0.2-2.6,0.5-2.6,2.5c-0.1,6-2,8.6-5.6,8.5c-3.7-0.2-5.3-2.8-5.3-8.8C138.2,371.3,142.3,367.3,151.6,367.3L151.6,367.3z"/>
			<path class="st10" d="M390.1,424.1c0-10.1,8.4-16.1,18-12.7c2.4,0.9,4,2.7,3.9,5.4c-0.2,2.9-1.9,4.6-4.6,5.2
				c-1.3,0.3-2.8,0.2-4.2,0.1c-1.6-0.1-2.3,0.5-2.1,2.1c0.1,0.7,0,1.4,0,2.1c-0.1,4.1-2.1,6.6-5.3,6.7c-3.4,0.1-5.6-2.5-5.7-6.8
				C390.1,425.5,390.1,424.8,390.1,424.1L390.1,424.1z"/>
			<path class="st10" d="M260.8,356.4c-10.2,0-16.1-8.1-12.9-17.9c0.8-2.4,2.6-4,5.3-4c2.9,0.1,4.6,1.8,5.3,4.5
				c0.3,1.1,0.1,2.2,0.1,3.3c0,1.7-0.3,3.1,2.4,3.1c6.1,0.1,8.6,1.9,8.5,5.5C269.5,354.7,266.8,356.4,260.8,356.4L260.8,356.4z"/>
			<path class="st10" d="M193,413.3c0,0.6,0,1.1,0,1.7c-0.1,4.4-2,7-5.4,7.1c-3.3,0.1-5.7-2.6-5.5-6.9c0.2-3.2-0.6-4.4-4-4.1
				c-4.3,0.3-7-2-7-5.4c0-3.3,2.7-5.4,7-5.5c8.8-0.1,12.8,2.1,14.5,8.2c0.4,1.6,0.4,3.3,0.6,4.9L193,413.3L193,413.3z"/>
			<path class="st11" d="M39.7,345.4c-2,0-3.9,0.2-5.9,0c-3.2-0.4-5.1-2.4-5-5.6c0.1-3,2-5,5-5.2c3.9-0.3,7.8-0.3,11.7,0
				c3.2,0.2,5.1,2.3,5,5.6c-0.1,3-2,4.9-5,5.2C43.6,345.6,41.6,345.4,39.7,345.4L39.7,345.4z"/>
			<path class="st11" d="M280.3,367.3c-1.8,0-3.7,0.2-5.4,0c-3.2-0.4-5.2-2.3-5.1-5.5c0-3,1.9-5.1,4.9-5.3c4-0.3,8.1-0.3,12.1,0
				c2.9,0.3,4.8,2.4,4.7,5.4c-0.1,3-1.9,4.9-4.9,5.3C284.5,367.5,282.4,367.3,280.3,367.3L280.3,367.3L280.3,367.3z"/>
			<path class="st11" d="M149.1,137.6c0,2,0.2,3.9-0.1,5.9c-0.4,3-2.3,4.8-5.4,4.8c-3,0-5.1-1.9-5.4-4.8c-0.3-4-0.3-8.1,0-12.1
				c0.2-3,2.3-4.8,5.3-4.8c3,0,5,1.9,5.4,4.8C149.4,133.4,149.1,135.5,149.1,137.6L149.1,137.6z"/>
			<path class="st11" d="M356.9,126.4c-1.7,0-3.4,0.1-5,0c-3.4-0.3-5.5-2.2-5.5-5.6c0.1-3.2,2.1-5.1,5.4-5.3c3.6-0.2,7.3-0.2,10.9,0
				c3.4,0.2,5.6,2.2,5.5,5.6c-0.1,3.2-2.1,5.1-5.4,5.3C360.8,126.6,358.8,126.4,356.9,126.4L356.9,126.4z"/>
			<path class="st11" d="M302.4,323.5c-1.8,0-3.6,0.1-5.4,0c-3.2-0.3-5.3-2.1-5.3-5.3c-0.1-3.2,1.9-5.3,5.1-5.5
				c3.9-0.3,7.8-0.3,11.7,0c3,0.2,4.9,2.2,4.9,5.2c0.1,3.2-1.9,5.2-5.1,5.5C306.3,323.7,304.3,323.5,302.4,323.5z"/>
			<path class="st11" d="M346.2,104.8c0,2,0.2,3.9-0.1,5.9c-0.5,2.9-2.4,4.8-5.4,4.8c-3,0-5.1-1.9-5.3-4.9c-0.3-4-0.3-8.1,0-12.1
				c0.2-3,2.3-4.8,5.4-4.8c3,0,4.9,1.9,5.3,4.9C346.4,100.6,346.2,102.7,346.2,104.8L346.2,104.8z"/>
			<path class="st11" d="M214.8,104.2c0,2,0.1,3.9,0,5.9c-0.3,3.2-2.1,5.2-5.3,5.3c-3.2,0.1-5.3-1.9-5.5-5.1
				c-0.3-3.7-0.2-7.5,0-11.3c0.2-3.2,2.1-5.3,5.3-5.3c3.4,0,5.3,2.1,5.5,5.5C214.9,100.9,214.8,102.6,214.8,104.2L214.8,104.2z"/>
			<path class="st11" d="M28.7,235.5c0-1.8-0.2-3.7,0-5.4c0.4-3,2.2-4.9,5.2-5c3.2-0.1,5.3,1.9,5.6,5c0.3,3.9,0.3,7.8,0,11.7
				c-0.2,3-2.2,4.9-5.2,5c-3.2,0.1-5.2-1.9-5.6-5C28.5,239.7,28.7,237.6,28.7,235.5L28.7,235.5z"/>
			<path class="st11" d="M138.4,400.2c2,0,3.9-0.2,5.9,0.1c3,0.5,4.8,2.4,4.8,5.4c0,3-1.9,5.1-4.8,5.3c-4,0.3-8.1,0.3-12.1,0
				c-3-0.2-4.8-2.3-4.8-5.4s1.9-4.9,4.8-5.4C134.2,400,136.3,400.2,138.4,400.2L138.4,400.2z"/>
			<path class="st11" d="M324.3,235.8c0,1.8,0.1,3.6,0,5.4c-0.2,3.4-2.1,5.6-5.6,5.5c-3.2,0-5.2-2.1-5.3-5.3
				c-0.2-3.8-0.2-7.5,0-11.3c0.2-3.2,2.3-5.2,5.5-5.1c3.2,0.1,5.1,2.1,5.3,5.3C324.5,232.2,324.3,234,324.3,235.8L324.3,235.8z"/>
			<path class="st11" d="M335.3,71.5c0-1.8-0.1-3.6,0-5.4c0.3-3.2,2.2-5.2,5.4-5.3c3.2,0,5.3,2,5.5,5.2c0.2,3.7,0.2,7.5,0,11.3
				c-0.2,3.2-2.2,5.2-5.4,5.3c-3.2,0-5.1-2-5.5-5.2C335.2,75.5,335.3,73.5,335.3,71.5z"/>
			<path class="st11" d="M258.6,61.1c0,1.8,0.2,3.7,0,5.4c-0.4,3.2-2.4,5.1-5.6,5c-3-0.1-5-2-5.2-5c-0.3-3.9-0.3-7.8,0-11.7
				c0.2-3.2,2.3-5.1,5.6-5c3,0.1,4.9,2,5.2,5C258.8,56.9,258.6,59,258.6,61.1L258.6,61.1z"/>
			<path class="st11" d="M269.8,38.9c2,0,3.9-0.2,5.9,0.1c3,0.5,4.8,2.4,4.8,5.4c0,3-1.9,5.1-4.8,5.3c-4,0.3-8.1,0.3-12.1,0
				c-3-0.2-4.8-2.3-4.8-5.4c0-3,1.9-4.9,4.8-5.4C265.6,38.7,267.7,38.9,269.8,38.9L269.8,38.9z"/>
			<path class="st11" d="M324.4,290.6c-2,0-3.9,0.2-5.9,0c-3.2-0.4-5.1-2.3-5-5.6c0.1-3,2-5,5-5.2c3.9-0.3,7.8-0.3,11.7,0
				c3.2,0.2,5.1,2.3,5,5.6c-0.1,3-2,4.9-5,5.2C328.3,290.8,326.3,290.6,324.4,290.6L324.4,290.6z"/>
			<path class="st11" d="M302.4,433c-1.8,0-3.6,0.1-5.4,0c-3.2-0.3-5.3-2.1-5.4-5.3c-0.1-3.2,1.9-5.3,5.1-5.5
				c3.9-0.3,7.8-0.3,11.7,0c3,0.2,4.9,2.2,5,5.2c0.1,3.2-1.9,5.2-5.1,5.6C306.3,433.2,304.3,433,302.4,433L302.4,433z"/>
			<path class="st12" d="M99.5,290.7c3.4,0,6.1,2.8,5.9,5.7c-0.3,3.2-2.2,5.1-5.5,5.2c-2.9,0.1-5.7-2.8-5.4-5.7
				C94.7,292.7,96.8,291.1,99.5,290.7L99.5,290.7z"/>
			<path class="st12" d="M94.4,306.9c0.1,2.9-2.6,5.8-5.5,5.6c-3.2-0.2-5.1-2.1-5.4-5.3c-0.3-2.9,2.6-5.7,5.5-5.6
				C91.7,301.6,94.3,304.2,94.4,306.9L94.4,306.9z"/>
			<path class="st12" d="M324.4,306.6c0,3.4-2.7,6.2-5.7,5.9c-3.2-0.3-5.1-2.2-5.3-5.4c-0.2-2.9,2.7-5.7,5.6-5.5
				C322.3,301.9,323.9,304,324.4,306.6z"/>
			<path class="st12" d="M346.2,306.6c0,3.4-2.7,6.2-5.7,5.9c-3.2-0.3-5.1-2.2-5.3-5.4c-0.2-2.9,2.7-5.7,5.6-5.5
				C344.2,301.9,345.8,304,346.2,306.6L346.2,306.6z"/>
			<path class="st12" d="M94.4,285.2c0,2.9-2.8,5.7-5.7,5.4c-3.2-0.3-5.1-2.2-5.2-5.4c-0.2-2.9,2.7-5.6,5.7-5.5
				C91.9,279.8,94.4,282.4,94.4,285.2L94.4,285.2z"/>
			<path class="st12" d="M99.4,312.6c3.4,0,6.2,2.7,5.9,5.6c-0.3,3.2-2.2,5.1-5.4,5.3c-2.9,0.2-5.7-2.7-5.5-5.6
				C94.7,314.7,96.7,313,99.4,312.6L99.4,312.6z"/>
			<path class="st12" d="M77.9,279.8c-3.1-0.5-5.1-2.2-5.4-5.4c-0.2-2.9,2.6-5.7,5.5-5.6c2.9,0,5.7,2.8,5.4,5.7
				C83.1,277.7,81.1,279.4,77.9,279.8L77.9,279.8z"/>
			<path class="st12" d="M45.7,225c-3.4,0-6.2-2.7-5.9-5.6c0.3-3.2,2.2-5.1,5.4-5.3c2.9-0.2,5.7,2.7,5.5,5.6
				C50.3,222.9,48.3,224.5,45.7,225z"/>
			<path class="st12" d="M72.5,208.1c0,3.4-2.7,6.2-5.7,5.9c-3.2-0.3-5.1-2.2-5.3-5.4c-0.2-2.9,2.7-5.7,5.6-5.5
				C70.4,203.4,72.1,205.4,72.5,208.1L72.5,208.1z"/>
			<path class="st12" d="M83.5,329c-0.3,3.4-3.3,6-6.1,5.4c-3.1-0.6-4.9-2.5-4.8-5.8c0.1-3,3.2-5.5,6-5
				C81.7,324.2,83.3,326.2,83.5,329L83.5,329z"/>
			<path class="st12" d="M77.4,192.1c3.4-0.1,6.2,2.6,6.1,5.5c-0.2,3.2-2.1,5.1-5.3,5.4c-2.9,0.3-5.8-2.6-5.6-5.5
				C72.7,194.3,74.7,192.6,77.4,192.1z"/>
			<path class="st12" d="M330.2,334.5c-3.4-0.1-6.1-2.9-5.8-5.8c0.4-3.2,2.3-5,5.5-5.1c2.9-0.1,5.6,2.9,5.3,5.8
				C334.9,332.5,332.9,334.1,330.2,334.5z"/>
			<path class="st12" d="M433.8,175c0.1,3.4-2.5,6.3-5.5,6.1c-3.2-0.2-5.1-2.1-5.4-5.3c-0.3-2.9,2.5-5.8,5.4-5.6
				C431.6,170.4,433.3,172.4,433.8,175z"/>
			<path class="st12" d="M385.2,170.2c-3.4,0.1-6.2-2.6-6-5.5c0.2-3.2,2.1-5.1,5.3-5.4c2.9-0.2,5.8,2.6,5.6,5.5
				C389.8,168.1,387.8,169.7,385.2,170.2L385.2,170.2z"/>
			<path class="st12" d="M214.8,350.3c0.1,3.4-2.6,6.2-5.5,6.1c-3.2-0.2-5.1-2.1-5.4-5.3c-0.3-2.9,2.6-5.8,5.5-5.6
				C212.7,345.6,214.3,347.7,214.8,350.3z"/>
			<path class="st12" d="M143.6,159.3c2.9,0,5.7,2.7,5.5,5.6c-0.3,3.2-2.2,5.1-5.4,5.3c-2.9,0.2-5.6-2.7-5.5-5.6
				C138.3,161.8,140.9,159.3,143.6,159.3L143.6,159.3z"/>
			<path class="st12" d="M105.3,164.6c0.1,2.9-2.6,5.8-5.5,5.6c-3.2-0.2-5.1-2.1-5.4-5.3c-0.3-2.9,2.6-5.7,5.5-5.6
				C102.7,159.3,105.3,161.8,105.3,164.6L105.3,164.6z"/>
			<path class="st12" d="M374.1,159.3c-3.4,0-6.2-2.7-5.9-5.7c0.3-3.2,2.2-5.1,5.4-5.3c2.9-0.2,5.7,2.7,5.5,5.6
				C378.8,157.2,376.8,158.9,374.1,159.3L374.1,159.3z"/>
			<path class="st12" d="M220.8,367.3c-3.4,0-6.2-2.7-5.9-5.6c0.3-3.2,2.2-5.1,5.4-5.3c2.9-0.2,5.7,2.7,5.5,5.6
				C225.5,365.2,223.5,366.9,220.8,367.3z"/>
			<path class="st12" d="M379.2,132.1c-0.6,3.1-2.2,5.1-5.5,5.3c-2.9,0.2-5.6-2.6-5.5-5.6c0.1-2.9,2.9-5.6,5.8-5.3
				C377.2,126.9,378.8,128.9,379.2,132.1z"/>
			<path class="st12" d="M225.8,120.3c0.1,3.4-2.6,6.2-5.5,6.1c-3.2-0.2-5.1-2.1-5.4-5.3c-0.3-2.9,2.6-5.8,5.5-5.6
				C223.6,115.7,225.3,117.7,225.8,120.3z"/>
			<path class="st12" d="M324.3,98.6c0,3.4-2.7,6.2-5.6,5.9c-3.2-0.3-5.1-2.2-5.3-5.4c-0.2-2.9,2.7-5.7,5.6-5.5
				C322.3,93.9,323.9,95.9,324.3,98.6z"/>
			<path class="st12" d="M269.6,372.8c0,2.9-2.8,5.7-5.7,5.4c-3.2-0.3-5.1-2.2-5.2-5.5c-0.1-2.9,2.8-5.6,5.7-5.4
				C267.2,367.5,269.6,370,269.6,372.8z"/>
			<path class="st12" d="M253.1,104.6c-3.1-0.5-5.1-2.2-5.4-5.4c-0.2-2.9,2.6-5.7,5.5-5.6c2.9,0,5.7,2.8,5.4,5.7
				C258.3,102.5,256.3,104.2,253.1,104.6L253.1,104.6z"/>
			<path class="st12" d="M121.7,378.3c2.9-0.1,5.8,2.7,5.5,5.6c-0.3,3.2-2.1,5.1-5.3,5.3c-2.9,0.2-5.6-2.6-5.6-5.6
				C116.4,380.8,118.9,378.3,121.7,378.3L121.7,378.3z"/>
			<path class="st12" d="M253.2,378.3c2.9,0,5.7,2.8,5.4,5.7c-0.3,3.2-2.2,5.1-5.5,5.2c-2.9,0.1-5.6-2.7-5.4-5.7
				C247.8,380.7,250.4,378.3,253.2,378.3L253.2,378.3z"/>
			<path class="st12" d="M335.3,87.4c0.1,3.4-2.5,6.3-5.5,6.1c-3.2-0.2-5.1-2.1-5.4-5.3c-0.3-2.9,2.5-5.8,5.4-5.6
				C333.1,82.8,334.8,84.8,335.3,87.4z"/>
			<path class="st12" d="M241.7,82.7c3.4-0.1,6.2,2.6,6,5.5c-0.2,3.2-2.1,5.1-5.3,5.3c-2.9,0.2-5.7-2.6-5.6-5.5
				C237,84.8,239,83.1,241.7,82.7L241.7,82.7z"/>
			<path class="st12" d="M313.4,76.6c0.1,3.4-2.6,6.2-5.5,6c-3.2-0.2-5.1-2.1-5.3-5.3c-0.2-2.9,2.6-5.8,5.5-5.6
				C311.3,72,312.9,74,313.4,76.6L313.4,76.6z"/>
			<path class="st12" d="M324.4,65.8c0,3.4-2.8,6.1-5.7,5.9c-3.2-0.3-5.1-2.2-5.2-5.4c-0.1-2.9,2.8-5.7,5.7-5.4
				C322.3,61.1,324,63.1,324.4,65.8L324.4,65.8z"/>
			<path class="st12" d="M335.3,54.8c0,3.4-2.7,6.2-5.6,5.9c-3.2-0.3-5.1-2.2-5.3-5.4c-0.2-2.9,2.7-5.7,5.6-5.5
				C333.2,50.1,334.9,52.1,335.3,54.8z"/>
			<path class="st12" d="M330.2,38.8c-3.4-0.1-6.1-2.9-5.8-5.8c0.4-3.2,2.3-5,5.5-5.1c2.9-0.1,5.7,2.8,5.3,5.7
				C334.9,36.9,332.9,38.5,330.2,38.8z"/>
			<path class="st12" d="M236.8,33c-0.1,3.4-2.9,6.1-5.8,5.8c-3.2-0.4-5-2.3-5.1-5.5c-0.1-2.9,2.8-5.7,5.7-5.3
				C234.8,28.3,236.4,30.3,236.8,33L236.8,33z"/>
			<path class="st12" d="M197.8,422.1c3.4-0.1,6.2,2.6,6.1,5.5c-0.2,3.2-2.1,5.1-5.3,5.4c-2.9,0.3-5.8-2.6-5.6-5.5
				C193.2,424.2,195.2,422.6,197.8,422.1L197.8,422.1z"/>
			<path class="st12" d="M166.2,38.8c-3.4,0.1-6.2-2.6-6-5.5c0.2-3.2,2.1-5.1,5.3-5.4c2.9-0.2,5.8,2.6,5.6,5.5
				C170.8,36.7,168.8,38.3,166.2,38.8L166.2,38.8z"/>
			<path class="st12" d="M329.8,422.1c2.9,0,5.7,2.7,5.5,5.6c-0.3,3.2-2.2,5.1-5.4,5.3c-2.9,0.2-5.6-2.7-5.5-5.6
				C324.5,424.6,327,422.1,329.8,422.1L329.8,422.1z"/>
			<path class="st0" d="M379.1,362c0,4.5-0.1,9,0,13.5c0.1,2.1-0.4,2.9-2.7,2.9c-9.1-0.1-18.2-0.1-27.4,0c-2.1,0-2.9-0.4-2.9-2.7
				c0.1-9.1,0.1-18.2,0-27.4c0-2.1,0.4-2.9,2.7-2.9c9.1,0.1,18.2,0.2,27.4,0c2.6,0,2.9,1,2.9,3.2C379,353,379.1,357.5,379.1,362
				L379.1,362z"/>
			<path class="st0" d="M132.1,290.7c4.1,0,6.2,2,6.2,6c0,5,0,4.5-6.4,5.1c-6.2,0.6-4.1-3.5-4.6-6.5
				C126.3,290.1,129.5,290.3,132.1,290.7z"/>
			<path class="st0" d="M72.2,154.9c-0.4,0.7,1.8,3.6-0.7,4.2c-3.1,0.6-6.4,0-9.6,0c-0.1,0-0.2-0.2-0.2-0.3
				c-0.9-6.2-4.7-9-10.5-10.9c-1.7-0.6-0.7-6.3-0.3-9.5c0.2-1.8,2.6-0.6,4-0.8c1.2-0.2,2.5,0,3.8-0.1c1.8-0.1,2.9,0.1,3.3,2.4
				c0.6,3.6,2.8,6.8,6.5,7.5C72.6,148.2,73.1,150.6,72.2,154.9L72.2,154.9z"/>
			<path class="st0" d="M280.6,404.6c0,4.3-2,6.5-6.1,6.5c-4.9,0-4.4,0-5-6.5c-0.5-6.3,3.7-3.9,6.6-4.5
				C281.4,399.2,280.8,402.6,280.6,404.6L280.6,404.6z"/>
			<path class="st0" d="M67.1,38.8c3.6,0,7.3,0,10.9,0c9,0.1,16.3,7.3,16.4,16.3c0.1,7.4,0.1,14.9,0,22.3c-0.1,8.7-7.3,16-16,16.2
				c-7.6,0.1-15.1,0.1-22.7,0c-8.5-0.1-15.8-7.4-15.9-15.8c-0.1-7.7-0.1-15.4,0-23.1c0.2-8.4,7.5-15.6,16-15.8
				C59.5,38.8,63.3,38.8,67.1,38.8L67.1,38.8z"/>
			<path class="st0" d="M94.4,394.7c0,3.6,0,7.3,0,10.9c-0.1,9-7.3,16.2-16.3,16.4c-7.3,0.1-14.6,0.1-21.9,0
				c-9.2-0.1-16.5-7.3-16.6-16.5c-0.1-7.1-0.1-14.3,0-21.4c0.1-9.5,7.2-16.7,16.7-16.8c7.1-0.1,14.3-0.1,21.4,0
				c9.2,0.1,16.4,7.3,16.6,16.5C94.4,387.4,94.4,391.1,94.4,394.7L94.4,394.7z"/>
			<path class="st0" d="M395.6,38.8c3.6,0,7.3,0,10.9,0c9,0.1,16.3,7.3,16.4,16.3c0.1,7.4,0.1,14.9,0,22.3c-0.1,8.7-7.3,16-16,16.2
				c-7.6,0.1-15.1,0.1-22.7,0c-8.5-0.1-15.8-7.4-15.9-15.8c-0.1-7.7-0.1-15.4,0-23.1c0.2-8.4,7.5-15.6,16-15.8
				C388,38.8,391.8,38.8,395.6,38.8L395.6,38.8z"/>
			<path class="st12" d="M362.1,356.4c3.4-0.1,6.2,2.6,6,5.5c-0.2,3.2-2.1,5.1-5.3,5.3c-2.9,0.2-5.7-2.6-5.6-5.5
				C357.4,358.5,359.5,356.9,362.1,356.4L362.1,356.4z"/>
			<path class="st5" d="M67,82.6c-1.8,0-3.7,0-5.5,0c-6.3-0.2-10.8-4.6-10.9-10.9c-0.1-3.6-0.1-7.3,0-10.9
				c0.2-6.1,4.5-10.7,10.5-10.9c3.9-0.2,7.9-0.2,11.8,0c6,0.3,10.4,4.8,10.5,10.9c0.1,3.2,0,6.4,0,9.7c0,7.8-4.4,12.2-12.2,12.2
				C69.9,82.6,68.5,82.6,67,82.6L67,82.6z"/>
			<path class="st5" d="M83.5,394.8c0,1.8,0.1,3.7,0,5.5c-0.2,6.3-4.7,10.7-11,10.9c-3.6,0.1-7.3,0.1-10.9,0
				c-6.2-0.2-10.7-4.7-10.9-11c-0.1-3.6-0.1-7.3,0-10.9c0.2-6.2,4.7-10.7,11-10.9c3.2-0.1,6.4,0,9.7,0c7.8,0,12.1,4.4,12.1,12.3
				C83.5,392,83.5,393.4,83.5,394.8L83.5,394.8z"/>
			<path class="st5" d="M412,66.3c0,1.8,0.1,3.7,0,5.5c-0.2,6.3-4.7,10.8-11,10.9c-3.6,0.1-7.3,0.1-10.9,0
				c-6.1-0.2-10.6-4.5-10.9-10.6c-0.2-3.9-0.2-7.9,0-11.8c0.2-5.8,4.7-10.2,10.5-10.5c3.4-0.1,6.7,0,10.1,0
				c7.8,0,12.1,4.4,12.2,12.2C412,63.4,412,64.9,412,66.3L412,66.3z"/>
		</g>
	</g>
</g>
</svg>
