<?xml version="1.0" encoding="utf-8"?>
<svg version="1.1" baseProfile="full"  width="580" height="580" viewBox="0 0 580 580"
		 xmlns="http://www.w3.org/2000/svg" xmlns:xlink="http://www.w3.org/1999/xlink" xmlns:ev="http://www.w3.org/2001/xml-events">
<desc></desc>
<rect width="580" height="580" fill="#ffffff" cx="0" cy="0" />
<defs>
<rect id="p" width="20" height="20" />
</defs>
<g fill="#000000">
<use x="40" y="40" xlink:href="#p" />
<use x="40" y="60" xlink:href="#p" />
<use x="40" y="80" xlink:href="#p" />
<use x="40" y="100" xlink:href="#p" />
<use x="40" y="120" xlink:href="#p" />
<use x="40" y="140" xlink:href="#p" />
<use x="40" y="160" xlink:href="#p" />
<use x="40" y="200" xlink:href="#p" />
<use x="40" y="240" xlink:href="#p" />
<use x="40" y="260" xlink:href="#p" />
<use x="40" y="280" xlink:href="#p" />
<use x="40" y="400" xlink:href="#p" />
<use x="40" y="420" xlink:href="#p" />
<use x="40" y="440" xlink:href="#p" />
<use x="40" y="460" xlink:href="#p" />
<use x="40" y="480" xlink:href="#p" />
<use x="40" y="500" xlink:href="#p" />
<use x="40" y="520" xlink:href="#p" />
<use x="60" y="40" xlink:href="#p" />
<use x="60" y="160" xlink:href="#p" />
<use x="60" y="200" xlink:href="#p" />
<use x="60" y="220" xlink:href="#p" />
<use x="60" y="280" xlink:href="#p" />
<use x="60" y="300" xlink:href="#p" />
<use x="60" y="320" xlink:href="#p" />
<use x="60" y="340" xlink:href="#p" />
<use x="60" y="360" xlink:href="#p" />
<use x="60" y="400" xlink:href="#p" />
<use x="60" y="520" xlink:href="#p" />
<use x="80" y="40" xlink:href="#p" />
<use x="80" y="80" xlink:href="#p" />
<use x="80" y="100" xlink:href="#p" />
<use x="80" y="120" xlink:href="#p" />
<use x="80" y="160" xlink:href="#p" />
<use x="80" y="200" xlink:href="#p" />
<use x="80" y="220" xlink:href="#p" />
<use x="80" y="240" xlink:href="#p" />
<use x="80" y="280" xlink:href="#p" />
<use x="80" y="320" xlink:href="#p" />
<use x="80" y="360" xlink:href="#p" />
<use x="80" y="400" xlink:href="#p" />
<use x="80" y="440" xlink:href="#p" />
<use x="80" y="460" xlink:href="#p" />
<use x="80" y="480" xlink:href="#p" />
<use x="80" y="520" xlink:href="#p" />
<use x="100" y="40" xlink:href="#p" />
<use x="100" y="80" xlink:href="#p" />
<use x="100" y="100" xlink:href="#p" />
<use x="100" y="120" xlink:href="#p" />
<use x="100" y="160" xlink:href="#p" />
<use x="100" y="200" xlink:href="#p" />
<use x="100" y="220" xlink:href="#p" />
<use x="100" y="280" xlink:href="#p" />
<use x="100" y="300" xlink:href="#p" />
<use x="100" y="340" xlink:href="#p" />
<use x="100" y="400" xlink:href="#p" />
<use x="100" y="440" xlink:href="#p" />
<use x="100" y="460" xlink:href="#p" />
<use x="100" y="480" xlink:href="#p" />
<use x="100" y="520" xlink:href="#p" />
<use x="120" y="40" xlink:href="#p" />
<use x="120" y="80" xlink:href="#p" />
<use x="120" y="100" xlink:href="#p" />
<use x="120" y="120" xlink:href="#p" />
<use x="120" y="160" xlink:href="#p" />
<use x="120" y="200" xlink:href="#p" />
<use x="120" y="220" xlink:href="#p" />
<use x="120" y="240" xlink:href="#p" />
<use x="120" y="260" xlink:href="#p" />
<use x="120" y="280" xlink:href="#p" />
<use x="120" y="340" xlink:href="#p" />
<use x="120" y="360" xlink:href="#p" />
<use x="120" y="400" xlink:href="#p" />
<use x="120" y="440" xlink:href="#p" />
<use x="120" y="460" xlink:href="#p" />
<use x="120" y="480" xlink:href="#p" />
<use x="120" y="520" xlink:href="#p" />
<use x="140" y="40" xlink:href="#p" />
<use x="140" y="160" xlink:href="#p" />
<use x="140" y="220" xlink:href="#p" />
<use x="140" y="240" xlink:href="#p" />
<use x="140" y="260" xlink:href="#p" />
<use x="140" y="300" xlink:href="#p" />
<use x="140" y="320" xlink:href="#p" />
<use x="140" y="340" xlink:href="#p" />
<use x="140" y="360" xlink:href="#p" />
<use x="140" y="400" xlink:href="#p" />
<use x="140" y="520" xlink:href="#p" />
<use x="160" y="40" xlink:href="#p" />
<use x="160" y="60" xlink:href="#p" />
<use x="160" y="80" xlink:href="#p" />
<use x="160" y="100" xlink:href="#p" />
<use x="160" y="120" xlink:href="#p" />
<use x="160" y="140" xlink:href="#p" />
<use x="160" y="160" xlink:href="#p" />
<use x="160" y="200" xlink:href="#p" />
<use x="160" y="240" xlink:href="#p" />
<use x="160" y="280" xlink:href="#p" />
<use x="160" y="320" xlink:href="#p" />
<use x="160" y="360" xlink:href="#p" />
<use x="160" y="400" xlink:href="#p" />
<use x="160" y="420" xlink:href="#p" />
<use x="160" y="440" xlink:href="#p" />
<use x="160" y="460" xlink:href="#p" />
<use x="160" y="480" xlink:href="#p" />
<use x="160" y="500" xlink:href="#p" />
<use x="160" y="520" xlink:href="#p" />
<use x="180" y="200" xlink:href="#p" />
<use x="180" y="220" xlink:href="#p" />
<use x="180" y="280" xlink:href="#p" />
<use x="200" y="60" xlink:href="#p" />
<use x="200" y="100" xlink:href="#p" />
<use x="200" y="140" xlink:href="#p" />
<use x="200" y="160" xlink:href="#p" />
<use x="200" y="200" xlink:href="#p" />
<use x="200" y="240" xlink:href="#p" />
<use x="200" y="260" xlink:href="#p" />
<use x="200" y="280" xlink:href="#p" />
<use x="200" y="300" xlink:href="#p" />
<use x="200" y="360" xlink:href="#p" />
<use x="200" y="380" xlink:href="#p" />
<use x="200" y="400" xlink:href="#p" />
<use x="200" y="440" xlink:href="#p" />
<use x="200" y="460" xlink:href="#p" />
<use x="200" y="480" xlink:href="#p" />
<use x="200" y="500" xlink:href="#p" />
<use x="200" y="520" xlink:href="#p" />
<use x="220" y="100" xlink:href="#p" />
<use x="220" y="120" xlink:href="#p" />
<use x="220" y="140" xlink:href="#p" />
<use x="220" y="180" xlink:href="#p" />
<use x="220" y="200" xlink:href="#p" />
<use x="220" y="280" xlink:href="#p" />
<use x="220" y="320" xlink:href="#p" />
<use x="220" y="340" xlink:href="#p" />
<use x="220" y="360" xlink:href="#p" />
<use x="220" y="420" xlink:href="#p" />
<use x="220" y="460" xlink:href="#p" />
<use x="220" y="480" xlink:href="#p" />
<use x="220" y="500" xlink:href="#p" />
<use x="220" y="520" xlink:href="#p" />
<use x="240" y="40" xlink:href="#p" />
<use x="240" y="60" xlink:href="#p" />
<use x="240" y="100" xlink:href="#p" />
<use x="240" y="160" xlink:href="#p" />
<use x="240" y="180" xlink:href="#p" />
<use x="240" y="220" xlink:href="#p" />
<use x="240" y="240" xlink:href="#p" />
<use x="240" y="280" xlink:href="#p" />
<use x="240" y="380" xlink:href="#p" />
<use x="240" y="420" xlink:href="#p" />
<use x="240" y="440" xlink:href="#p" />
<use x="240" y="460" xlink:href="#p" />
<use x="260" y="140" xlink:href="#p" />
<use x="260" y="180" xlink:href="#p" />
<use x="260" y="200" xlink:href="#p" />
<use x="260" y="320" xlink:href="#p" />
<use x="260" y="340" xlink:href="#p" />
<use x="260" y="360" xlink:href="#p" />
<use x="260" y="460" xlink:href="#p" />
<use x="260" y="520" xlink:href="#p" />
<use x="280" y="40" xlink:href="#p" />
<use x="280" y="80" xlink:href="#p" />
<use x="280" y="100" xlink:href="#p" />
<use x="280" y="140" xlink:href="#p" />
<use x="280" y="160" xlink:href="#p" />
<use x="280" y="220" xlink:href="#p" />
<use x="280" y="260" xlink:href="#p" />
<use x="280" y="280" xlink:href="#p" />
<use x="280" y="320" xlink:href="#p" />
<use x="280" y="360" xlink:href="#p" />
<use x="280" y="380" xlink:href="#p" />
<use x="280" y="440" xlink:href="#p" />
<use x="280" y="520" xlink:href="#p" />
<use x="300" y="40" xlink:href="#p" />
<use x="300" y="100" xlink:href="#p" />
<use x="300" y="200" xlink:href="#p" />
<use x="300" y="240" xlink:href="#p" />
<use x="300" y="280" xlink:href="#p" />
<use x="300" y="300" xlink:href="#p" />
<use x="300" y="360" xlink:href="#p" />
<use x="300" y="440" xlink:href="#p" />
<use x="300" y="460" xlink:href="#p" />
<use x="300" y="480" xlink:href="#p" />
<use x="300" y="520" xlink:href="#p" />
<use x="320" y="80" xlink:href="#p" />
<use x="320" y="100" xlink:href="#p" />
<use x="320" y="120" xlink:href="#p" />
<use x="320" y="160" xlink:href="#p" />
<use x="320" y="200" xlink:href="#p" />
<use x="320" y="220" xlink:href="#p" />
<use x="320" y="260" xlink:href="#p" />
<use x="320" y="280" xlink:href="#p" />
<use x="320" y="340" xlink:href="#p" />
<use x="320" y="360" xlink:href="#p" />
<use x="320" y="380" xlink:href="#p" />
<use x="320" y="400" xlink:href="#p" />
<use x="320" y="480" xlink:href="#p" />
<use x="320" y="520" xlink:href="#p" />
<use x="340" y="60" xlink:href="#p" />
<use x="340" y="100" xlink:href="#p" />
<use x="340" y="140" xlink:href="#p" />
<use x="340" y="180" xlink:href="#p" />
<use x="340" y="200" xlink:href="#p" />
<use x="340" y="240" xlink:href="#p" />
<use x="340" y="320" xlink:href="#p" />
<use x="340" y="340" xlink:href="#p" />
<use x="340" y="360" xlink:href="#p" />
<use x="340" y="440" xlink:href="#p" />
<use x="340" y="460" xlink:href="#p" />
<use x="340" y="480" xlink:href="#p" />
<use x="360" y="40" xlink:href="#p" />
<use x="360" y="100" xlink:href="#p" />
<use x="360" y="120" xlink:href="#p" />
<use x="360" y="160" xlink:href="#p" />
<use x="360" y="180" xlink:href="#p" />
<use x="360" y="200" xlink:href="#p" />
<use x="360" y="220" xlink:href="#p" />
<use x="360" y="260" xlink:href="#p" />
<use x="360" y="340" xlink:href="#p" />
<use x="360" y="360" xlink:href="#p" />
<use x="360" y="380" xlink:href="#p" />
<use x="360" y="400" xlink:href="#p" />
<use x="360" y="420" xlink:href="#p" />
<use x="360" y="440" xlink:href="#p" />
<use x="360" y="460" xlink:href="#p" />
<use x="360" y="500" xlink:href="#p" />
<use x="380" y="200" xlink:href="#p" />
<use x="380" y="220" xlink:href="#p" />
<use x="380" y="280" xlink:href="#p" />
<use x="380" y="300" xlink:href="#p" />
<use x="380" y="360" xlink:href="#p" />
<use x="380" y="440" xlink:href="#p" />
<use x="380" y="460" xlink:href="#p" />
<use x="380" y="500" xlink:href="#p" />
<use x="380" y="520" xlink:href="#p" />
<use x="400" y="40" xlink:href="#p" />
<use x="400" y="60" xlink:href="#p" />
<use x="400" y="80" xlink:href="#p" />
<use x="400" y="100" xlink:href="#p" />
<use x="400" y="120" xlink:href="#p" />
<use x="400" y="140" xlink:href="#p" />
<use x="400" y="160" xlink:href="#p" />
<use x="400" y="240" xlink:href="#p" />
<use x="400" y="260" xlink:href="#p" />
<use x="400" y="280" xlink:href="#p" />
<use x="400" y="320" xlink:href="#p" />
<use x="400" y="340" xlink:href="#p" />
<use x="400" y="360" xlink:href="#p" />
<use x="400" y="400" xlink:href="#p" />
<use x="400" y="440" xlink:href="#p" />
<use x="400" y="460" xlink:href="#p" />
<use x="420" y="40" xlink:href="#p" />
<use x="420" y="160" xlink:href="#p" />
<use x="420" y="200" xlink:href="#p" />
<use x="420" y="220" xlink:href="#p" />
<use x="420" y="240" xlink:href="#p" />
<use x="420" y="260" xlink:href="#p" />
<use x="420" y="280" xlink:href="#p" />
<use x="420" y="300" xlink:href="#p" />
<use x="420" y="320" xlink:href="#p" />
<use x="420" y="360" xlink:href="#p" />
<use x="420" y="440" xlink:href="#p" />
<use x="420" y="460" xlink:href="#p" />
<use x="420" y="480" xlink:href="#p" />
<use x="420" y="500" xlink:href="#p" />
<use x="420" y="520" xlink:href="#p" />
<use x="440" y="40" xlink:href="#p" />
<use x="440" y="80" xlink:href="#p" />
<use x="440" y="100" xlink:href="#p" />
<use x="440" y="120" xlink:href="#p" />
<use x="440" y="160" xlink:href="#p" />
<use x="440" y="280" xlink:href="#p" />
<use x="440" y="320" xlink:href="#p" />
<use x="440" y="360" xlink:href="#p" />
<use x="440" y="380" xlink:href="#p" />
<use x="440" y="400" xlink:href="#p" />
<use x="440" y="420" xlink:href="#p" />
<use x="440" y="440" xlink:href="#p" />
<use x="440" y="460" xlink:href="#p" />
<use x="440" y="500" xlink:href="#p" />
<use x="440" y="520" xlink:href="#p" />
<use x="460" y="40" xlink:href="#p" />
<use x="460" y="80" xlink:href="#p" />
<use x="460" y="100" xlink:href="#p" />
<use x="460" y="120" xlink:href="#p" />
<use x="460" y="160" xlink:href="#p" />
<use x="460" y="200" xlink:href="#p" />
<use x="460" y="240" xlink:href="#p" />
<use x="460" y="300" xlink:href="#p" />
<use x="460" y="320" xlink:href="#p" />
<use x="460" y="340" xlink:href="#p" />
<use x="460" y="380" xlink:href="#p" />
<use x="460" y="400" xlink:href="#p" />
<use x="460" y="420" xlink:href="#p" />
<use x="460" y="440" xlink:href="#p" />
<use x="460" y="500" xlink:href="#p" />
<use x="460" y="520" xlink:href="#p" />
<use x="480" y="40" xlink:href="#p" />
<use x="480" y="80" xlink:href="#p" />
<use x="480" y="100" xlink:href="#p" />
<use x="480" y="120" xlink:href="#p" />
<use x="480" y="160" xlink:href="#p" />
<use x="480" y="280" xlink:href="#p" />
<use x="480" y="360" xlink:href="#p" />
<use x="480" y="380" xlink:href="#p" />
<use x="480" y="400" xlink:href="#p" />
<use x="480" y="440" xlink:href="#p" />
<use x="480" y="460" xlink:href="#p" />
<use x="480" y="480" xlink:href="#p" />
<use x="480" y="520" xlink:href="#p" />
<use x="500" y="40" xlink:href="#p" />
<use x="500" y="160" xlink:href="#p" />
<use x="500" y="200" xlink:href="#p" />
<use x="500" y="220" xlink:href="#p" />
<use x="500" y="240" xlink:href="#p" />
<use x="500" y="280" xlink:href="#p" />
<use x="500" y="300" xlink:href="#p" />
<use x="500" y="320" xlink:href="#p" />
<use x="500" y="400" xlink:href="#p" />
<use x="500" y="420" xlink:href="#p" />
<use x="500" y="460" xlink:href="#p" />
<use x="500" y="520" xlink:href="#p" />
<use x="520" y="40" xlink:href="#p" />
<use x="520" y="60" xlink:href="#p" />
<use x="520" y="80" xlink:href="#p" />
<use x="520" y="100" xlink:href="#p" />
<use x="520" y="120" xlink:href="#p" />
<use x="520" y="140" xlink:href="#p" />
<use x="520" y="160" xlink:href="#p" />
<use x="520" y="240" xlink:href="#p" />
<use x="520" y="260" xlink:href="#p" />
<use x="520" y="280" xlink:href="#p" />
<use x="520" y="320" xlink:href="#p" />
<use x="520" y="340" xlink:href="#p" />
<use x="520" y="400" xlink:href="#p" />
<use x="520" y="420" xlink:href="#p" />
<use x="520" y="460" xlink:href="#p" />
<use x="520" y="480" xlink:href="#p" />
<use x="520" y="500" xlink:href="#p" />
<use x="520" y="520" xlink:href="#p" />
</g>

</svg>